<?xml version="1.0" standalone="no"?>
<!DOCTYPE svg PUBLIC "-//W3C//DTD SVG 1.1//EN" "http://www.w3.org/Graphics/SVG/1.1/DTD/svg11.dtd" >
<svg xmlns="http://www.w3.org/2000/svg" xmlns:xlink="http://www.w3.org/1999/xlink" version="1.1">
<metadata></metadata>
<defs>
<font id="sf_compact_textregular" horiz-adv-x="1149" >
<font-face units-per-em="2048" ascent="1638" descent="-410" />
<missing-glyph horiz-adv-x="463" />
<glyph horiz-adv-x="0" />
<glyph unicode="&#xd;" horiz-adv-x="0" />
<glyph unicode=" "  horiz-adv-x="463" />
<glyph unicode="&#x09;" horiz-adv-x="463" />
<glyph unicode="&#xa0;" horiz-adv-x="463" />
<glyph unicode="!" horiz-adv-x="575" d="M143 121q0 61 41 101t101 40q64 0 105.5 -39.5t41.5 -101.5q0 -60 -41.5 -99.5t-105.5 -39.5q-60 0 -101 40t-41 99zM186 1365h204l-23 -880h-159z" />
<glyph unicode="&#x22;" horiz-adv-x="886" d="M133 1365h210l-29 -581h-153zM543 1365h210l-28 -581h-154z" />
<glyph unicode="#" horiz-adv-x="1248" d="M43 387l28 141h215l66 321h-212l27 140h213l76 376h145l-77 -376h312l77 376h143l-76 -376h226l-28 -140h-227l-67 -321h224l-27 -141h-225l-78 -387h-144l79 387h-312l-79 -387h-144l78 387h-213zM425 523h318l68 331h-317z" />
<glyph unicode="$" d="M112 362h176q16 -79 79 -131t161 -67v460l-72 18q-148 39 -228 127.5t-80 217.5q0 149 105 251.5t275 122.5v145h119v-142q174 -12 285 -106t125 -236h-177q-16 78 -77 127t-156 59v-433l85 -22q174 -46 257.5 -131t83.5 -226q0 -165 -114 -269.5t-312 -120.5v-143h-119 v143q-181 13 -292 110t-124 246zM326 996q0 -139 183 -185l19 -5v398q-93 -17 -147.5 -72.5t-54.5 -135.5zM647 161q116 10 182 69t66 152q0 78 -50.5 126t-161.5 76l-36 9v-432z" />
<glyph unicode="%" horiz-adv-x="1533" d="M71 1058q0 146 83 238.5t214 92.5t213 -92t82 -239q0 -146 -82.5 -239t-212.5 -93q-131 0 -214 93t-83 239zM189 0l512 711l459 654h190l-521 -722l-448 -643h-192zM234 1058q0 -90 36.5 -144.5t97.5 -54.5q60 0 96.5 54.5t36.5 144.5q0 92 -35.5 145.5t-97.5 53.5 q-61 0 -97.5 -54t-36.5 -145zM871 312q0 146 82.5 238.5t212.5 92.5q131 0 213.5 -92.5t82.5 -238.5q0 -147 -82.5 -239.5t-213.5 -92.5q-130 0 -212.5 92.5t-82.5 239.5zM1033 312q0 -91 36.5 -145t96.5 -54t96.5 54.5t36.5 144.5q0 92 -35.5 145t-97.5 53q-61 0 -97 -53.5 t-36 -144.5z" />
<glyph unicode="&#x26;" horiz-adv-x="1358" d="M108 359q0 126 69.5 215.5t195.5 158.5q27 16 52 27q-82 86 -125 157t-43 156q0 129 98 216.5t250 87.5q149 0 248.5 -85.5t99.5 -220.5q0 -61 -22 -112.5t-65 -93.5t-89.5 -73.5t-112.5 -66.5l326 -353q61 115 61 360v45h165v-47q0 -311 -110 -478l237 -252h-224 l-122 131q-94 -82 -207 -119.5t-224 -37.5q-197 0 -327.5 104.5t-130.5 280.5zM286 371q0 -119 86.5 -183.5t209.5 -64.5q84 0 169 30t143 91l-373 409q-20 -10 -44 -23q-94 -50 -142.5 -111t-48.5 -148zM427 1063q0 -54 31 -106.5t111 -132.5q109 56 163 109t54 132 q0 77 -51 125t-129 48q-80 0 -129.5 -49.5t-49.5 -125.5z" />
<glyph unicode="'" horiz-adv-x="475" d="M133 1365h210l-29 -581h-153z" />
<glyph unicode="(" horiz-adv-x="712" d="M219 580q0 513 277 857h157q-115 -171 -183.5 -390t-68.5 -465q0 -526 252 -891h-158q-129 153 -202.5 386t-73.5 503z" />
<glyph unicode=")" horiz-adv-x="712" d="M59 -309q252 365 252 891q0 246 -68.5 465t-183.5 390h157q277 -344 277 -857q0 -270 -73.5 -503t-202.5 -386h-158z" />
<glyph unicode="*" horiz-adv-x="984" d="M101 845l293 144l-293 143l69 123l272 -184l-22 327h140l-22 -327l272 184l69 -123l-294 -143l294 -144l-69 -123l-272 182l22 -325h-140l21 325l-271 -182z" />
<glyph unicode="+" d="M93 467v153h407v420h149v-420h408v-153h-408v-444h-149v444h-407z" />
<glyph unicode="," horiz-adv-x="511" d="M104 -357l90 581h212l-139 -581h-163z" />
<glyph unicode="-" horiz-adv-x="840" d="M105 478v164h630v-164h-630z" />
<glyph unicode="." horiz-adv-x="600" d="M155 124q0 64 41.5 105t101.5 41q63 0 104.5 -41t41.5 -105q0 -61 -42 -101.5t-104 -40.5q-60 0 -101.5 40.5t-41.5 101.5z" />
<glyph unicode="/" horiz-adv-x="712" d="M26 -309l492 1746h168l-493 -1746h-167z" />
<glyph unicode="0" horiz-adv-x="1248" d="M136 656v51q0 314 130 500t360 186q229 0 357.5 -185.5t128.5 -500.5v-51q0 -314 -129 -499t-359 -185q-229 0 -358.5 185t-129.5 499zM319 658q0 -244 82 -384.5t223 -140.5t223 140t82 385v48q0 244 -82 385t-223 141t-223 -141t-82 -385v-48z" />
<glyph unicode="1" horiz-adv-x="934" d="M159 937v188l325 240h182v-1365h-182v1165h-9z" />
<glyph unicode="2" d="M145 984v7q0 79 28.5 150.5t81.5 128t137 90t187 33.5q191 0 309 -105.5t118 -268.5q0 -50 -13.5 -99t-29.5 -83.5t-54 -86.5t-60 -77.5t-75 -86.5l-363 -412v-12h621v-162h-882v118l514 584q49 54 76.5 90.5t53.5 95.5t26 117q0 103 -69 166t-176 63q-115 0 -183 -70.5 t-68 -171.5v-8h-179z" />
<glyph unicode="3" horiz-adv-x="1171" d="M108 321h172q9 -81 88 -136t195 -56q133 -1 214.5 70t79.5 182q-1 109 -80.5 176t-204.5 67h-149v159h141q108 0 178.5 65.5t69.5 165.5q0 98 -69 160t-179 62q-104 0 -172.5 -55.5t-75.5 -133.5h-175q2 67 30.5 128t80 110t133 78t180.5 30q191 1 309.5 -98t122.5 -251 q2 -69 -22 -129.5t-63.5 -100t-82.5 -64.5t-84 -32v-10q47 -5 95.5 -26.5t94.5 -59t76.5 -101.5t31.5 -142q4 -179 -133.5 -293.5t-350.5 -114.5q-198 0 -320.5 100t-130.5 250z" />
<glyph unicode="4" horiz-adv-x="1204" d="M103 279v164q60 108 137.5 237t132.5 217t154.5 244t142.5 224h272v-924h177v-162h-177v-279h-176v279h-663zM285 441h481v764h-10q-264 -393 -471 -754v-10z" />
<glyph unicode="5" horiz-adv-x="1198" d="M152 319h176q19 -95 98 -141.5t182 -46.5q72 0 136.5 34.5t108 107t43.5 169.5q0 130 -85.5 208.5t-205.5 78.5q-96 0 -165.5 -44.5t-102.5 -103.5h-156l61 784h771v-162h-615l-37 -433h10q27 42 99.5 79t174.5 37q89 0 168.5 -30t139 -85.5t94 -139t34.5 -184.5 q0 -212 -134 -343.5t-350 -131.5q-188 0 -311.5 98t-133.5 249z" />
<glyph unicode="6" horiz-adv-x="1228" d="M136 630q0 381 139 571t377 190q182 0 296.5 -94t123.5 -216h-184q-14 57 -75.5 104t-166.5 47q-148 0 -239 -142.5t-91 -414.5h10q33 83 121.5 143.5t225.5 60.5q81 0 156.5 -28.5t136.5 -82t98 -138t37 -187.5q0 -219 -132 -344.5t-339 -125.5q-266 0 -393 206 q-101 165 -101 451zM341 434q0 -139 84 -221t206 -82q127 0 208 77.5t81 224.5q0 139 -84.5 214.5t-203.5 75.5q-127 0 -209 -81t-82 -208z" />
<glyph unicode="7" horiz-adv-x="1098" d="M117 1203v162h874v-169l-559 -1196h-193l565 1192v11h-687z" />
<glyph unicode="8" horiz-adv-x="1226" d="M127 372q0 77 26.5 140t69.5 103t88 64.5t92 36.5v9q-39 13 -75.5 36.5t-71 59.5t-55 90t-20.5 118q0 158 122.5 261t310.5 103t310.5 -103t122.5 -261q0 -65 -21.5 -119.5t-56.5 -90.5t-71.5 -59t-74.5 -35v-9q47 -11 92.5 -36t88.5 -65t69 -103t26 -138 q0 -178 -137.5 -290t-352.5 -112q-213 0 -347.5 111t-134.5 289zM307 380q0 -112 87.5 -184t219.5 -72t218.5 72t86.5 184q0 114 -86.5 186t-218.5 72t-219.5 -72t-87.5 -186zM358 1015q0 -101 72.5 -164.5t183.5 -63.5t182.5 63.5t71.5 164.5q0 100 -71 162t-183 62 q-111 0 -183.5 -62t-72.5 -162z" />
<glyph unicode="9" horiz-adv-x="1226" d="M127 934q0 212 134.5 336.5t340.5 124.5q76 0 142.5 -18t131.5 -65t111 -121.5t74.5 -196.5t28.5 -280q0 -370 -127.5 -555t-389.5 -185q-180 0 -288 84t-122 206h185q16 -53 76 -92t153 -39q92 0 159.5 43t106 120.5t55.5 175t14 214.5h-10q-35 -92 -121.5 -151.5 t-217.5 -59.5q-188 0 -312 124t-124 335zM309 930q0 -143 82 -220t205 -77q118 0 201.5 76.5t83.5 216.5q0 145 -81.5 227.5t-208.5 82.5q-119 0 -200.5 -82.5t-81.5 -223.5z" />
<glyph unicode=":" horiz-adv-x="634" d="M172 124q0 64 41.5 105t101.5 41q63 0 105 -41t42 -105q0 -61 -42 -101.5t-105 -40.5q-59 0 -101 40.5t-42 101.5zM172 801q0 64 41.5 105t101.5 41q63 0 105 -41.5t42 -104.5q0 -61 -42 -101.5t-105 -40.5q-59 0 -101 40.5t-42 101.5z" />
<glyph unicode=";" horiz-adv-x="634" d="M121 -357l90 581h212l-139 -581h-163zM173 801q0 64 41.5 105t101.5 41q63 0 104.5 -41.5t41.5 -104.5q0 -61 -42 -101.5t-104 -40.5q-60 0 -101.5 40.5t-41.5 101.5z" />
<glyph unicode="&#x3c;" d="M143 440v145l862 515v-195l-669 -381v-10l669 -361v-194z" />
<glyph unicode="=" d="M152 285v148h845v-148h-845zM152 659v149h845v-149h-845z" />
<glyph unicode="&#x3e;" d="M144 -41v194l669 361v10l-669 381v195l861 -515v-145z" />
<glyph unicode="?" horiz-adv-x="1003" d="M91 1004q-1 86 24 155t66 112.5t96.5 72.5t112.5 41t118 12q63 0 121.5 -13t110 -41t90 -68t60.5 -97.5t22 -125.5q0 -59 -15.5 -108t-47.5 -89.5t-58.5 -65.5t-72.5 -61q-44 -35 -62 -50.5t-42 -40t-32 -43t-14.5 -45t-6.5 -61.5v-60h-175l-1 83q-1 52 13.5 96.5 t45 82.5t58.5 65t73 62q43 34 64 52.5t45 47t33.5 58t9.5 67.5q0 100 -65.5 149.5t-161.5 49.5q-115 0 -175.5 -66t-61.5 -171h-172zM339 121q0 61 41 101t101 40q64 0 105.5 -40t41.5 -101q0 -60 -41.5 -99.5t-105.5 -39.5q-60 0 -101 40t-41 99z" />
<glyph unicode="@" horiz-adv-x="1726" d="M120 483v58q0 173 58 317.5t159.5 243.5t242.5 153.5t304 54.5h8q138 0 256.5 -36.5t204 -100.5t146.5 -149.5t91 -184t30 -203.5v-51q0 -203 -97 -327.5t-249 -124.5q-99 0 -159 41t-72 98h-10q-14 -53 -75.5 -96t-144.5 -43q-123 0 -192.5 89.5t-69.5 238.5v93 q0 146 71.5 234.5t199.5 88.5q79 0 130.5 -39t67.5 -89h8v114h145v-488q0 -57 34 -88t87 -31q79 0 133 86.5t54 253.5v35q0 110 -39.5 209t-112.5 175t-186.5 121t-250.5 45h-8q-132 0 -245.5 -45t-197 -127.5t-131 -204.5t-47.5 -269v-46q0 -155 49 -277t134 -198 t195 -115.5t237 -39.5h9q207 0 322 50v-130q-102 -48 -324 -48h-9q-126 0 -238.5 30t-207.5 91.5t-164 149.5t-107.5 211t-38.5 270zM702 481q0 -110 43 -162.5t118 -52.5t118 50.5t43 156.5v80q0 96 -46 148.5t-117 52.5t-115 -53.5t-44 -157.5v-62z" />
<glyph unicode="A" horiz-adv-x="1259" d="M51 0l483 1365h191l482 -1365h-194l-134 402h-503l-134 -402h-191zM424 551h408l-201 601h-7z" />
<glyph unicode="B" horiz-adv-x="1279" d="M189 0v1365h518q175 0 278 -90.5t103 -245.5q0 -116 -57 -192.5t-163 -108.5v-8q138 -18 217.5 -106.5t79.5 -230.5q0 -179 -128 -281t-348 -102h-500zM372 160h234q197 0 284 53t87 171q0 114 -74 177.5t-209 63.5h-322v-465zM372 780h206q168 0 246.5 53t78.5 164 q0 98 -60 153t-168 55h-303v-425z" />
<glyph unicode="C" horiz-adv-x="1305" d="M135 581v196q0 289 143.5 452.5t398.5 163.5q206 0 346.5 -119t154.5 -305v-7h-182q-14 117 -101.5 191t-216.5 74q-169 0 -263.5 -119.5t-94.5 -333.5v-192q0 -212 93.5 -328t264.5 -116q131 0 217.5 67t100.5 177h182v-6q-15 -176 -156 -290t-345 -114 q-259 0 -400.5 159.5t-141.5 449.5z" />
<glyph unicode="D" horiz-adv-x="1348" d="M189 0v1365h444q297 0 449 -173.5t152 -508.5t-152 -509t-449 -174h-444zM373 165h247q213 0 318 128.5t105 388.5q0 519 -423 519h-247v-1036z" />
<glyph unicode="E" horiz-adv-x="1154" d="M189 0v1365h825v-165h-642v-424h606v-160h-606v-451h642v-165h-825z" />
<glyph unicode="F" horiz-adv-x="1087" d="M189 0v1365h813v-165h-629v-453h576v-164h-576v-583h-184z" />
<glyph unicode="G" horiz-adv-x="1330" d="M135 593v186q0 283 147 448.5t403 165.5q204 0 339 -111t162 -291h-184q-27 110 -112 173t-209 63q-170 0 -266 -119t-96 -330v-184q0 -216 96.5 -336t271.5 -120q159 0 244 80.5t85 211.5v126h-345v159h524v-281q0 -204 -134.5 -333t-372.5 -129q-264 0 -408.5 163.5 t-144.5 457.5z" />
<glyph unicode="H" horiz-adv-x="1422" d="M189 0v1365h184v-577h676v577h184v-1365h-184v623h-676v-623h-184z" />
<glyph unicode="I" horiz-adv-x="562" d="M189 0v1365h184v-1365h-184z" />
<glyph unicode="J" horiz-adv-x="1028" d="M51 324h180q3 -81 60.5 -132t144.5 -51q109 0 166.5 63t57.5 182v979h185v-963q0 -205 -107.5 -317.5t-301.5 -112.5q-175 0 -280 98.5t-105 253.5z" />
<glyph unicode="K" horiz-adv-x="1246" d="M189 0v1365h184v-653h8l586 653h215l-507 -582l533 -783h-232l-438 654l-165 -180v-474h-184z" />
<glyph unicode="L" horiz-adv-x="1045" d="M189 0v1365h184v-1198h624v-167h-808z" />
<glyph unicode="M" horiz-adv-x="1643" d="M193 0v1365h181l445 -1040h6l444 1040h180v-1365h-167v989h-10l-376 -867h-150l-377 867h-9v-989h-167z" />
<glyph unicode="N" horiz-adv-x="1417" d="M189 0v1365h174l675 -1044h9v1044h181v-1365h-174l-677 1046h-7v-1046h-181z" />
<glyph unicode="O" horiz-adv-x="1369" d="M135 584v197q0 288 148 450t402 162t402 -162t148 -450v-197q0 -288 -148 -450t-402 -162t-402 162t-148 450zM320 583q0 -217 101 -331.5t264 -114.5t264 114.5t101 331.5v198q0 217 -101 332t-264 115t-264 -114.5t-101 -332.5v-198z" />
<glyph unicode="P" horiz-adv-x="1207" d="M189 0v1365h502q197 0 317 -119.5t120 -309.5q0 -191 -120 -309.5t-318 -118.5h-317v-508h-184zM373 670h301q126 0 195.5 70t69.5 196q0 127 -69.5 196.5t-195.5 69.5h-301v-532z" />
<glyph unicode="Q" horiz-adv-x="1372" d="M135 584v196q0 284 147 448.5t403 164.5t403 -164.5t147 -448.5v-196q0 -313 -176 -477l186 -259h-203l-123 169q-105 -45 -234 -45q-255 0 -402.5 164.5t-147.5 447.5zM318 583q0 -210 97.5 -329.5t268.5 -120.5q76 0 135 25l-182 250h202l113 -153q100 117 100 328v198 q0 208 -98.5 327.5t-268.5 119.5t-268.5 -119.5t-98.5 -327.5v-198z" />
<glyph unicode="R" horiz-adv-x="1271" d="M189 0v1365h498q203 0 323 -111.5t120 -298.5q0 -138 -69 -239t-185 -142l278 -574h-209l-251 539h-322v-539h-183zM372 699h284q138 0 211 62.5t73 183.5q0 123 -73 190.5t-204 67.5h-291v-504z" />
<glyph unicode="S" horiz-adv-x="1213" d="M89 347h186q20 -97 107 -154.5t220 -57.5q142 0 224.5 63t82.5 170q0 81 -53.5 131.5t-168.5 79.5l-237 61q-155 40 -239 132.5t-84 228.5q0 174 134 285t343 111q200 0 329 -100.5t145 -258.5h-185q-19 91 -96.5 143.5t-195.5 52.5q-129 0 -208 -62t-79 -162 q0 -145 192 -193l233 -61q182 -47 269 -136.5t87 -236.5q0 -187 -138.5 -299t-373.5 -112q-214 0 -347 103.5t-147 271.5z" />
<glyph unicode="T" horiz-adv-x="1101" d="M47 1200v165h1007v-165h-411v-1200h-184v1200h-412z" />
<glyph unicode="U" horiz-adv-x="1388" d="M173 471v894h184v-887q0 -158 91 -248.5t246 -90.5q154 0 245 90.5t91 248.5v887h185v-894q0 -224 -143 -361.5t-378 -137.5t-378 137t-143 362z" />
<glyph unicode="V" horiz-adv-x="1257" d="M43 1365h210l372 -1146h10l371 1146h208l-489 -1365h-193z" />
<glyph unicode="W" horiz-adv-x="1734" d="M40 1365h212l248 -1082h10l267 1082h180l268 -1082h10l248 1082h211l-374 -1365h-165l-284 1063h-8l-284 -1063h-164z" />
<glyph unicode="X" horiz-adv-x="1184" d="M33 0l444 688l-438 677h221l337 -534h10l335 534h211l-451 -689l442 -676h-221l-335 532h-10l-338 -532h-207z" />
<glyph unicode="Y" horiz-adv-x="1148" d="M26 1365h209l335 -602h9l336 602h207l-456 -785v-580h-184v578z" />
<glyph unicode="Z" horiz-adv-x="1203" d="M110 0v129l723 1061v11h-698v164h926v-129l-719 -1061v-11h736v-164h-968z" />
<glyph unicode="[" horiz-adv-x="712" d="M199 -309v1746h454v-138h-281v-1470h281v-138h-454z" />
<glyph unicode="\" horiz-adv-x="712" d="M26 1437h167l493 -1746h-168z" />
<glyph unicode="]" horiz-adv-x="712" d="M59 -171h282v1470h-282v138h454v-1746h-454v138z" />
<glyph unicode="^" horiz-adv-x="822" d="M73 795l253 570h171l252 -570h-155l-180 421h-6l-180 -421h-155z" />
<glyph unicode="_" horiz-adv-x="897" d="M-1 -103h899v-145h-899v145z" />
<glyph unicode="`" horiz-adv-x="1000" d="M251 1579h178l238 -356h-138z" />
<glyph unicode="a" horiz-adv-x="1117" d="M118 306q0 141 96 225t274 84h275v104q0 98 -58 146.5t-162 48.5q-174 0 -210 -124h-175q12 134 113.5 206.5t277.5 72.5q85 0 154 -19t124.5 -59t86.5 -109.5t31 -163.5v-718h-174v139h-8q-95 -156 -301 -156q-154 0 -249 88.5t-95 234.5zM303 312q0 -85 60.5 -130.5 t148.5 -45.5q107 0 179 64t72 159v118h-260q-102 0 -151 -45t-49 -120z" />
<glyph unicode="b" horiz-adv-x="1209" d="M179 0v1437h181v-551h9q25 82 110.5 132t199.5 50q186 0 294.5 -121.5t108.5 -330.5v-179q0 -210 -110 -331.5t-298 -121.5q-111 0 -194 45.5t-118 126.5h-9v-156h-174zM360 430q0 -127 78.5 -208t200.5 -81q124 0 192.5 86t68.5 241v111q0 158 -69.5 245t-196.5 87 q-126 0 -200 -83.5t-74 -225.5v-172z" />
<glyph unicode="c" horiz-adv-x="1085" d="M127 443v171q0 208 118.5 332t320.5 124q95 0 172.5 -28t126.5 -74t76 -103t29 -119h-177q-5 27 -17.5 52.5t-36.5 52t-68 42.5t-102 16q-127 0 -194 -80.5t-67 -221.5v-165q0 -138 70 -218.5t191 -80.5q197 0 232 151h176q-2 -48 -18 -92.5t-49.5 -84.5t-80.5 -69.5 t-114.5 -47t-148.5 -17.5q-203 0 -321 124t-118 336z" />
<glyph unicode="d" horiz-adv-x="1211" d="M127 425v202q0 201 112 321t296 120q111 0 192 -46t113 -126h9v541h181v-1437h-174v168h-9q-23 -80 -112 -131.5t-204 -51.5q-184 0 -294 119.5t-110 320.5zM309 464q0 -152 71 -237t197 -85q124 0 198 82.5t74 222.5v180q0 125 -78 204.5t-199 79.5q-123 0 -193 -85 t-70 -235v-127z" />
<glyph unicode="e" horiz-adv-x="1121" d="M127 447v158q0 213 122 339t314 126q193 0 315 -127t122 -338v-126h-693v-53q0 -127 71 -207.5t198 -80.5q88 0 149 36t75 88h186q-6 -45 -34 -92t-76 -90t-126 -70t-173 -27q-211 0 -330.5 124.5t-119.5 339.5zM307 610h513v17q0 130 -70 209t-186 79t-186.5 -79 t-70.5 -209v-17z" />
<glyph unicode="f" horiz-adv-x="802" d="M91 900v149h177v106q0 153 77.5 223.5t252.5 70.5q57 0 120 -6v-147q-32 4 -94 4q-95 0 -136 -35t-41 -125v-91h244v-149h-242v-900h-181v900h-177z" />
<glyph unicode="g" horiz-adv-x="1175" d="M114 462v161q0 204 117.5 324.5t296.5 120.5q111 0 193.5 -52t111.5 -122h9v158h173v-1021q0 -209 -125.5 -312.5t-337.5 -103.5q-191 0 -297.5 82.5t-117.5 206.5h184q11 -58 74 -97t163 -39q136 0 206 69t70 195v152h-10q-32 -72 -111 -118.5t-184 -46.5 q-180 0 -297.5 120t-117.5 323zM296 492q0 -142 78 -230.5t201 -88.5q120 0 189.5 84.5t69.5 203.5v157q0 121 -71 207t-190 86q-127 0 -202 -88t-75 -233v-98z" />
<glyph unicode="h" horiz-adv-x="1222" d="M181 0v1437h181v-576h9q7 25 20.5 50t40.5 54.5t61.5 51.5t87.5 37t116 15q158 0 255.5 -91t97.5 -262v-716h-181v658q0 122 -62 186.5t-171 64.5q-131 0 -202.5 -90.5t-71.5 -232.5v-586h-181z" />
<glyph unicode="i" horiz-adv-x="587" d="M165 1376q0 54 36.5 90t90.5 36q57 0 94 -35.5t37 -90.5q0 -54 -37 -89.5t-94 -35.5q-54 0 -90.5 35.5t-36.5 89.5zM203 0v1052h181v-1052h-181z" />
<glyph unicode="j" horiz-adv-x="587" d="M-8 -217q32 -4 65 -4q80 0 113 47t33 151v1075h181v-1077q0 -344 -291 -344q-65 0 -101 9v143zM165 1376q0 54 36.5 90t90.5 36q57 0 94 -35.5t37 -90.5q0 -54 -37 -89.5t-94 -35.5q-54 0 -90.5 35.5t-36.5 89.5z" />
<glyph unicode="k" horiz-adv-x="1074" d="M181 0v1437h181v-856h7l424 471h209l-412 -456l439 -596h-216l-356 483l-95 -97v-386h-181z" />
<glyph unicode="l" horiz-adv-x="549" d="M184 0v1437h181v-1437h-181z" />
<glyph unicode="m" horiz-adv-x="1792" d="M178 0v1052h179v-167h10q11 32 28.5 60.5t49.5 58.5t85 47.5t122 17.5q115 0 190.5 -54.5t101.5 -143.5h8q36 86 116.5 142t204.5 56q163 0 254.5 -86t91.5 -243v-740h-181v688q0 102 -56.5 162t-161.5 60q-99 0 -165.5 -68.5t-66.5 -175.5v-666h-179v681 q0 104 -60 166.5t-163 62.5q-100 0 -163.5 -67.5t-63.5 -174.5v-668h-181z" />
<glyph unicode="n" horiz-adv-x="1216" d="M178 0v1052h179v-191h10q11 37 30.5 68.5t55 65.5t95.5 54t138 20q164 0 260.5 -89.5t96.5 -261.5v-718h-181v660q0 122 -59.5 185.5t-168.5 63.5q-133 0 -204 -90t-71 -233v-586h-181z" />
<glyph unicode="o" horiz-adv-x="1162" d="M127 450v154q0 210 127.5 338t327.5 128t327 -125t127 -341v-154q0 -218 -126.5 -342.5t-327.5 -124.5q-204 0 -329.5 123.5t-125.5 343.5zM308 463q0 -148 72.5 -236.5t202.5 -88.5q128 0 199.5 88.5t71.5 236.5v126q0 145 -73 235t-198 90t-200 -90.5t-75 -234.5v-126z " />
<glyph unicode="p" horiz-adv-x="1208" d="M179 -349v1402h174v-167h9q32 85 116.5 133.5t198.5 48.5q185 0 293.5 -122t108.5 -330v-179q0 -210 -110 -331.5t-298 -121.5q-109 0 -187 44.5t-115 127.5h-9v-505h-181zM360 425q0 -126 76 -205t198 -79q125 0 194 86t69 243v110q0 158 -70 244.5t-198 86.5 q-125 0 -197 -81.5t-72 -223.5v-181z" />
<glyph unicode="q" horiz-adv-x="1206" d="M127 433v185q0 205 110 327.5t293 122.5q111 0 194.5 -48t120.5 -133h9v165h173v-1401h-181v508h-9q-34 -82 -116.5 -128.5t-193.5 -46.5q-184 0 -292 121t-108 328zM309 462q0 -152 70.5 -237t196.5 -85q125 0 197.5 82t72.5 223v181q0 125 -76.5 204.5t-197.5 79.5 q-122 0 -192.5 -85.5t-70.5 -234.5v-128z" />
<glyph unicode="r" horiz-adv-x="802" d="M194 0v1052h181v-162h9q11 30 30.5 58t52.5 56.5t86 46t119 17.5q31 0 66 -5v-167q-25 6 -85 6q-134 0 -205.5 -70.5t-71.5 -182.5v-649h-182z" />
<glyph unicode="s" horiz-adv-x="1041" d="M109 277h177q23 -151 226 -151q118 0 176 45.5t58 118.5q0 17 -3 32t-11 27.5t-14.5 22.5t-22.5 19t-25 15t-32 13.5t-33 11t-39 9.5t-39.5 8t-43.5 9q-49 10 -82 18t-73.5 21.5t-67 27.5t-54 36t-43 48.5t-25.5 62.5t-10 79q0 81 32 144t87.5 100.5t124.5 56.5t148 19 q170 0 273.5 -81t103.5 -215h-168q-5 62 -60.5 107t-154.5 45q-94 0 -152.5 -41.5t-58.5 -115.5q0 -93 112 -131q37 -12 149 -32q66 -12 114 -24.5t97 -35.5t79.5 -52.5t50 -76t19.5 -105.5q0 -155 -114 -242t-306 -87q-179 0 -287 77.5t-108 216.5z" />
<glyph unicode="t" horiz-adv-x="771" d="M75 900v149h162v264h179v-264h238v-149h-238v-602q0 -91 36.5 -123t133.5 -32q49 0 83 4v-147q-45 -9 -129 -9q-93 0 -153 17.5t-93 57.5t-45.5 93t-12.5 136v605h-161z" />
<glyph unicode="u" horiz-adv-x="1210" d="M170 323v729h181v-680q0 -122 62.5 -175.5t166.5 -53.5q114 0 192.5 72.5t78.5 174.5v662h181v-1052h-179v175h-10q-27 -76 -107 -134t-206 -58q-168 0 -264 82t-96 258z" />
<glyph unicode="v" horiz-adv-x="1041" d="M52 1052h200l259 -863h7l279 863h193l-381 -1052h-187z" />
<glyph unicode="w" horiz-adv-x="1523" d="M57 1052h201l186 -825h7l230 825h170l237 -825h7l190 825h181l-280 -1052h-180l-237 803h-5l-231 -803h-181z" />
<glyph unicode="x" horiz-adv-x="1072" d="M75 1052h216l240 -387h8l247 387h206l-356 -516l359 -536h-214l-246 389h-7l-247 -389h-202l350 520z" />
<glyph unicode="y" horiz-adv-x="1094" d="M61 1052h201l278 -873h8l279 873h192q-7 -27 -100.5 -290t-182.5 -513l-89 -250l-22 -57q-63 -168 -149 -239.5t-224 -71.5q-65 0 -104 9v148q32 -6 77 -6q88 0 137.5 38.5t73.5 127.5l11 39z" />
<glyph unicode="z" horiz-adv-x="1023" d="M119 895v157h783v-125l-553 -760v-10h559v-157h-787v121l556 764v10h-558z" />
<glyph unicode="{" horiz-adv-x="712" d="M59 487v190q98 0 132.5 46t34.5 155v230q0 175 92.5 252t274.5 77h60v-143h-39q-120 0 -169.5 -49t-49.5 -160v-269q0 -205 -172 -222v-23q172 -15 172 -225v-302q0 -111 49.5 -160.5t169.5 -49.5h39v-143h-59q-181 0 -274.5 80t-93.5 258v257q0 109 -34.5 155t-132.5 46 z" />
<glyph unicode="|" horiz-adv-x="712" d="M276 -309v1746h159v-1746h-159z" />
<glyph unicode="}" horiz-adv-x="712" d="M59 -166h39q120 0 169.5 49.5t49.5 160.5v302q0 104 44 160.5t128 64.5v23q-172 17 -172 222v269q0 111 -49.5 160t-169.5 49h-39v143h60q182 0 274.5 -77t92.5 -252v-230q0 -109 34.5 -155t132.5 -46v-190q-98 0 -132.5 -46t-34.5 -155v-257q0 -177 -93.5 -257.5 t-273.5 -80.5h-60v143z" />
<glyph unicode="~" horiz-adv-x="1167" d="M99 533q-1 66 16 124.5t50 106t88 75t124 27.5q61 0 113 -22t88 -54t67.5 -63.5t67 -53.5t71.5 -22q58 0 90.5 49.5t35.5 124.5h157q1 -140 -71 -237t-204 -97q-60 0 -111.5 22t-88 53.5t-69 63.5t-68.5 54t-72 22q-58 0 -91 -49t-36 -124h-157z" />
<glyph unicode="&#xa1;" horiz-adv-x="575" d="M143 968q0 60 41.5 99t105.5 39q60 0 101 -39.5t41 -98.5q0 -62 -40.5 -102t-101.5 -40q-64 0 -105.5 40t-41.5 102zM185 -277l23 880h159l22 -880h-204z" />
<glyph unicode="&#xa2;" d="M149 662v66q0 201 101 332.5t279 152.5v172h119v-172q151 -17 244.5 -111.5t99.5 -214.5h-172q-15 60 -61.5 106.5t-110.5 60.5v-729q73 11 119.5 52.5t59.5 99.5h173q-24 -132 -113 -214t-239 -96v-187h-119v187q-179 21 -279.5 156.5t-100.5 338.5zM327 661 q0 -131 54 -218t148 -112v720q-96 -23 -149 -109.5t-53 -219.5v-61z" />
<glyph unicode="&#xa3;" d="M123 628v116h194q-44 159 -44 257q0 181 123 286.5t335 105.5q133 0 246 -51v-159q-113 52 -237 52q-129 0 -208 -63.5t-79 -171.5q0 -90 42 -256h396v-116h-368q18 -80 18 -152q0 -226 -127 -308v-15h618v-153h-900v148q111 23 173 109.5t62 208.5q0 69 -21 162h-223z " />
<glyph unicode="&#xa4;" d="M96 268l175 176q-65 97 -65 211q0 112 61 204l-171 170l102 104l169 -170q93 67 213 67q115 0 208 -63l167 166l102 -104l-167 -166q64 -94 64 -208q0 -118 -69 -216l172 -171l-102 -103l-174 174q-92 -59 -201 -59q-112 0 -206 62l-177 -177zM336 655q0 -100 71.5 -171 t172.5 -71q100 0 172 71t72 171t-72 171.5t-172 71.5q-101 0 -172.5 -71t-71.5 -172z" />
<glyph unicode="&#xa5;" d="M46 1365h209l317 -602h9l317 602h208l-393 -704h240v-110h-285v-148h285v-110h-285v-293h-184v293h-288v110h288v148h-288v110h242z" />
<glyph unicode="&#xa6;" horiz-adv-x="712" d="M276 -309v672h159v-672h-159zM276 791v646h159v-646h-159z" />
<glyph unicode="&#xa7;" horiz-adv-x="984" d="M96 59h170q12 -75 68 -117t153 -42q111 0 165 49t54 123q0 34 -15 61t-30 42.5t-58 32t-62.5 22t-79.5 20.5q-10 3 -15 4q-60 15 -105.5 30.5t-89.5 40.5t-72.5 56t-46 76t-17.5 100q0 159 168 245v7q-163 92 -163 256q0 105 54 181t138 112t186 36q164 0 266 -88.5 t102 -224.5h-164q-3 61 -58.5 112t-151.5 51q-88 0 -142.5 -47.5t-54.5 -123.5q0 -30 9 -54.5t29 -42t39.5 -30t54 -24t57.5 -17.5t64 -15q61 -14 101.5 -26.5t90 -36.5t79 -54t50 -78t20.5 -109q0 -83 -43.5 -147.5t-107.5 -105.5v-8q66 -42 105.5 -96t39.5 -140 q0 -154 -111.5 -247.5t-286.5 -93.5q-165 0 -276.5 84t-112.5 227zM287 579q0 -76 54.5 -116t162.5 -67q87 -20 94 -22q50 19 83.5 72.5t33.5 112.5q0 77 -55.5 119.5t-164.5 65.5q-37 6 -78 16q-47 -13 -88.5 -65t-41.5 -116z" />
<glyph unicode="&#xa8;" horiz-adv-x="1000" d="M205 1334q0 46 32 76.5t79 30.5t79 -30.5t32 -76.5t-32 -76.5t-79 -30.5t-79 30.5t-32 76.5zM573 1334q0 46 32 76.5t79 30.5t79 -30.5t32 -76.5t-32 -76.5t-79 -30.5t-79 30.5t-32 76.5z" />
<glyph unicode="&#xa9;" horiz-adv-x="1693" d="M132 644v103q0 142 54 268t148 218t229 145.5t289 53.5q155 0 290 -54t228.5 -146.5t147.5 -218.5t54 -266v-103q0 -151 -53 -282t-146.5 -224.5t-228.5 -147.5t-292 -54q-209 0 -374 92t-255.5 253.5t-90.5 362.5zM256 640q0 -168 73.5 -300.5t210 -208t312.5 -75.5 t313 75.5t211.5 208t74.5 300.5v107q0 155 -75 283.5t-212.5 204t-311.5 75.5t-311 -75.5t-211 -203.5t-74 -284v-107zM532 632v99q0 157 88 244.5t238 87.5q136 0 216.5 -75t82.5 -174h-129q-8 50 -47.5 90t-121.5 40q-198 0 -198 -219v-94q0 -104 52.5 -156t145.5 -52 q149 0 175 111h129q-4 -96 -82.5 -166.5t-222.5 -70.5q-151 0 -238.5 87t-87.5 248z" />
<glyph unicode="&#xaa;" horiz-adv-x="918" d="M93 754q0 119 81 187.5t222 68.5h221v84q0 74 -43.5 112.5t-126.5 38.5q-136 0 -163 -99h-158q8 113 93 174.5t233 61.5q159 0 245 -75t86 -214v-589h-158v113h-8q-36 -61 -99 -94t-144 -33q-127 0 -204 72.5t-77 191.5zM261 762q0 -62 44 -99.5t118 -37.5 q83 0 138.5 49.5t55.5 122.5v96h-200q-74 0 -115 -34.5t-41 -96.5z" />
<glyph unicode="&#xab;" horiz-adv-x="1320" d="M136 557v8l344 404h199l-339 -403v-6l339 -405h-208zM614 557v8l344 404h200l-339 -403v-6l339 -405h-209z" />
<glyph unicode="&#xac;" d="M93 469v150h963v-522h-159v372h-804z" />
<glyph unicode="&#xad;" horiz-adv-x="840" d="M105 478v164h630v-164h-630z" />
<glyph unicode="&#xae;" horiz-adv-x="1211" d="M121 882v69q0 190 140 321.5t347 131.5q206 0 346.5 -132t140.5 -321v-69q0 -202 -137.5 -335t-349.5 -133q-211 0 -349 133t-138 335zM218 883q0 -161 110 -267t280 -106t280.5 106t110.5 267v68q0 151 -111.5 255t-279.5 104t-279 -104t-111 -255v-68zM434 680v479h221 q66 0 108.5 -41.5t42.5 -103.5q0 -52 -26.5 -90.5t-67.5 -50.5l109 -193h-112l-95 182h-84v-182h-96zM530 934h77q101 0 101 76q0 37 -24 56.5t-64 19.5h-90v-152z" />
<glyph unicode="&#xaf;" horiz-adv-x="1000" d="M195 1249v119h597v-119h-597z" />
<glyph unicode="&#xb0;" horiz-adv-x="726" d="M79 1099q0 119 82.5 201t202.5 82q119 0 201.5 -82.5t82.5 -200.5t-83 -201t-201 -83q-119 0 -202 82.5t-83 201.5zM215 1098q0 -62 44 -107.5t104 -45.5q61 0 105 45t44 108q0 64 -43.5 109t-105.5 45q-61 0 -104.5 -45.5t-43.5 -108.5z" />
<glyph unicode="&#xb1;" d="M97 655v148h400v269h150v-269h403v-148h-403v-283h-150v283h-400zM99 113v149h953v-149h-953z" />
<glyph unicode="&#xb2;" horiz-adv-x="760" d="M80 1484v10q0 118 84.5 193t215.5 75q130 0 212 -67.5t82 -174.5q0 -67 -35.5 -131t-125.5 -160l-177 -187v-8h356v-150h-603v116l312 332q53 54 74.5 93t21.5 83q0 47 -33 77t-85 30q-56 0 -91.5 -34t-35.5 -86q0 -2 0.5 -6t0.5 -5h-173z" />
<glyph unicode="&#xb3;" horiz-adv-x="778" d="M62 1115h167q3 -46 45 -75.5t103 -29.5q66 -1 107.5 33.5t41.5 91.5q-1 54 -41 87t-105 33h-96v142h91q56 0 92 32t35 81q0 48 -35.5 79t-90.5 31q-54 0 -91 -29t-38 -75h-170q3 112 85.5 179t218.5 67q133 0 216 -62.5t85 -163.5q1 -71 -46 -129t-114 -68v-10 q79 -6 131 -64t54 -140q1 -115 -91 -187t-240 -72q-138 0 -225 68.5t-89 180.5z" />
<glyph unicode="&#xb4;" horiz-adv-x="1000" d="M315 1223l239 356h177l-278 -356h-138z" />
<glyph unicode="&#xb5;" horiz-adv-x="1279" d="M181 -349v1401h180v-658q0 -116 59.5 -183.5t167.5 -67.5q118 0 191.5 73.5t73.5 175.5v660h181v-785q0 -74 19 -99.5t71 -25.5q24 0 51 5v-147q-35 -10 -89 -10q-193 0 -216 161l-2 16h-11q-37 -88 -105.5 -136t-162.5 -48q-149 0 -218 110h-9v-442h-181z" />
<glyph unicode="&#xb6;" horiz-adv-x="1311" d="M126 939q0 98 30.5 175.5t77.5 123.5t108 75.5t116.5 40.5t109.5 11h197v-1575h-178v726h-20q-52 0 -108.5 13t-117 45t-107.5 79t-77.5 121.5t-30.5 164.5zM924 -210v1575h178v-1575h-178z" />
<glyph unicode="&#xb7;" horiz-adv-x="659" d="M182 745q0 65 42 107t103 42q65 0 107.5 -41.5t42.5 -107.5q0 -63 -42.5 -104t-107.5 -41q-61 0 -103 41.5t-42 103.5z" />
<glyph unicode="&#xb8;" horiz-adv-x="1000" d="M353 -364q47 -14 116 -14q48 0 82.5 18t34.5 59q0 16 -5 28t-17 19t-23.5 11.5t-31 6t-33 2t-37.5 0.5h-53v81l61 162h123l-53 -144q97 0 153.5 -41t56.5 -121q0 -91 -62 -138t-162 -51q-83 -4 -150 15v107z" />
<glyph unicode="&#xb9;" horiz-adv-x="619" d="M83 1432v168l202 145h183v-861h-177v690h-8z" />
<glyph unicode="&#xba;" horiz-adv-x="954" d="M99 890v107q0 171 104.5 278t273.5 107q171 0 274 -105.5t103 -279.5v-107q0 -177 -102.5 -282t-274.5 -105q-175 0 -276.5 104t-101.5 283zM266 897q0 -117 56.5 -187t155.5 -70q98 0 154 69.5t56 187.5v90q0 116 -57 186.5t-153 70.5q-97 0 -154.5 -71t-57.5 -186v-90z " />
<glyph unicode="&#xbb;" horiz-adv-x="1320" d="M162 155l339 405v6l-339 403h200l344 -404v-8l-335 -402h-209zM641 155l339 405v6l-339 403h199l344 -404v-8l-335 -402h-208z" />
<glyph unicode="&#xbc;" horiz-adv-x="1825" d="M83 1052v168l202 145h183v-861h-177v690h-8zM514 0l282 715l244 650h176l-271 -686l-254 -679h-177zM1081 154v151q35 66 79.5 144t76.5 131.5t88 146.5t81 134h254v-561h115v-146h-115v-154h-162v154h-417zM1246 298h253v424h-8q-133 -207 -245 -420v-4z" />
<glyph unicode="&#xbd;" horiz-adv-x="1786" d="M83 1052v168l202 145h183v-861h-177v690h-8zM514 0l282 715l244 650h176l-271 -686l-254 -679h-177zM1143 600v10q0 118 84.5 193t215.5 75q130 0 212 -67.5t82 -174.5q0 -67 -35.5 -131t-125.5 -160l-177 -187v-8h356v-150h-603v116l312 332q53 54 74.5 93t21.5 83 q0 47 -33 77t-85 30q-56 0 -91.5 -34t-35.5 -86q0 -2 0.5 -6t0.5 -5h-173z" />
<glyph unicode="&#xbe;" horiz-adv-x="1939" d="M62 735h167q3 -46 45 -75.5t103 -29.5q66 -1 107.5 33.5t41.5 91.5q-1 54 -41 87t-105 33h-96v142h91q56 0 92 32t35 81q0 48 -35.5 79t-90.5 31q-54 0 -91 -29t-38 -75h-170q3 112 85.5 179t218.5 67q133 0 216 -62.5t85 -163.5q1 -71 -46 -129t-114 -68v-10 q79 -6 131 -64t54 -140q1 -115 -91 -187t-240 -72q-138 0 -225 68.5t-89 180.5zM628 0l282 715l244 650h176l-271 -686l-254 -679h-177zM1195 154v151q35 66 79.5 144t76.5 131.5t88 146.5t81 134h254v-561h115v-146h-115v-154h-162v154h-417zM1360 298h253v424h-8 q-133 -207 -245 -420v-4z" />
<glyph unicode="&#xbf;" horiz-adv-x="1002" d="M91 20q0 48 12 91t28 72.5t45.5 62t50.5 51t57 47.5q44 35 62 50.5t42 40t32 43t14.5 45.5t6.5 62v59h176v-83q1 -97 -48 -165t-142 -141q-43 -34 -64.5 -53t-45 -47t-32.5 -57.5t-9 -67.5q0 -99 65 -149t162 -50q114 0 175 66t61 171h173q1 -86 -24 -154.5t-66 -112 t-97 -72.5t-112.5 -41t-117.5 -12q-80 0 -151.5 21.5t-128.5 62.5t-90.5 108t-33.5 152zM374 952q0 59 41.5 98.5t105.5 39.5q60 0 101.5 -39.5t41.5 -98.5q0 -62 -41 -102t-102 -40q-64 0 -105.5 40t-41.5 102z" />
<glyph unicode="&#xc0;" horiz-adv-x="1259" d="M51 0l483 1365h191l482 -1365h-194l-134 402h-503l-134 -402h-191zM285 1835h177l238 -323h-136zM424 551h408l-201 601h-7z" />
<glyph unicode="&#xc1;" horiz-adv-x="1259" d="M51 0l483 1365h191l482 -1365h-194l-134 402h-503l-134 -402h-191zM424 551h408l-201 601h-7zM560 1512l238 323h177l-279 -323h-136z" />
<glyph unicode="&#xc2;" horiz-adv-x="1259" d="M51 0l483 1365h191l482 -1365h-194l-134 402h-503l-134 -402h-191zM294 1500l280 245h117l269 -245h-175l-153 140h-5l-162 -140h-171zM424 551h408l-201 601h-7z" />
<glyph unicode="&#xc3;" horiz-adv-x="1259" d="M51 0l483 1365h191l482 -1365h-194l-134 402h-503l-134 -402h-191zM327 1476q0 87 46.5 150t131.5 63q35 0 66.5 -12.5t54 -30t42.5 -35t41 -30t41 -12.5q35 0 55 31.5t22 72.5h112q0 -84 -50 -147.5t-138 -63.5q-44 0 -82 19t-59.5 41t-48 41t-50.5 19q-37 0 -53.5 -33 t-18.5 -73h-112zM424 551h408l-201 601h-7z" />
<glyph unicode="&#xc4;" horiz-adv-x="1259" d="M51 0l483 1365h191l482 -1365h-194l-134 402h-503l-134 -402h-191zM348 1579q0 43 31 73.5t76 30.5t75.5 -30.5t30.5 -73.5q0 -44 -30.5 -74.5t-75.5 -30.5t-76 30.5t-31 74.5zM424 551h408l-201 601h-7zM697 1579q0 43 30.5 73.5t75.5 30.5t76 -30.5t31 -73.5 q0 -44 -31 -74.5t-76 -30.5t-75.5 30.5t-30.5 74.5z" />
<glyph unicode="&#xc5;" horiz-adv-x="1259" d="M51 0l483 1365h191l482 -1365h-194l-134 402h-503l-134 -402h-191zM424 551h408l-201 601h-7zM438 1672q0 80 55.5 134t136.5 54t137 -54t56 -134t-56 -134.5t-137 -54.5t-136.5 54t-55.5 135zM529 1671q0 -43 29 -72.5t72 -29.5t71.5 29.5t28.5 72.5t-28.5 72.5 t-71.5 29.5t-72 -29.5t-29 -72.5z" />
<glyph unicode="&#xc6;" horiz-adv-x="1908" d="M40 0l736 1365h991v-164h-633v-425h597v-160h-597v-451h633v-165h-816v400h-485l-218 -400h-208zM541 550h410v651h-72z" />
<glyph unicode="&#xc7;" horiz-adv-x="1305" d="M135 581v196q0 286 143.5 451t395.5 165q218 0 362 -131t144 -332v-6h-181q0 129 -93 216t-232 87q-167 0 -260.5 -119.5t-93.5 -333.5v-192q0 -215 92.5 -329t266.5 -114q143 0 231.5 77.5t88.5 202.5h181v-7q0 -177 -131 -301t-330 -138l-41 -108q100 0 155.5 -42.5 t55.5 -119.5q0 -90 -64.5 -140t-180.5 -50q-71 0 -130 16v107q50 -14 116 -14q54 0 85.5 20.5t31.5 56.5t-33 51.5t-113 15.5h-53v81l48 129q-221 23 -341 181t-120 424z" />
<glyph unicode="&#xc8;" horiz-adv-x="1154" d="M189 0v1365h825v-165h-642v-424h606v-160h-606v-451h642v-165h-825zM252 1835h177l238 -323h-136z" />
<glyph unicode="&#xc9;" horiz-adv-x="1154" d="M189 0v1365h825v-165h-642v-424h606v-160h-606v-451h642v-165h-825zM527 1512l238 323h177l-279 -323h-136z" />
<glyph unicode="&#xca;" horiz-adv-x="1154" d="M189 0v1365h825v-165h-642v-424h606v-160h-606v-451h642v-165h-825zM261 1500l280 245h117l269 -245h-175l-153 140h-5l-162 -140h-171z" />
<glyph unicode="&#xcb;" horiz-adv-x="1154" d="M189 0v1365h825v-165h-642v-424h606v-160h-606v-451h642v-165h-825zM316 1579q0 43 31 73.5t76 30.5t75.5 -30.5t30.5 -73.5q0 -44 -30.5 -74.5t-75.5 -30.5t-76 30.5t-31 74.5zM665 1579q0 43 30.5 73.5t75.5 30.5t76 -30.5t31 -73.5q0 -44 -31 -74.5t-76 -30.5 t-75.5 30.5t-30.5 74.5z" />
<glyph unicode="&#xcc;" horiz-adv-x="562" d="M-64 1835h177l238 -323h-136zM189 0v1365h184v-1365h-184z" />
<glyph unicode="&#xcd;" horiz-adv-x="562" d="M189 0v1365h184v-1365h-184zM211 1512l238 323h177l-279 -323h-136z" />
<glyph unicode="&#xce;" horiz-adv-x="562" d="M-55 1500l280 245h117l269 -245h-175l-153 140h-5l-162 -140h-171zM189 0v1365h184v-1365h-184z" />
<glyph unicode="&#xcf;" horiz-adv-x="562" d="M-1 1579q0 43 31 73.5t76 30.5t75.5 -30.5t30.5 -73.5q0 -44 -30.5 -74.5t-75.5 -30.5t-76 30.5t-31 74.5zM189 0v1365h184v-1365h-184zM348 1579q0 43 30.5 73.5t75.5 30.5t76 -30.5t31 -73.5q0 -44 -31 -74.5t-76 -30.5t-75.5 30.5t-30.5 74.5z" />
<glyph unicode="&#xd0;" horiz-adv-x="1427" d="M106 614v167h161v584h444q298 0 449.5 -173.5t151.5 -508.5t-152 -509t-449 -174h-444v614h-161zM452 166h246q213 0 318 128t105 389q0 262 -105 390.5t-318 128.5h-246v-421h301v-167h-301v-448z" />
<glyph unicode="&#xd1;" horiz-adv-x="1417" d="M189 0v1365h174l675 -1044h9v1044h181v-1365h-174l-677 1046h-7v-1046h-181zM405 1476q0 87 46.5 150t131.5 63q35 0 66.5 -12.5t54 -30t42.5 -35t41 -30t41 -12.5q35 0 55 31.5t22 72.5h112q0 -84 -50 -147.5t-138 -63.5q-44 0 -82 19t-59.5 41t-48 41t-50.5 19 q-37 0 -53.5 -33t-18.5 -73h-112z" />
<glyph unicode="&#xd2;" horiz-adv-x="1369" d="M135 584v197q0 288 148 450t402 162t402 -162t148 -450v-197q0 -288 -148 -450t-402 -162t-402 162t-148 450zM320 583q0 -217 101 -331.5t264 -114.5t264 114.5t101 331.5v198q0 217 -101 332t-264 115t-264 -114.5t-101 -332.5v-198zM340 1835h177l238 -323h-136z" />
<glyph unicode="&#xd3;" horiz-adv-x="1369" d="M135 584v197q0 288 148 450t402 162t402 -162t148 -450v-197q0 -288 -148 -450t-402 -162t-402 162t-148 450zM320 583q0 -217 101 -331.5t264 -114.5t264 114.5t101 331.5v198q0 217 -101 332t-264 115t-264 -114.5t-101 -332.5v-198zM615 1512l238 323h177l-279 -323 h-136z" />
<glyph unicode="&#xd4;" horiz-adv-x="1369" d="M135 584v197q0 288 148 450t402 162t402 -162t148 -450v-197q0 -288 -148 -450t-402 -162t-402 162t-148 450zM320 583q0 -217 101 -331.5t264 -114.5t264 114.5t101 331.5v198q0 217 -101 332t-264 115t-264 -114.5t-101 -332.5v-198zM349 1500l280 245h117l269 -245 h-175l-153 140h-5l-162 -140h-171z" />
<glyph unicode="&#xd5;" horiz-adv-x="1369" d="M135 584v197q0 288 148 450t402 162t402 -162t148 -450v-197q0 -288 -148 -450t-402 -162t-402 162t-148 450zM320 583q0 -217 101 -331.5t264 -114.5t264 114.5t101 331.5v198q0 217 -101 332t-264 115t-264 -114.5t-101 -332.5v-198zM382 1476q0 87 46.5 150t131.5 63 q35 0 66.5 -12.5t54 -30t42.5 -35t41 -30t41 -12.5q35 0 55 31.5t22 72.5h112q0 -84 -50 -147.5t-138 -63.5q-44 0 -82 19t-59.5 41t-48 41t-50.5 19q-37 0 -53.5 -33t-18.5 -73h-112z" />
<glyph unicode="&#xd6;" horiz-adv-x="1369" d="M135 584v197q0 288 148 450t402 162t402 -162t148 -450v-197q0 -288 -148 -450t-402 -162t-402 162t-148 450zM320 583q0 -217 101 -331.5t264 -114.5t264 114.5t101 331.5v198q0 217 -101 332t-264 115t-264 -114.5t-101 -332.5v-198zM403 1579q0 43 31 73.5t76 30.5 t75.5 -30.5t30.5 -73.5q0 -44 -30.5 -74.5t-75.5 -30.5t-76 30.5t-31 74.5zM752 1579q0 43 30.5 73.5t75.5 30.5t76 -30.5t31 -73.5q0 -44 -31 -74.5t-76 -30.5t-75.5 30.5t-30.5 74.5z" />
<glyph unicode="&#xd7;" d="M155 184l312 311l-312 313l107 109l313 -313l311 313l107 -109l-312 -313l312 -311l-107 -110l-311 312l-313 -312z" />
<glyph unicode="&#xd8;" horiz-adv-x="1369" d="M101 69l118 147q-84 148 -84 361v198q0 289 149 453.5t402 164.5q228 0 372 -136l97 120l104 -76l-118 -146q94 -154 94 -380v-198q0 -286 -149 -445.5t-404 -159.5q-238 0 -380 140l-101 -125zM317 577q0 -114 31 -199l598 737q-100 114 -262 114q-163 0 -265 -118 t-102 -336v-198zM414 253q98 -117 270 -117q164 0 265.5 112t101.5 329v198q0 121 -37 218z" />
<glyph unicode="&#xd9;" horiz-adv-x="1388" d="M173 471v894h184v-887q0 -158 91 -248.5t246 -90.5q154 0 245 90.5t91 248.5v887h185v-894q0 -224 -143 -361.5t-378 -137.5t-378 137t-143 362zM349 1835h177l238 -323h-136z" />
<glyph unicode="&#xda;" horiz-adv-x="1388" d="M173 471v894h184v-887q0 -158 91 -248.5t246 -90.5q154 0 245 90.5t91 248.5v887h185v-894q0 -224 -143 -361.5t-378 -137.5t-378 137t-143 362zM624 1512l238 323h177l-279 -323h-136z" />
<glyph unicode="&#xdb;" horiz-adv-x="1388" d="M173 471v894h184v-887q0 -158 91 -248.5t246 -90.5q154 0 245 90.5t91 248.5v887h185v-894q0 -224 -143 -361.5t-378 -137.5t-378 137t-143 362zM358 1500l280 245h117l269 -245h-175l-153 140h-5l-162 -140h-171z" />
<glyph unicode="&#xdc;" horiz-adv-x="1388" d="M173 471v894h184v-887q0 -158 91 -248.5t246 -90.5q154 0 245 90.5t91 248.5v887h185v-894q0 -224 -143 -361.5t-378 -137.5t-378 137t-143 362zM412 1579q0 43 31 73.5t76 30.5t75.5 -30.5t30.5 -73.5q0 -44 -30.5 -74.5t-75.5 -30.5t-76 30.5t-31 74.5zM761 1579 q0 43 30.5 73.5t75.5 30.5t76 -30.5t31 -73.5q0 -44 -31 -74.5t-76 -30.5t-75.5 30.5t-30.5 74.5z" />
<glyph unicode="&#xdd;" horiz-adv-x="1148" d="M26 1365h209l335 -602h9l336 602h207l-456 -785v-580h-184v578zM504 1512l238 323h177l-279 -323h-136z" />
<glyph unicode="&#xde;" horiz-adv-x="1204" d="M189 0v1365h184v-258h300q207 0 322 -105.5t115 -287.5q0 -183 -115.5 -287.5t-322.5 -104.5h-299v-322h-184zM373 484h283q265 0 265 230t-265 230h-283v-460z" />
<glyph unicode="&#xdf;" horiz-adv-x="1287" d="M188 0v1045q0 184 116 288.5t312 105.5q192 1 310 -97t117 -256q0 -75 -27 -137.5t-68 -101t-84 -60.5t-81 -26v-13q71 0 139 -23t124.5 -66.5t90.5 -114.5t34 -158q0 -98 -40.5 -176.5t-108.5 -127t-152.5 -74t-177.5 -25.5q-89 0 -150 19v152q52 -20 142 -20 q56 0 107.5 13.5t96.5 41.5t72 78.5t27 118.5q0 120 -92.5 190t-248.5 70h-77v178h47q92 0 169 69t77 175q0 96 -65 156t-177 60q-249 0 -249 -265v-1019h-183z" />
<glyph unicode="&#xe0;" horiz-adv-x="1117" d="M118 306q0 141 96 225t274 84h275v104q0 98 -58 146.5t-162 48.5q-174 0 -210 -124h-175q12 134 113.5 206.5t277.5 72.5q85 0 154 -19t124.5 -59t86.5 -109.5t31 -163.5v-718h-174v139h-8q-95 -156 -301 -156q-154 0 -249 88.5t-95 234.5zM233 1579h178l238 -356h-138z M303 312q0 -85 60.5 -130.5t148.5 -45.5q107 0 179 64t72 159v118h-260q-102 0 -151 -45t-49 -120z" />
<glyph unicode="&#xe1;" horiz-adv-x="1117" d="M118 306q0 141 96 225t274 84h275v104q0 98 -58 146.5t-162 48.5q-174 0 -210 -124h-175q12 134 113.5 206.5t277.5 72.5q85 0 154 -19t124.5 -59t86.5 -109.5t31 -163.5v-718h-174v139h-8q-95 -156 -301 -156q-154 0 -249 88.5t-95 234.5zM303 312q0 -85 60.5 -130.5 t148.5 -45.5q107 0 179 64t72 159v118h-260q-102 0 -151 -45t-49 -120zM471 1223l239 356h177l-278 -356h-138z" />
<glyph unicode="&#xe2;" horiz-adv-x="1117" d="M118 306q0 141 96 225t274 84h275v104q0 98 -58 146.5t-162 48.5q-174 0 -210 -124h-175q12 134 113.5 206.5t277.5 72.5q85 0 154 -19t124.5 -59t86.5 -109.5t31 -163.5v-718h-174v139h-8q-95 -156 -301 -156q-154 0 -249 88.5t-95 234.5zM250 1223l249 376h120 l249 -376h-153l-154 252h-5l-153 -252h-153zM303 312q0 -85 60.5 -130.5t148.5 -45.5q107 0 179 64t72 159v118h-260q-102 0 -151 -45t-49 -120z" />
<glyph unicode="&#xe3;" horiz-adv-x="1117" d="M118 306q0 141 96 225t274 84h275v104q0 98 -58 146.5t-162 48.5q-174 0 -210 -124h-175q12 134 113.5 206.5t277.5 72.5q85 0 154 -19t124.5 -59t86.5 -109.5t31 -163.5v-718h-174v139h-8q-95 -156 -301 -156q-154 0 -249 88.5t-95 234.5zM254 1233q0 116 50 183.5 t138 67.5q41 0 73.5 -15t53 -37t37.5 -44t36 -37t39 -15q61 0 70 130h118q0 -111 -51 -181t-134 -70q-38 0 -68.5 15t-50.5 37t-37 44t-37.5 37t-44.5 15q-34 0 -51.5 -31t-22.5 -99h-118zM303 312q0 -85 60.5 -130.5t148.5 -45.5q107 0 179 64t72 159v118h-260 q-102 0 -151 -45t-49 -120z" />
<glyph unicode="&#xe4;" horiz-adv-x="1117" d="M118 306q0 141 96 225t274 84h275v104q0 98 -58 146.5t-162 48.5q-174 0 -210 -124h-175q12 134 113.5 206.5t277.5 72.5q85 0 154 -19t124.5 -59t86.5 -109.5t31 -163.5v-718h-174v139h-8q-95 -156 -301 -156q-154 0 -249 88.5t-95 234.5zM264 1330q0 46 32 76.5 t79 30.5t79 -30.5t32 -76.5t-32 -76.5t-79 -30.5t-79 30.5t-32 76.5zM303 312q0 -85 60.5 -130.5t148.5 -45.5q107 0 179 64t72 159v118h-260q-102 0 -151 -45t-49 -120zM632 1330q0 46 32 76.5t79 30.5t79 -30.5t32 -76.5t-32 -76.5t-79 -30.5t-79 30.5t-32 76.5z" />
<glyph unicode="&#xe5;" horiz-adv-x="1117" d="M118 306q0 141 96 225t274 84h275v104q0 98 -58 146.5t-162 48.5q-174 0 -210 -124h-175q12 134 113.5 206.5t277.5 72.5q85 0 154 -19t124.5 -59t86.5 -109.5t31 -163.5v-718h-174v139h-8q-95 -156 -301 -156q-154 0 -249 88.5t-95 234.5zM303 312q0 -85 60.5 -130.5 t148.5 -45.5q107 0 179 64t72 159v118h-260q-102 0 -151 -45t-49 -120zM367 1417q0 80 55.5 134t136.5 54t137 -54t56 -134t-56 -134.5t-137 -54.5t-136.5 54t-55.5 135zM458 1416q0 -43 29 -72.5t72 -29.5t71.5 29.5t28.5 72.5t-28.5 72.5t-71.5 29.5t-72 -29.5t-29 -72.5z " />
<glyph unicode="&#xe6;" horiz-adv-x="1758" d="M116 303q0 145 98.5 228.5t278.5 83.5h273v104q0 98 -58 145.5t-163 47.5q-181 0 -216 -122h-175q12 133 116.5 206t281.5 73q108 0 193.5 -35t128.5 -104h12q45 67 131 103t189 36q193 0 310.5 -126t117.5 -338v-126h-683v-79q0 -114 73 -187.5t194 -73.5q88 0 145 35.5 t71 87.5h186q-5 -36 -21.5 -73t-49.5 -74.5t-77.5 -66.5t-110 -47t-142.5 -18q-148 0 -246.5 58t-134.5 146h-13q-42 -87 -131.5 -145.5t-222.5 -58.5q-159 0 -257 86t-98 234zM297 312q0 -86 63.5 -132t153.5 -46q107 0 179.5 64t72.5 160v119h-258q-103 0 -157 -45.5 t-54 -119.5zM951 610h503v25q0 130 -66.5 205.5t-181.5 75.5q-110 0 -182.5 -76t-72.5 -195v-35z" />
<glyph unicode="&#xe7;" horiz-adv-x="1085" d="M127 443v171q0 207 118.5 331.5t320.5 124.5q95 0 173 -28t126.5 -74.5t75.5 -103.5t29 -118h-177q-5 27 -17 53t-36.5 53.5t-68.5 44.5t-102 17q-126 0 -194 -83t-68 -224v-165q0 -137 70 -216t192 -79q196 0 232 147h176q-4 -117 -91.5 -204t-248.5 -104l-46 -121 q100 0 155.5 -42.5t55.5 -119.5q0 -90 -64.5 -140t-180.5 -50q-71 0 -130 16v107q48 -14 116 -14q54 0 85.5 20.5t31.5 56.5t-33 51.5t-114 15.5h-52v81l52 138q-180 17 -283 138.5t-103 319.5z" />
<glyph unicode="&#xe8;" horiz-adv-x="1121" d="M127 447v158q0 213 122 339t314 126q193 0 315 -127t122 -338v-126h-693v-53q0 -127 71 -207.5t198 -80.5q88 0 149 36t75 88h186q-6 -45 -34 -92t-76 -90t-126 -70t-173 -27q-211 0 -330.5 124.5t-119.5 339.5zM234 1579h178l238 -356h-138zM307 610h513v17 q0 130 -70 209t-186 79t-186.5 -79t-70.5 -209v-17z" />
<glyph unicode="&#xe9;" horiz-adv-x="1121" d="M127 447v158q0 213 122 339t314 126q193 0 315 -127t122 -338v-126h-693v-53q0 -127 71 -207.5t198 -80.5q88 0 149 36t75 88h186q-6 -45 -34 -92t-76 -90t-126 -70t-173 -27q-211 0 -330.5 124.5t-119.5 339.5zM307 610h513v17q0 130 -70 209t-186 79t-186.5 -79 t-70.5 -209v-17zM472 1223l239 356h177l-278 -356h-138z" />
<glyph unicode="&#xea;" horiz-adv-x="1121" d="M127 447v158q0 213 122 339t314 126q193 0 315 -127t122 -338v-126h-693v-53q0 -127 71 -207.5t198 -80.5q88 0 149 36t75 88h186q-6 -45 -34 -92t-76 -90t-126 -70t-173 -27q-211 0 -330.5 124.5t-119.5 339.5zM251 1223l249 376h120l249 -376h-153l-154 252h-5 l-153 -252h-153zM307 610h513v17q0 130 -70 209t-186 79t-186.5 -79t-70.5 -209v-17z" />
<glyph unicode="&#xeb;" horiz-adv-x="1121" d="M127 447v158q0 213 122 339t314 126q193 0 315 -127t122 -338v-126h-693v-53q0 -127 71 -207.5t198 -80.5q88 0 149 36t75 88h186q-6 -45 -34 -92t-76 -90t-126 -70t-173 -27q-211 0 -330.5 124.5t-119.5 339.5zM265 1330q0 46 32 76.5t79 30.5t79 -30.5t32 -76.5 t-32 -76.5t-79 -30.5t-79 30.5t-32 76.5zM307 610h513v17q0 130 -70 209t-186 79t-186.5 -79t-70.5 -209v-17zM633 1330q0 46 32 76.5t79 30.5t79 -30.5t32 -76.5t-32 -76.5t-79 -30.5t-79 30.5t-32 76.5z" />
<glyph unicode="&#xec;" horiz-adv-x="587" d="M-33 1579h178l238 -356h-138zM203 0v1052h181v-1052h-181z" />
<glyph unicode="&#xed;" horiz-adv-x="587" d="M203 0v1052h181v-1052h-181zM205 1223l239 356h177l-278 -356h-138z" />
<glyph unicode="&#xee;" horiz-adv-x="587" d="M-16 1223l249 376h120l249 -376h-153l-154 252h-5l-153 -252h-153zM203 0v1052h181v-1052h-181z" />
<glyph unicode="&#xef;" horiz-adv-x="587" d="M-2 1330q0 46 32 76.5t79 30.5t79 -30.5t32 -76.5t-32 -76.5t-79 -30.5t-79 30.5t-32 76.5zM203 0v1052h181v-1052h-181zM366 1330q0 46 32 76.5t79 30.5t79 -30.5t32 -76.5t-32 -76.5t-79 -30.5t-79 30.5t-32 76.5z" />
<glyph unicode="&#xf0;" horiz-adv-x="1162" d="M127 469v64q0 215 115 347.5t312 132.5q180 0 268 -127h10q-3 10 -10.5 32.5l-10.5 31.5q-57 154 -137 256l-252 -90l-43 103l220 76q-110 121 -177 181q-23 21 -49 43h226q83 -68 161 -164l276 97l38 -97l-241 -88q203 -304 203 -688v-107q0 -222 -116 -355.5 t-337 -133.5q-219 0 -337.5 132t-118.5 354zM307 473q0 -160 71.5 -246t203.5 -86q131 0 202.5 88t71.5 248v51q0 160 -71 245t-203 85t-203.5 -84t-71.5 -244v-57z" />
<glyph unicode="&#xf1;" horiz-adv-x="1216" d="M178 0v1052h179v-191h10q11 37 30.5 68.5t55 65.5t95.5 54t138 20q164 0 260.5 -89.5t96.5 -261.5v-718h-181v660q0 122 -59.5 185.5t-168.5 63.5q-133 0 -204 -90t-71 -233v-586h-181zM303 1233q0 116 50 183.5t138 67.5q41 0 73.5 -15t53 -37t37.5 -44t36 -37t39 -15 q61 0 70 130h118q0 -111 -51 -181t-134 -70q-38 0 -68.5 15t-50.5 37t-37 44t-37.5 37t-44.5 15q-34 0 -51.5 -31t-22.5 -99h-118z" />
<glyph unicode="&#xf2;" horiz-adv-x="1162" d="M127 450v154q0 210 127.5 338t327.5 128t327 -125t127 -341v-154q0 -218 -126.5 -342.5t-327.5 -124.5q-204 0 -329.5 123.5t-125.5 343.5zM255 1579h178l238 -356h-138zM308 463q0 -148 72.5 -236.5t202.5 -88.5q128 0 199.5 88.5t71.5 236.5v126q0 145 -73 235t-198 90 t-200 -90.5t-75 -234.5v-126z" />
<glyph unicode="&#xf3;" horiz-adv-x="1162" d="M127 450v154q0 210 127.5 338t327.5 128t327 -125t127 -341v-154q0 -218 -126.5 -342.5t-327.5 -124.5q-204 0 -329.5 123.5t-125.5 343.5zM308 463q0 -148 72.5 -236.5t202.5 -88.5q128 0 199.5 88.5t71.5 236.5v126q0 145 -73 235t-198 90t-200 -90.5t-75 -234.5v-126z M493 1223l239 356h177l-278 -356h-138z" />
<glyph unicode="&#xf4;" horiz-adv-x="1162" d="M127 450v154q0 210 127.5 338t327.5 128t327 -125t127 -341v-154q0 -218 -126.5 -342.5t-327.5 -124.5q-204 0 -329.5 123.5t-125.5 343.5zM272 1223l249 376h120l249 -376h-153l-154 252h-5l-153 -252h-153zM308 463q0 -148 72.5 -236.5t202.5 -88.5q128 0 199.5 88.5 t71.5 236.5v126q0 145 -73 235t-198 90t-200 -90.5t-75 -234.5v-126z" />
<glyph unicode="&#xf5;" horiz-adv-x="1162" d="M127 450v154q0 210 127.5 338t327.5 128t327 -125t127 -341v-154q0 -218 -126.5 -342.5t-327.5 -124.5q-204 0 -329.5 123.5t-125.5 343.5zM276 1233q0 116 50 183.5t138 67.5q41 0 73.5 -15t53 -37t37.5 -44t36 -37t39 -15q61 0 70 130h118q0 -111 -51 -181t-134 -70 q-38 0 -68.5 15t-50.5 37t-37 44t-37.5 37t-44.5 15q-34 0 -51.5 -31t-22.5 -99h-118zM308 463q0 -148 72.5 -236.5t202.5 -88.5q128 0 199.5 88.5t71.5 236.5v126q0 145 -73 235t-198 90t-200 -90.5t-75 -234.5v-126z" />
<glyph unicode="&#xf6;" horiz-adv-x="1162" d="M127 450v154q0 210 127.5 338t327.5 128t327 -125t127 -341v-154q0 -218 -126.5 -342.5t-327.5 -124.5q-204 0 -329.5 123.5t-125.5 343.5zM286 1330q0 46 32 76.5t79 30.5t79 -30.5t32 -76.5t-32 -76.5t-79 -30.5t-79 30.5t-32 76.5zM308 463q0 -148 72.5 -236.5 t202.5 -88.5q128 0 199.5 88.5t71.5 236.5v126q0 145 -73 235t-198 90t-200 -90.5t-75 -234.5v-126zM654 1330q0 46 32 76.5t79 30.5t79 -30.5t32 -76.5t-32 -76.5t-79 -30.5t-79 30.5t-32 76.5z" />
<glyph unicode="&#xf7;" d="M99 478v146h952v-146h-952zM441 167q0 58 38.5 96.5t93.5 38.5q58 0 97 -38.5t39 -96.5q0 -57 -39 -94.5t-97 -37.5q-55 0 -93.5 38t-38.5 94zM441 944q0 58 38.5 96.5t93.5 38.5q58 0 97 -38.5t39 -96.5q0 -56 -39 -93.5t-97 -37.5q-55 0 -93.5 37.5t-38.5 93.5z" />
<glyph unicode="&#xf8;" horiz-adv-x="1162" d="M118 -5l109 149q-100 124 -100 306v154q0 210 127.5 338t327.5 128q145 0 263 -80l100 138l96 -74l-107 -147q102 -124 102 -303v-154q0 -218 -126.5 -342.5t-327.5 -124.5q-151 0 -266 78l-101 -138zM303 437q0 -90 32 -151l418 577q-68 57 -171 57q-126 0 -202.5 -92.5 t-76.5 -237.5v-153zM408 190q69 -55 174 -55q129 0 202.5 90t73.5 239v153q0 84 -33 148z" />
<glyph unicode="&#xf9;" horiz-adv-x="1210" d="M170 323v729h181v-680q0 -122 62.5 -175.5t166.5 -53.5q114 0 192.5 72.5t78.5 174.5v662h181v-1052h-179v175h-10q-27 -76 -107 -134t-206 -58q-168 0 -264 82t-96 258zM279 1579h178l238 -356h-138z" />
<glyph unicode="&#xfa;" horiz-adv-x="1210" d="M170 323v729h181v-680q0 -122 62.5 -175.5t166.5 -53.5q114 0 192.5 72.5t78.5 174.5v662h181v-1052h-179v175h-10q-27 -76 -107 -134t-206 -58q-168 0 -264 82t-96 258zM517 1223l239 356h177l-278 -356h-138z" />
<glyph unicode="&#xfb;" horiz-adv-x="1210" d="M170 323v729h181v-680q0 -122 62.5 -175.5t166.5 -53.5q114 0 192.5 72.5t78.5 174.5v662h181v-1052h-179v175h-10q-27 -76 -107 -134t-206 -58q-168 0 -264 82t-96 258zM296 1223l249 376h120l249 -376h-153l-154 252h-5l-153 -252h-153z" />
<glyph unicode="&#xfc;" horiz-adv-x="1210" d="M170 323v729h181v-680q0 -122 62.5 -175.5t166.5 -53.5q114 0 192.5 72.5t78.5 174.5v662h181v-1052h-179v175h-10q-27 -76 -107 -134t-206 -58q-168 0 -264 82t-96 258zM310 1330q0 46 32 76.5t79 30.5t79 -30.5t32 -76.5t-32 -76.5t-79 -30.5t-79 30.5t-32 76.5z M678 1330q0 46 32 76.5t79 30.5t79 -30.5t32 -76.5t-32 -76.5t-79 -30.5t-79 30.5t-32 76.5z" />
<glyph unicode="&#xfd;" horiz-adv-x="1094" d="M61 1052h201l278 -873h8l279 873h192q-7 -27 -100.5 -290t-182.5 -513l-89 -250l-22 -57q-63 -168 -149 -239.5t-224 -71.5q-65 0 -104 9v148q32 -6 77 -6q88 0 137.5 38.5t73.5 127.5l11 39zM459 1223l239 356h177l-278 -356h-138z" />
<glyph unicode="&#xfe;" horiz-adv-x="1208" d="M179 -349v1786h181v-551h9q32 86 114 134t194 48q185 0 293.5 -122t108.5 -330v-179q0 -210 -110 -331.5t-298 -121.5q-109 0 -187 44.5t-115 127.5h-9v-505h-181zM360 425q0 -126 76 -205t198 -79q125 0 194 86t69 243v110q0 158 -70 244.5t-198 86.5q-125 0 -197 -81.5 t-72 -223.5v-181z" />
<glyph unicode="&#xff;" horiz-adv-x="1094" d="M61 1052h201l278 -873h8l279 873h192q-7 -27 -100.5 -290t-182.5 -513l-89 -250l-22 -57q-63 -168 -149 -239.5t-224 -71.5q-65 0 -104 9v148q32 -6 77 -6q88 0 137.5 38.5t73.5 127.5l11 39zM252 1330q0 46 32 76.5t79 30.5t79 -30.5t32 -76.5t-32 -76.5t-79 -30.5 t-79 30.5t-32 76.5zM620 1330q0 46 32 76.5t79 30.5t79 -30.5t32 -76.5t-32 -76.5t-79 -30.5t-79 30.5t-32 76.5z" />
<glyph unicode="&#x152;" horiz-adv-x="2009" d="M135 578v196q0 287 146 453t396 166q124 0 221.5 -44t147.5 -123h14v139h808v-165h-632v-424h596v-160h-596v-451h632v-165h-808v144h-13q-54 -80 -153 -126t-220 -46q-253 0 -396 161.5t-143 444.5zM322 577q0 -207 96.5 -323.5t267.5 -116.5q175 0 272 112t97 315v231 q0 204 -98 318.5t-271 114.5q-168 0 -266 -121.5t-98 -331.5v-198z" />
<glyph unicode="&#x153;" horiz-adv-x="1852" d="M127 450v154q0 210 127.5 338t327.5 128q117 0 209.5 -44t146.5 -132h12q50 80 142 128t200 48q193 0 314.5 -127t121.5 -338v-126h-692v-52q0 -127 70.5 -207.5t197.5 -80.5q88 0 149.5 36t75.5 87h185q-6 -45 -33.5 -92t-75.5 -90t-126.5 -70t-173.5 -27 q-118 0 -212.5 47.5t-142.5 128.5h-13q-52 -81 -147.5 -128.5t-207.5 -47.5q-204 0 -329.5 123.5t-125.5 343.5zM307 463q0 -147 72.5 -235.5t202.5 -88.5q128 0 199.5 88t71.5 236v127q0 145 -73 235t-198 90t-200 -90.5t-75 -234.5v-127zM1036 610h512v17q0 131 -70 210 t-186 79t-186 -79.5t-70 -209.5v-17z" />
<glyph unicode="&#x178;" horiz-adv-x="1148" d="M26 1365h209l335 -602h9l336 602h207l-456 -785v-580h-184v578zM292 1579q0 43 31 73.5t76 30.5t75.5 -30.5t30.5 -73.5q0 -44 -30.5 -74.5t-75.5 -30.5t-76 30.5t-31 74.5zM641 1579q0 43 30.5 73.5t75.5 30.5t76 -30.5t31 -73.5q0 -44 -31 -74.5t-76 -30.5t-75.5 30.5 t-30.5 74.5z" />
<glyph unicode="&#x2c6;" horiz-adv-x="1000" d="M192 1223l249 376h120l249 -376h-153l-154 252h-5l-153 -252h-153z" />
<glyph unicode="&#x2dc;" horiz-adv-x="1000" d="M185 1234q0 116 50 183.5t138 67.5q41 0 73.5 -15t53 -37t37.5 -44t36 -37t39 -15q61 0 70 130h118q0 -111 -51 -181t-134 -70q-38 0 -68.5 15t-50.5 37t-37 44t-37.5 37t-44.5 15q-34 0 -51.5 -31t-22.5 -99h-118z" />
<glyph unicode="&#x2000;" horiz-adv-x="930" />
<glyph unicode="&#x2001;" horiz-adv-x="1860" />
<glyph unicode="&#x2002;" horiz-adv-x="930" />
<glyph unicode="&#x2003;" horiz-adv-x="1860" />
<glyph unicode="&#x2004;" horiz-adv-x="620" />
<glyph unicode="&#x2005;" horiz-adv-x="465" />
<glyph unicode="&#x2006;" horiz-adv-x="310" />
<glyph unicode="&#x2007;" horiz-adv-x="310" />
<glyph unicode="&#x2008;" horiz-adv-x="232" />
<glyph unicode="&#x2009;" horiz-adv-x="372" />
<glyph unicode="&#x200a;" horiz-adv-x="103" />
<glyph unicode="&#x2010;" horiz-adv-x="840" d="M105 478v164h630v-164h-630z" />
<glyph unicode="&#x2011;" horiz-adv-x="840" d="M105 478v164h630v-164h-630z" />
<glyph unicode="&#x2012;" horiz-adv-x="840" d="M105 478v164h630v-164h-630z" />
<glyph unicode="&#x2013;" horiz-adv-x="1216" d="M0 478v164h1216v-164h-1216z" />
<glyph unicode="&#x2014;" horiz-adv-x="2048" d="M0 478v164h2048v-164h-2048z" />
<glyph unicode="&#x2018;" horiz-adv-x="640" d="M169 784l139 581h163l-90 -581h-212z" />
<glyph unicode="&#x2019;" horiz-adv-x="640" d="M169 784l90 581h212l-139 -581h-163z" />
<glyph unicode="&#x201a;" horiz-adv-x="596" d="M147 -463l90 581h212l-139 -581h-163z" />
<glyph unicode="&#x201c;" horiz-adv-x="1021" d="M147 784l139 581h163l-90 -581h-212zM572 784l139 581h163l-90 -581h-212z" />
<glyph unicode="&#x201d;" horiz-adv-x="1021" d="M147 784l90 581h212l-139 -581h-163zM572 784l90 581h212l-139 -581h-163z" />
<glyph unicode="&#x201e;" horiz-adv-x="1021" d="M147 -463l90 581h212l-139 -581h-163zM572 -463l90 581h212l-139 -581h-163z" />
<glyph unicode="&#x2022;" horiz-adv-x="984" d="M178 538q0 130 92.5 222.5t221.5 92.5t221.5 -92.5t92.5 -222.5t-92.5 -223t-221.5 -93t-221.5 93t-92.5 223z" />
<glyph unicode="&#x2026;" horiz-adv-x="1592" d="M155 124q0 64 41.5 105t101.5 41q63 0 104.5 -41t41.5 -105q0 -61 -42 -101.5t-104 -40.5q-60 0 -101.5 40.5t-41.5 101.5zM647 124q0 64 41.5 105t100.5 41q63 0 105 -41t42 -105q0 -61 -42 -101.5t-105 -40.5q-59 0 -100.5 40.5t-41.5 101.5zM1138 124q0 64 41 105 t101 41q63 0 105 -41t42 -105q0 -61 -42 -101.5t-105 -40.5q-59 0 -100.5 40.5t-41.5 101.5z" />
<glyph unicode="&#x202f;" horiz-adv-x="372" />
<glyph unicode="&#x2039;" horiz-adv-x="840" d="M136 557v8l344 404h199l-339 -403v-6l339 -405h-208z" />
<glyph unicode="&#x203a;" horiz-adv-x="840" d="M161 155l339 405v6l-339 403h200l344 -404v-8l-335 -402h-209z" />
<glyph unicode="&#x205f;" horiz-adv-x="465" />
<glyph unicode="&#x20ac;" d="M97 514v110h115v5v107q0 24 1 36h-116v110h126q38 244 197.5 377.5t415.5 133.5q109 0 193 -22v-163q-78 21 -192 21q-172 0 -283 -91t-146 -256h459v-110h-472q-1 -12 -1 -38v-103v-7h473v-110h-464q28 -179 141 -278.5t293 -99.5q112 0 192 20v-163q-86 -21 -193 -21 q-264 0 -425.5 142t-192.5 400h-121z" />
<glyph unicode="&#x2122;" horiz-adv-x="1734" d="M18 1221v144h682v-144h-258v-738h-166v738h-258zM819 483v882h169l223 -578h7l223 578h168v-882h-149v589h-9l-185 -480h-105l-187 480h-7v-589h-148z" />
<glyph unicode="&#x25fc;" horiz-adv-x="1050" d="M0 0v1050h1050v-1050h-1050z" />
<glyph unicode="&#xfb01;" horiz-adv-x="1389" d="M91 900v149h177v106q0 153 77.5 223.5t252.5 70.5q57 0 120 -6v-147q-32 4 -94 4q-95 0 -136 -35t-41 -125v-91h244v-149h-242v-900h-181v900h-177zM967 1376q0 54 36.5 90t90.5 36q57 0 94 -35.5t37 -90.5q0 -54 -37 -89.5t-94 -35.5q-54 0 -90.5 35.5t-36.5 89.5z M1005 0v1052h181v-1052h-181z" />
<glyph unicode="&#xfb02;" horiz-adv-x="1351" d="M91 900v149h177v106q0 153 77.5 223.5t252.5 70.5q57 0 120 -6v-147q-32 4 -94 4q-95 0 -136 -35t-41 -125v-91h244v-149h-242v-900h-181v900h-177zM986 0v1437h181v-1437h-181z" />
</font>
</defs>
</svg>
