<?xml version="1.0" standalone="no"?>
<!DOCTYPE svg PUBLIC "-//W3C//DTD SVG 1.1//EN" "http://www.w3.org/Graphics/SVG/1.1/DTD/svg11.dtd" >
<svg xmlns="http://www.w3.org/2000/svg" xmlns:xlink="http://www.w3.org/1999/xlink" version="1.1">
<metadata></metadata>
<defs>
<font id="sf_compact_displayregular" horiz-adv-x="1138" >
<font-face units-per-em="2048" ascent="1638" descent="-410" />
<missing-glyph horiz-adv-x="410" />
<glyph horiz-adv-x="0" />
<glyph unicode="&#xd;" horiz-adv-x="0" />
<glyph unicode=" "  horiz-adv-x="410" />
<glyph unicode="&#x09;" horiz-adv-x="410" />
<glyph unicode="&#xa0;" horiz-adv-x="410" />
<glyph unicode="!" horiz-adv-x="517" d="M143 94q0 48 33.5 81t81.5 33t81.5 -33t33.5 -81q0 -47 -33.5 -80t-81.5 -33q-47 0 -81 33t-34 80zM161 1365h195l-22 -959h-151z" />
<glyph unicode="&#x22;" horiz-adv-x="731" d="M114 1365h174l-25 -478h-124zM443 1365h174l-25 -478h-124z" />
<glyph unicode="#" horiz-adv-x="1190" d="M16 389l28 134h216l67 331h-213l26 132h214l76 379h140l-78 -379h318l77 379h137l-77 -379h228l-27 -132h-228l-69 -331h226l-27 -134h-226l-78 -389h-138l79 389h-317l-80 -389h-138l78 389h-214zM394 520h321l70 336h-321z" />
<glyph unicode="$" d="M110 357h168q16 -81 81 -134t164 -68v475l-70 18q-147 38 -226.5 126.5t-79.5 216.5q0 147 104 249t272 122v145h120v-141q171 -12 281.5 -104.5t125.5 -234.5h-169q-16 79 -79 129t-159 61v-447l83 -22q175 -46 257.5 -131.5t82.5 -224.5q0 -164 -113.5 -268 t-309.5 -119v-144h-120v143q-178 13 -288.5 109t-124.5 244zM316 998q0 -142 184 -190l23 -6v411q-95 -17 -151 -74.5t-56 -140.5zM643 152q119 11 186 71t67 157q0 80 -51 129.5t-162 78.5l-40 10v-446z" />
<glyph unicode="%" horiz-adv-x="1400" d="M34 1059v42q0 143 69.5 229.5t192.5 86.5q124 0 191.5 -85.5t67.5 -230.5v-42q0 -139 -68.5 -228t-193.5 -89q-123 0 -191 86.5t-68 230.5zM97 0l525 687l516 678h166l-523 -685l-518 -680h-166zM196 1060q0 -93 26.5 -140.5t72.5 -47.5q45 0 71.5 48t26.5 140v40 q0 92 -26.5 139.5t-71.5 47.5q-46 0 -72.5 -47.5t-26.5 -139.5v-40zM845 305v42q0 143 69.5 229.5t192.5 86.5q124 0 191.5 -85.5t67.5 -230.5v-42q0 -139 -68.5 -228t-193.5 -89q-123 0 -191 86.5t-68 230.5zM1007 306q0 -93 26.5 -140.5t72.5 -47.5q45 0 71.5 48t26.5 140 v40q0 92 -26.5 139.5t-71.5 47.5q-46 0 -72.5 -47.5t-26.5 -139.5v-40z" />
<glyph unicode="&#x26;" horiz-adv-x="1299" d="M83 359q0 127 70 217t197 160q5 3 15 8t18.5 9t16.5 8q-81 86 -124.5 157.5t-43.5 156.5q0 127 97 214.5t248 87.5q148 0 246.5 -85.5t98.5 -219.5q0 -49 -15.5 -92.5t-40 -77.5t-64 -66.5t-78.5 -57t-92 -52.5l331 -361q63 118 63 372v41h160v-42q0 -315 -111 -485 l236 -251h-216l-123 133q-95 -84 -209 -121.5t-224 -37.5q-127 0 -230 45t-164.5 134t-61.5 206zM253 371q0 -83 44 -142t110.5 -86t146.5 -27q84 0 171 31t147 94l-379 418q-35 -18 -44 -23q-96 -52 -146 -114.5t-50 -150.5zM396 1065q0 -54 31 -108t112 -135 q112 58 166.5 111t54.5 134q0 79 -51 127.5t-131 48.5q-81 0 -131.5 -50t-50.5 -128z" />
<glyph unicode="'" horiz-adv-x="402" d="M114 1365h174l-25 -478h-124z" />
<glyph unicode="(" horiz-adv-x="670" d="M206 580q0 266 68 474.5t213 382.5h143q-109 -125 -181 -365.5t-72 -489.5q0 -239 61 -451.5t189 -439.5h-149q-129 164 -200.5 395.5t-71.5 493.5z" />
<glyph unicode=")" horiz-adv-x="670" d="M39 1437h143q145 -174 213.5 -382.5t68.5 -474.5q0 -262 -71.5 -493.5t-200.5 -395.5h-150q129 226 189.5 439t60.5 452q0 249 -72 489.5t-181 365.5z" />
<glyph unicode="*" horiz-adv-x="930" d="M156 959l213 108l-213 109l60 106l203 -137l-13 245h119l-14 -244l203 136l60 -105l-214 -110l214 -108l-60 -105l-203 134l13 -242h-117l12 242l-203 -134z" />
<glyph unicode="+" d="M90 472v142h408v422h141v-422h410v-142h-410v-446h-141v446h-408z" />
<glyph unicode="," horiz-adv-x="430" d="M51 -284l84 479h180l-131 -479h-133z" />
<glyph unicode="-" horiz-adv-x="786" d="M78 483v154h630v-154h-630z" />
<glyph unicode="." horiz-adv-x="482" d="M127 96q0 48 34 82t81 34q48 0 82 -34t34 -82q0 -47 -34 -81t-82 -34q-47 0 -81 34t-34 81z" />
<glyph unicode="/" horiz-adv-x="670" d="M9 -309l492 1746h159l-492 -1746h-159z" />
<glyph unicode="0" horiz-adv-x="1155" d="M97 628v106q0 306 126 483t356 177t354.5 -176.5t124.5 -483.5v-106q0 -305 -124.5 -481t-355.5 -176q-230 0 -355.5 176t-125.5 481zM270 630q0 -241 82 -373.5t226 -132.5t225.5 133t81.5 373v103q0 241 -82 374.5t-225 133.5q-144 0 -226 -133.5t-82 -374.5v-103z" />
<glyph unicode="1" horiz-adv-x="806" d="M111 981v178q140 101 336 206h162v-1365h-173v1180h-3q-52 -27 -153.5 -90t-168.5 -109z" />
<glyph unicode="2" horiz-adv-x="1107" d="M116 988v6q0 79 29 151t82 127.5t136 88.5t184 33q189 0 305.5 -105.5t116.5 -268.5q0 -48 -13 -95.5t-28.5 -81.5t-53.5 -85.5t-60 -78.5t-77 -91l-368 -432v-3h626v-153h-870v110l510 591q37 42 58.5 69.5t47.5 68.5t38.5 83t12.5 86q0 107 -70.5 171t-179.5 64 q-117 0 -186.5 -72.5t-69.5 -176.5v-6h-170z" />
<glyph unicode="3" horiz-adv-x="1128" d="M95 353h164q15 -103 86.5 -167.5t201.5 -64.5q143 0 224 72t79 187q-2 113 -82.5 180.5t-221.5 67.5h-139v152h131q116 0 189.5 66.5t72.5 170.5q-1 101 -70 164t-183 63q-118 0 -180.5 -65.5t-70.5 -154.5h-167q2 69 29 133.5t77 118t131.5 86t180.5 32.5q189 0 307 -99 t123 -249q3 -134 -77 -226t-171 -107v-3q47 -4 95.5 -25.5t94.5 -60t76 -102.5t32 -143q2 -115 -60 -209t-174 -147t-252 -53q-210 0 -325 108.5t-121 274.5z" />
<glyph unicode="4" horiz-adv-x="1164" d="M92 283v150q234 422 578 932h252v-928h178v-154h-178v-283h-167v283h-663zM267 437h488v776h-3q-258 -377 -485 -774v-2z" />
<glyph unicode="5" horiz-adv-x="1187" d="M137 343h168q16 -106 94.5 -163.5t198.5 -57.5q73 0 141 35t115.5 109.5t47.5 173.5q0 142 -86.5 228.5t-214.5 86.5q-116 0 -190.5 -52.5t-109.5 -129.5h-148l75 794h748v-153h-601l-45 -428h3q30 42 112 79.5t182 37.5q188 0 319.5 -128.5t131.5 -329.5 q0 -138 -64.5 -246.5t-176.5 -168t-250 -59.5q-103 0 -187 30t-139 82t-87 118.5t-37 141.5z" />
<glyph unicode="6" horiz-adv-x="1134" d="M91 630q0 372 140.5 566.5t371.5 194.5q91 0 168.5 -30t128 -79.5t81 -110t35.5 -123.5h-175q-6 69 -71 131t-174 62q-141 0 -234 -138t-101 -417h1h2q33 82 125.5 142t216.5 60q85 0 164 -30t142.5 -85t102 -141.5t38.5 -191.5q0 -215 -134 -341.5t-336 -126.5 q-226 0 -356 161q-136 171 -136 497zM286 429q0 -144 87.5 -225t212.5 -81q58 0 109.5 19t94 55t67 96.5t24.5 136.5q0 100 -44 171.5t-110 104t-143 32.5q-125 0 -211.5 -82.5t-86.5 -226.5z" />
<glyph unicode="7" horiz-adv-x="1078" d="M96 1212v153h866v-160l-559 -1205h-183l575 1209v3h-699z" />
<glyph unicode="8" horiz-adv-x="1175" d="M106 372q0 76 26.5 140t69.5 104.5t88 66t92 36.5v2q-38 13 -75 37t-71 61t-55 91.5t-21 118.5q0 159 121 262t307 103t307.5 -103t121.5 -262q0 -65 -22 -120.5t-57 -92t-71 -60t-73 -35.5v-2q47 -11 92 -36.5t88 -66.5t69 -104.5t26 -138.5q0 -177 -137 -289.5 t-348 -112.5t-344.5 111.5t-133.5 289.5zM277 378q0 -115 88.5 -188t222.5 -73t222.5 73t88.5 188q0 116 -88 189.5t-223 73.5q-134 0 -222.5 -73.5t-88.5 -189.5zM329 1017q0 -102 73.5 -167.5t185.5 -65.5q113 0 186 65t73 168q0 102 -72.5 165.5t-186.5 63.5 q-113 0 -186 -63.5t-73 -165.5z" />
<glyph unicode="9" horiz-adv-x="1134" d="M95 929q0 140 66 247.5t169.5 161.5t224.5 54q500 0 500 -683q0 -347 -135.5 -541t-376.5 -194q-102 0 -185.5 33t-135.5 86t-81 115t-34 126h175q9 -81 80 -145.5t189 -64.5q160 0 246.5 148.5t87.5 405.5h-7q-31 -86 -124.5 -144t-229.5 -58q-83 0 -159 29.5t-137 85 t-97 143t-36 195.5zM267 932q0 -149 84.5 -228t208.5 -79q123 0 213 86t90 216q0 153 -84 234t-213 81q-58 0 -110.5 -19t-95 -56t-68 -98t-25.5 -137z" />
<glyph unicode=":" horiz-adv-x="526" d="M144 96q0 48 34 82t82 34q47 0 81 -34t34 -82q0 -47 -34 -81t-81 -34q-48 0 -82 34t-34 81zM144 808q0 47 34 81t82 34q47 0 81 -34t34 -81q0 -48 -34 -82t-81 -34q-48 0 -82 34t-34 82z" />
<glyph unicode=";" horiz-adv-x="527" d="M73 -284l84 479h180l-130 -479h-134zM145 808q0 47 34 81t81 34q48 0 82 -34t34 -81q0 -48 -34 -82t-82 -34q-47 0 -81 34t-34 82z" />
<glyph unicode="&#x3c;" d="M141 440v141l855 515v-183l-674 -391v-10l674 -369v-182z" />
<glyph unicode="=" d="M151 293v138h836v-138h-836zM151 659v140h836v-140h-836z" />
<glyph unicode="&#x3e;" d="M141 -39v182l676 369v10l-676 391v183l856 -515v-141z" />
<glyph unicode="?" horiz-adv-x="947" d="M66 1007q0 86 25 154.5t65.5 112t95.5 72t111 40t116 11.5q79 0 149.5 -21t127.5 -62t90.5 -107.5t33.5 -150.5q0 -48 -12 -91t-28 -72.5t-45.5 -62.5t-50.5 -51.5t-57 -47.5q-97 -77 -127 -119t-30 -123v-61h-168l-1 87q0 51 14.5 95t45.5 82.5t58.5 64t72.5 61.5 q44 36 64.5 54t45 47t33.5 59t9 68q0 103 -66.5 153.5t-165.5 50.5q-117 0 -179 -67.5t-62 -175.5h-165zM335 94q0 48 33.5 81t81.5 33t81.5 -33t33.5 -81q0 -47 -33.5 -80t-81.5 -33q-47 0 -81 33t-34 80z" />
<glyph unicode="@" horiz-adv-x="1669" d="M93 481v59q0 230 100 405.5t272.5 268.5t389.5 93h8q171 0 311.5 -56t230 -150.5t137.5 -214.5t48 -251v-51q0 -203 -97.5 -327t-247.5 -124q-100 0 -159.5 41.5t-70.5 96.5h-10q-14 -52 -75 -95t-144 -43q-123 0 -192 89.5t-69 238.5v90q0 146 71 235t199 89 q78 0 129.5 -39t67.5 -88h8v113h141v-488q0 -58 34 -89t89 -31q81 0 135 87t54 255v36q0 110 -39.5 209t-112.5 176t-186.5 122t-251.5 45h-8q-131 0 -245 -45.5t-197.5 -128t-131.5 -205t-48 -270.5v-47q0 -155 49 -277.5t134.5 -199t195.5 -116t238 -39.5h8q208 0 326 51 v-127q-103 -48 -327 -48h-8q-158 0 -294 47.5t-239.5 139t-163 236.5t-59.5 327zM672 480q0 -112 43.5 -165.5t119.5 -53.5q75 0 118.5 51.5t43.5 159.5v80q0 97 -46 150.5t-118 53.5q-71 0 -116 -54t-45 -159v-63z" />
<glyph unicode="A" horiz-adv-x="1200" d="M25 0l486 1365h178l486 -1365h-184l-138 410h-508l-138 -410h-182zM392 551h414l-204 608h-5z" />
<glyph unicode="B" horiz-adv-x="1222" d="M164 0v1365h512q174 0 276.5 -91t102.5 -245q0 -115 -56.5 -192t-161.5 -110v-7q139 -19 217.5 -107.5t78.5 -230.5q0 -178 -128 -280t-349 -102h-492zM338 153h237q202 0 290.5 53.5t88.5 174.5q0 117 -75 181.5t-212 64.5h-329v-474zM338 777h209q171 0 251.5 54 t80.5 168q0 101 -60.5 157t-170.5 56h-310v-435z" />
<glyph unicode="C" horiz-adv-x="1248" d="M110 589v179q0 295 141.5 460.5t394.5 165.5q218 0 360 -130t142 -331v-3h-172q-4 137 -94.5 222t-234.5 85q-175 0 -269 -122t-94 -347v-179q0 -221 94 -341t269 -120q144 0 234.5 78.5t94.5 205.5h172v-4q0 -189 -142.5 -313t-359.5 -124q-253 0 -394.5 163.5 t-141.5 454.5z" />
<glyph unicode="D" horiz-adv-x="1291" d="M164 0v1365h438q297 0 448.5 -172.5t151.5 -509.5q0 -336 -152 -509.5t-448 -173.5h-438zM339 156h253q429 0 429 527q0 526 -429 526h-253v-1053z" />
<glyph unicode="E" horiz-adv-x="1098" d="M164 0v1365h819v-156h-645v-436h609v-152h-609v-465h645v-156h-819z" />
<glyph unicode="F" horiz-adv-x="1029" d="M164 0v1365h806v-156h-631v-464h579v-156h-579v-589h-175z" />
<glyph unicode="G" horiz-adv-x="1273" d="M110 592v202q0 280 144 440t398 160q217 0 355.5 -122.5t152.5 -322.5h-173q-17 135 -105.5 211.5t-229.5 76.5q-174 0 -271 -117t-97 -326v-202q0 -223 96 -343.5t277 -120.5q150 0 243 83t93 216v132h-352v152h522v-281q0 -197 -143 -328t-364 -131 q-265 0 -405.5 161.5t-140.5 459.5z" />
<glyph unicode="H" horiz-adv-x="1364" d="M164 0v1365h175v-581h687v581h175v-1365h-175v629h-687v-629h-175z" />
<glyph unicode="I" horiz-adv-x="502" d="M164 0v1365h175v-1365h-175z" />
<glyph unicode="J" horiz-adv-x="965" d="M24 313h171q4 -83 58.5 -133t153.5 -50q114 0 169 68.5t55 207.5v959h175v-959q0 -210 -103.5 -322.5t-295.5 -112.5q-172 0 -277.5 95.5t-105.5 246.5z" />
<glyph unicode="K" horiz-adv-x="1185" d="M164 0v1365h175v-660h7l594 660h206l-509 -581l536 -784h-222l-444 663l-168 -183v-480h-175z" />
<glyph unicode="L" horiz-adv-x="989" d="M164 0v1365h175v-1208h628v-157h-803z" />
<glyph unicode="M" horiz-adv-x="1585" d="M169 0v1365h170l452 -1055h4l451 1055h170v-1365h-158v992h-6l-386 -878h-148l-386 878h-5v-992h-158z" />
<glyph unicode="N" horiz-adv-x="1361" d="M164 0v1365h168l694 -1066h4v1066h167v-1365h-168l-694 1067h-4v-1067h-167z" />
<glyph unicode="O" horiz-adv-x="1314" d="M110 575v201q0 288 149 453t400 165q250 0 397.5 -164.5t147.5 -453.5v-201q0 -286 -148.5 -445t-400.5 -159q-251 0 -398 159t-147 445zM285 575q0 -220 103 -333.5t269 -113.5q167 0 269.5 113.5t102.5 333.5v202q0 221 -103.5 340.5t-268.5 119.5q-164 0 -268 -119.5 t-104 -340.5v-202z" />
<glyph unicode="P" horiz-adv-x="1149" d="M164 0v1365h497q195 0 314.5 -117t119.5 -308q0 -192 -119.5 -308t-314.5 -116h-323v-516h-174zM338 670h207q75 0 129 6.5t102 24t77.5 47.5t46 78t16.5 114q0 128 -70.5 199t-197.5 71h-310v-540z" />
<glyph unicode="Q" horiz-adv-x="1314" d="M110 582v200q0 287 147.5 449.5t397.5 162.5q251 0 399.5 -162.5t148.5 -449.5v-200q0 -312 -176 -475l188 -261h-196l-126 173q-110 -48 -238 -48q-250 0 -397.5 162t-147.5 449zM283 583q0 -222 103.5 -339.5t268.5 -118.5q74 0 141 28l-185 253h196l119 -159 q103 121 103 336v198q0 221 -104 338.5t-270 117.5q-165 0 -268.5 -117.5t-103.5 -338.5v-198z" />
<glyph unicode="R" horiz-adv-x="1213" d="M164 0v1365h493q110 0 196 -33t138 -90.5t78.5 -129.5t26.5 -154q0 -80 -22 -147t-60.5 -112t-81 -74.5t-90.5 -46.5l278 -578h-199l-252 543h-331v-543h-174zM338 696h289q142 0 215.5 65t73.5 187q0 128 -75.5 195.5t-205.5 67.5h-297v-515z" />
<glyph unicode="S" horiz-adv-x="1155" d="M61 368h175q10 -105 97.5 -173.5t238.5 -68.5q143 0 227.5 65t84.5 176q0 84 -54 135t-169 81l-240 63q-65 17 -119 44.5t-100.5 69.5t-73 104.5t-26.5 139.5q0 93 39.5 169t105.5 124t150.5 74t177.5 26q71 0 137.5 -14.5t127 -46t105.5 -76t72.5 -109.5t29.5 -142h-173 q-9 103 -87.5 168.5t-215.5 65.5q-130 0 -211 -60t-81 -167q0 -154 192 -202l236 -63q83 -22 144.5 -51t111 -72.5t74.5 -105.5t25 -142q0 -98 -39.5 -177t-108.5 -129t-161.5 -76.5t-199.5 -26.5q-129 0 -227.5 36.5t-153.5 96.5t-82 126.5t-29 137.5z" />
<glyph unicode="T" horiz-adv-x="1043" d="M20 1209v156h1003v-156h-415v-1209h-173v1209h-415z" />
<glyph unicode="U" horiz-adv-x="1331" d="M148 454v911h173v-888q0 -160 93.5 -254.5t250.5 -94.5t251 95t94 254v888h173v-911q0 -215 -139 -349t-379 -134q-239 0 -378 134t-139 349z" />
<glyph unicode="V" horiz-adv-x="1197" d="M17 1365h199l381 -1140h6l379 1140h198l-492 -1365h-180z" />
<glyph unicode="W" horiz-adv-x="1671" d="M14 1365h193l264 -1068h5l271 1068h178l269 -1068h6l264 1068h194l-377 -1365h-155l-287 1071h-6l-287 -1071h-157z" />
<glyph unicode="X" horiz-adv-x="1124" d="M6 0l447 688l-440 677h210l344 -541h9l341 541h201l-453 -689l443 -676h-210l-341 540h-9l-344 -540h-198z" />
<glyph unicode="Y" horiz-adv-x="1088" d="M0 1365h200l341 -606h6l342 606h198l-457 -776v-589h-173v588z" />
<glyph unicode="Z" horiz-adv-x="1146" d="M83 0v123l731 1082v5h-705v155h921v-121l-726 -1084v-5h743v-155h-964z" />
<glyph unicode="[" horiz-adv-x="670" d="M185 -309v1746h445v-136h-281v-1474h281v-136h-445z" />
<glyph unicode="\" horiz-adv-x="670" d="M9 1437h159l492 -1746h-159z" />
<glyph unicode="]" horiz-adv-x="670" d="M39 -173h283v1474h-283v136h446v-1746h-446v136z" />
<glyph unicode="^" horiz-adv-x="757" d="M47 795l250 570h165l248 -570h-147l-182 430h-5l-183 -430h-146z" />
<glyph unicode="_" horiz-adv-x="842" d="M-28 -103h898v-136h-898v136z" />
<glyph unicode="`" horiz-adv-x="945" d="M274 1460h175l184 -273h-132z" />
<glyph unicode="a" horiz-adv-x="1054" d="M93 302q0 140 95.5 220t273.5 81h277v107q0 103 -57.5 158.5t-164.5 55.5q-99 0 -156.5 -47t-65.5 -127h-162q9 144 107.5 231t282.5 87q173 0 280 -90.5t107 -252.5v-725h-165v131h-5q-92 -148 -304 -148q-153 0 -248 87.5t-95 231.5zM269 308q0 -88 62 -135t151 -47 q111 0 184 62.5t73 160.5v122h-264q-104 0 -155 -44t-51 -119z" />
<glyph unicode="b" horiz-adv-x="1170" d="M156 0v1437h172v-530h5q41 70 126 115t183 45q188 0 302.5 -129t114.5 -361v-102q0 -227 -114 -359.5t-305 -132.5q-214 0 -314 175h-5v-158h-165zM326 486q0 -170 77 -261.5t216 -91.5q121 0 194 92.5t73 258.5v83q0 166 -73 258t-194 92q-139 0 -216 -90.5t-77 -259.5 v-81z" />
<glyph unicode="c" horiz-adv-x="1042" d="M111 478v104q0 216 117 351t319 135q116 0 208 -47.5t139.5 -120t52.5 -154.5h-169q-18 71 -78 120.5t-142 49.5q-130 0 -202.5 -90.5t-72.5 -250.5v-98q0 -155 75 -248.5t201 -93.5q94 0 153 43.5t74 110.5h169q-27 -141 -130.5 -223.5t-277.5 -82.5q-136 0 -236 66 t-150 177t-50 252z" />
<glyph unicode="d" horiz-adv-x="1166" d="M111 478v95q0 219 112.5 356.5t307.5 137.5q101 0 181 -45t121 -117h5v532h172v-1437h-165v158h-4q-45 -82 -125.5 -128t-184.5 -46q-201 0 -310.5 134.5t-109.5 359.5zM284 484q0 -170 75 -260t199 -90q133 0 208 91.5t75 257.5v84q0 160 -77 255t-209 95 q-122 0 -196.5 -90t-74.5 -260v-83z" />
<glyph unicode="e" horiz-adv-x="1084" d="M111 475v118q0 212 115 343.5t318 131.5t318 -133.5t115 -353.5v-98h-694v-19q0 -152 73 -244.5t200 -92.5q90 0 150 42t86 117h171q-31 -137 -137 -220t-274 -83q-204 0 -322.5 133.5t-118.5 358.5zM283 622h522v3q0 128 -72 213.5t-188 85.5q-117 0 -189.5 -86 t-72.5 -213v-3z" />
<glyph unicode="f" horiz-adv-x="678" d="M77 907v144h142v105q0 151 77.5 222.5t239.5 71.5q41 0 77 -6v-141q-30 4 -54 4q-89 0 -129 -36t-40 -129v-91h207v-144h-206v-907h-172v907h-142z" />
<glyph unicode="g" horiz-adv-x="1165" d="M112 497v87q0 227 115.5 355t304.5 128q103 0 185 -47t121 -117h5v148h166v-1032q0 -98 -36 -176t-98.5 -127t-142 -75t-170.5 -26q-192 0 -300 84t-127 223h176q15 -68 82 -115.5t170 -47.5q126 0 200 69.5t74 192.5v155h-5q-33 -71 -114.5 -118.5t-185.5 -47.5 q-189 0 -304.5 128t-115.5 359zM284 506q0 -164 74.5 -256.5t206.5 -92.5q128 0 200 93t72 256v65q0 160 -73.5 254t-198.5 94q-133 0 -207 -91t-74 -257v-65z" />
<glyph unicode="h" horiz-adv-x="1153" d="M156 0v1437h172v-525h5q36 62 113.5 109t192.5 47q168 0 272.5 -103.5t104.5 -290.5v-674h-172v645q0 130 -69 198.5t-188 68.5q-128 0 -193.5 -77.5t-65.5 -194.5v-640h-172z" />
<glyph unicode="i" horiz-adv-x="499" d="M139 1304q0 46 32 78t78 32t78.5 -32t32.5 -78t-32.5 -77.5t-78.5 -31.5t-78 31.5t-32 77.5zM163 0v1051h172v-1051h-172z" />
<glyph unicode="j" horiz-adv-x="499" d="M-49 -223q27 -5 66 -5q80 0 113 48.5t33 156.5v1074h172v-1076q0 -344 -284 -344q-66 0 -100 9v137zM139 1304q0 46 32 78t78 32t78.5 -32t32.5 -78t-32.5 -77.5t-78.5 -31.5t-78 31.5t-32 77.5z" />
<glyph unicode="k" horiz-adv-x="972" d="M156 0v1437h172v-851h7l419 465h213l-415 -457l441 -594h-211l-357 485l-97 -106v-379h-172z" />
<glyph unicode="l" horiz-adv-x="491" d="M160 0v1437h171v-1437h-171z" />
<glyph unicode="m" horiz-adv-x="1734" d="M153 0v1051h171v-129h9q28 60 98.5 103t167.5 43q236 0 303 -169h8q32 73 116 121t206 48q165 0 259 -95t94 -258v-715h-171v680q0 104 -59 168.5t-168 64.5t-170.5 -68.5t-61.5 -180.5v-664h-171v664q0 120 -60.5 184.5t-168.5 64.5q-100 0 -165 -65.5t-65 -181.5v-666 h-172z" />
<glyph unicode="n" horiz-adv-x="1150" d="M153 0v1051h171v-139h5q36 62 113.5 109t193.5 47q167 0 272 -103.5t105 -290.5v-674h-172v645q0 130 -69.5 198.5t-187.5 68.5q-128 0 -193.5 -77.5t-65.5 -194.5v-640h-172z" />
<glyph unicode="o" horiz-adv-x="1125" d="M111 480v94q0 218 119 356t333 138t332 -138t118 -356v-94q0 -221 -117.5 -359t-332.5 -138t-333.5 138t-118.5 359zM283 486q0 -163 73 -258.5t207 -95.5q133 0 205.5 95t72.5 259v82q0 164 -72.5 258.5t-205.5 94.5q-134 0 -207 -94.5t-73 -258.5v-82z" />
<glyph unicode="p" horiz-adv-x="1159" d="M156 -349v1400h165v-151h5q47 77 127 122t183 45q182 0 297 -132.5t115 -360.5v-97q0 -227 -115.5 -360.5t-303.5 -133.5q-97 0 -173.5 42.5t-122.5 114.5h-5v-489h-172zM325 490q0 -163 77 -260t210 -97q120 0 191.5 93.5t71.5 263.5v78q0 166 -70.5 258.5t-197.5 92.5 q-130 0 -206 -96t-76 -254v-79z" />
<glyph unicode="q" horiz-adv-x="1168" d="M111 489v83q0 225 112.5 360t299.5 135q216 0 319 -164h5v148h165v-1400h-172v499h-5q-36 -72 -119.5 -119.5t-195.5 -47.5q-187 0 -298 136.5t-111 369.5zM284 494q0 -167 73 -265t202 -98q132 0 208 98.5t76 264.5v69q0 161 -76.5 257.5t-209.5 96.5 q-128 0 -200.5 -93.5t-72.5 -260.5v-69z" />
<glyph unicode="r" horiz-adv-x="693" d="M153 0v1051h172v-129h5q29 58 93.5 101.5t165.5 43.5q30 0 65 -5v-157q-24 4 -84 4q-244 0 -244 -258v-651h-173z" />
<glyph unicode="s" horiz-adv-x="992" d="M92 283h168q12 -74 73 -116.5t164 -42.5q115 0 174.5 47t59.5 118q0 29 -8 51.5t-28.5 39.5t-39 28t-56 21.5t-61 15.5t-71.5 15q-65 13 -113 27t-96.5 37.5t-79 53t-49.5 73.5t-19 99q0 80 32 142.5t87 100t123.5 56.5t146.5 19q178 0 276 -89t98 -226h-160 q-2 33 -14 61.5t-36 55t-67.5 42t-102.5 15.5q-97 0 -156 -41.5t-59 -117.5q0 -25 9 -45.5t21 -35t35 -27t40.5 -20t50 -16t50.5 -12t53 -9.5q67 -12 114.5 -24.5t97.5 -35t81 -52t50.5 -75.5t19.5 -106q0 -154 -113.5 -240.5t-302.5 -86.5q-176 0 -284 80t-108 220z" />
<glyph unicode="t" horiz-adv-x="690" d="M77 907v144h142v262h171v-262h208v-144h-208v-615q0 -93 36.5 -125.5t134.5 -32.5q30 0 44 2v-138q-35 -7 -87 -7q-93 0 -152 17.5t-91.5 57.5t-44.5 92.5t-12 135.5v613h-141z" />
<glyph unicode="u" horiz-adv-x="1144" d="M137 348v703h173v-654q0 -138 68.5 -198.5t182.5 -60.5q116 0 186.5 69.5t70.5 192.5v651h173v-1051h-171v138h-7q-30 -68 -107.5 -111.5t-196.5 -43.5q-168 0 -270 94.5t-102 270.5z" />
<glyph unicode="v" horiz-adv-x="938" d="M4 1051h182l274 -844h6l294 844h174l-377 -1051h-185z" />
<glyph unicode="w" horiz-adv-x="1470" d="M41 1051h174l193 -831h8l237 831h164l238 -831h8l193 831h174l-275 -1051h-178l-240 810h-4l-239 -810h-179z" />
<glyph unicode="x" horiz-adv-x="989" d="M27 0l361 526l-352 525h206l257 -399h1l257 399h197l-354 -525l362 -526h-205l-268 397h-1l-266 -397h-195z" />
<glyph unicode="y" horiz-adv-x="959" d="M5 1051h191l284 -860h6l285 860h183q-5 -15 -98.5 -279t-184.5 -520t-92 -257l-27 -73q-60 -163 -143 -227t-219 -64q-54 0 -97 9v140q34 -4 76 -4q90 0 137.5 34.5t69.5 117.5l16 57z" />
<glyph unicode="z" horiz-adv-x="967" d="M100 0v127l564 769v6h-560v149h774v-128l-562 -769v-5h568v-149h-784z" />
<glyph unicode="{" horiz-adv-x="670" d="M39 492v181q99 0 134.5 46.5t35.5 155.5v236q0 174 92.5 250t271.5 76h57v-135h-41q-120 0 -170 -50t-50 -161v-275q0 -204 -170 -221v-23q170 -15 170 -224v-310q0 -111 50 -161t170 -50h41v-136h-57q-178 0 -271 80t-93 255v265q0 109 -35.5 155t-134.5 46z" />
<glyph unicode="|" horiz-adv-x="670" d="M260 -309v1746h150v-1746h-150z" />
<glyph unicode="}" horiz-adv-x="670" d="M39 -173h41q121 0 171 50t50 161v310q0 209 170 224v23q-170 17 -170 221v275q0 111 -50 161t-171 50h-41v135h58q179 0 271.5 -76.5t92.5 -249.5v-236q0 -109 35.5 -155.5t133.5 -46.5v-181q-98 0 -133.5 -46t-35.5 -155v-265q-1 -175 -94 -255t-270 -80h-58v136z" />
<glyph unicode="~" horiz-adv-x="1113" d="M73 536q-1 135 70.5 230.5t205.5 95.5q61 0 113.5 -22.5t88.5 -55t68 -64.5t67 -54.5t72 -22.5q58 0 91 50t37 126h152q1 -87 -28 -159t-93 -119.5t-153 -47.5q-60 0 -112 22.5t-88 54.5t-68.5 64t-68.5 54.5t-73 22.5q-59 0 -92.5 -49.5t-36.5 -125.5h-152z" />
<glyph unicode="&#xa1;" horiz-adv-x="517" d="M143 992q0 47 34 80t81 33q48 0 81.5 -33t33.5 -80t-33.5 -80.5t-81.5 -33.5q-47 0 -81 33.5t-34 80.5zM161 -275l22 958h151l22 -958h-195z" />
<glyph unicode="&#xa2;" d="M148 662v66q0 199 100 330.5t276 152.5v174h119v-174q150 -17 242.5 -109.5t98.5 -209.5h-166q-16 60 -63 106.5t-112 60.5v-739q75 11 122 52.5t60 99.5h167q-25 -129 -113 -209t-236 -94v-189h-119v189q-177 21 -276.5 157t-99.5 336zM318 660q0 -131 55 -219.5 t151 -114.5v730q-98 -23 -152 -110.5t-54 -223.5v-62z" />
<glyph unicode="&#xa3;" d="M120 629v113h193q-44 170 -44 261q0 181 122 286t332 105q131 0 246 -53v-152q-115 54 -237 54q-131 0 -211 -65t-80 -175q0 -95 43 -261h397v-113h-370q18 -92 18 -157q0 -229 -128 -313v-15h621v-144h-893v141q111 24 172.5 111.5t61.5 210.5q0 71 -21 166h-222z" />
<glyph unicode="&#xa4;" d="M91 269l177 178q-66 93 -66 208q0 113 61 202l-172 173l99 99l170 -172q95 68 212 68q113 0 207 -64l167 168l99 -99l-167 -168q63 -95 63 -207q0 -118 -69 -214l173 -172l-98 -98l-175 175q-92 -59 -200 -59q-112 0 -205 63l-178 -179zM326 655q0 -101 72 -173t174 -72 q101 0 174 72t73 173q0 102 -73 174.5t-174 72.5q-102 0 -174 -72.5t-72 -174.5z" />
<glyph unicode="&#xa5;" d="M46 1365h199l321 -606h10l321 606h198l-393 -697h241v-110h-285v-149h285v-110h-285v-299h-175v299h-288v110h288v149h-288v110h243z" />
<glyph unicode="&#xa6;" horiz-adv-x="670" d="M260 -309v674h150v-674h-150zM260 764v673h150v-673h-150z" />
<glyph unicode="&#xa7;" horiz-adv-x="930" d="M71 57h164q12 -76 69.5 -119.5t155.5 -43.5q113 0 168.5 50.5t55.5 127.5q0 35 -15.5 63t-30 43.5t-59 32.5t-63 22t-80.5 20q-7 2 -11 3q-77 19 -131.5 40.5t-103.5 56t-74 86.5t-25 121q0 88 49 148t119 95v8q-163 92 -163 255q0 105 53.5 181t137 112t184.5 36 q162 0 264 -89t102 -223h-158q-4 62 -60 114.5t-154 52.5q-90 0 -145.5 -48.5t-55.5 -127.5q0 -37 15 -65.5t35.5 -46.5t58.5 -33t66.5 -22.5t76.5 -18.5q51 -12 85 -22t78.5 -26.5t73 -38.5t55 -52t39.5 -72t13 -94q0 -82 -43.5 -146t-107.5 -106v-7q66 -42 105.5 -96 t39.5 -140q0 -155 -111 -248t-285 -93q-164 0 -275.5 84t-111.5 226zM256 580q0 -79 56 -120.5t165 -66.5q1 0 48.5 -11t48.5 -11q50 19 84 73.5t34 114.5q0 78 -57 121.5t-168 66.5l-78 17q-47 -13 -90 -66t-43 -118z" />
<glyph unicode="&#xa8;" horiz-adv-x="944" d="M208 1294q0 42 26 69t65 27q40 0 66 -27t26 -69q0 -40 -26 -67t-66 -27q-38 0 -64.5 27t-26.5 67zM552 1294q0 42 26 69t65 27q41 0 67.5 -27t26.5 -69q0 -40 -27 -67t-67 -27q-38 0 -64.5 27t-26.5 67z" />
<glyph unicode="&#xa9;" horiz-adv-x="1639" d="M105 644v103q0 142 54 268t148 218t229 145.5t289 53.5q155 0 290 -54t228.5 -146.5t147.5 -218.5t54 -266v-103q0 -151 -53 -282t-146.5 -224.5t-228.5 -147.5t-292 -54q-209 0 -374 92t-255.5 253.5t-90.5 362.5zM227 640q0 -256 165.5 -420.5t432.5 -164.5 t433.5 164.5t166.5 420.5v107q0 116 -44 220t-122 179.5t-190.5 120t-243.5 44.5q-174 0 -311.5 -75.5t-212 -204t-74.5 -284.5v-107zM506 632v99q0 157 87.5 244.5t237.5 87.5q136 0 215.5 -74t81.5 -172h-125q-4 21 -13 41t-27.5 42t-52.5 35t-78 13q-99 0 -150 -56.5 t-51 -166.5v-94q0 -106 53 -159.5t148 -53.5q150 0 177 113h125q-4 -95 -82 -164.5t-221 -69.5q-151 0 -238 87t-87 248z" />
<glyph unicode="&#xaa;" horiz-adv-x="671" d="M46 902q0 89 61 140t174 51h156v59q0 49 -28 76t-79 27q-49 0 -77.5 -24t-31.5 -64h-151q5 92 69.5 150t193.5 58q119 0 191 -56t72 -165v-440h-151v79h-7q-50 -89 -178 -89q-96 0 -155 53.5t-59 144.5zM206 912q0 -43 31 -67t75 -24q53 0 89 30t36 77v68h-123 q-53 0 -80.5 -22.5t-27.5 -61.5z" />
<glyph unicode="&#xab;" horiz-adv-x="1252" d="M120 557v8l344 385h175l-339 -384v-6l339 -386h-184zM596 557v8l344 385h175l-339 -384v-6l339 -386h-184z" />
<glyph unicode="&#xac;" d="M90 474v141h958v-517h-151v376h-807z" />
<glyph unicode="&#xad;" horiz-adv-x="786" d="M78 483v154h630v-154h-630z" />
<glyph unicode="&#xae;" horiz-adv-x="1006" d="M92 961v57q0 161 118 271.5t293 110.5q174 0 292.5 -111.5t118.5 -270.5v-57q0 -171 -116 -283t-295 -112q-178 0 -294.5 112t-116.5 283zM180 961q0 -133 91 -220.5t232 -87.5t232.5 87.5t91.5 220.5v57q0 125 -92.5 211.5t-231.5 86.5t-231 -86.5t-92 -211.5v-57z M355 790v404h190q55 0 90.5 -34.5t35.5 -86.5q0 -44 -22.5 -76.5t-57.5 -42.5l93 -164h-96l-81 153h-70v-153h-82zM438 1004h64q86 0 86 65q0 62 -75 62h-75v-127z" />
<glyph unicode="&#xaf;" horiz-adv-x="945" d="M199 1242v116h546v-116h-546z" />
<glyph unicode="&#xb0;" horiz-adv-x="537" d="M48 1162q0 92 64.5 156.5t157.5 64.5q91 0 156 -64.5t65 -156.5q0 -91 -65 -156.5t-156 -65.5q-93 0 -157.5 65t-64.5 157zM155 1162q0 -46 34.5 -80.5t80.5 -34.5q47 0 80.5 34.5t33.5 80.5q0 49 -33 82t-81 33q-47 0 -81 -33.5t-34 -81.5z" />
<glyph unicode="&#xb1;" d="M92 657v139h404v275h141v-275h406v-139h-406v-288h-141v288h-404zM95 119v140h951v-140h-951z" />
<glyph unicode="&#xb2;" horiz-adv-x="562" d="M39 1505v9q0 84 61.5 146t176.5 62q107 0 172 -53t65 -134q0 -15 -1.5 -29t-7 -28t-9 -24t-13 -24t-13.5 -21t-17 -21.5t-17 -19t-19 -20t-18 -18.5l-129 -138v-5h255v-128h-476v100l237 242q22 23 33.5 36.5t23.5 37t12 45.5q0 32 -23.5 54.5t-58.5 22.5 q-37 0 -59.5 -23.5t-22.5 -57.5v-11h-152z" />
<glyph unicode="&#xb3;" horiz-adv-x="574" d="M29 1250h149q2 -36 30.5 -58.5t72.5 -22.5q46 0 73 23.5t26 60.5q0 36 -26.5 59t-74.5 23h-70v116h67q40 0 64.5 21.5t24.5 55.5q0 32 -24.5 53t-63.5 21q-40 0 -63.5 -24t-25.5 -56h-150q3 91 68 145.5t179 54.5q103 0 170.5 -48t68.5 -124q1 -63 -36.5 -101.5 t-81.5 -43.5v-8q54 -3 95.5 -43.5t41.5 -110.5q0 -89 -76.5 -142.5t-188.5 -53.5q-119 0 -183.5 58t-65.5 145z" />
<glyph unicode="&#xb4;" horiz-adv-x="945" d="M314 1187l184 273h175l-227 -273h-132z" />
<glyph unicode="&#xb5;" horiz-adv-x="1227" d="M156 -349v1400h173v-657q0 -119 60 -187.5t170 -68.5q120 0 194.5 75t74.5 179v659h173v-792q0 -74 18.5 -99.5t68.5 -25.5q25 0 44 5v-140q-34 -9 -85 -9q-187 0 -204 160l-2 21h-5q-39 -87 -111 -137.5t-169 -50.5q-72 0 -133.5 32.5t-87.5 90.5h-7v-455h-172z" />
<glyph unicode="&#xb6;" horiz-adv-x="1242" d="M100 944q0 98 31 175t77 122t107.5 74t116 39.5t107.5 10.5h189v-1575h-170v735h-20q-51 0 -107 12.5t-116 44t-107 78t-77.5 120.5t-30.5 164zM887 -210v1575h170v-1575h-170z" />
<glyph unicode="&#xb7;" horiz-adv-x="606" d="M186 541q0 49 34.5 83.5t82.5 34.5q49 0 83.5 -34.5t34.5 -83.5q0 -48 -34.5 -82.5t-83.5 -34.5q-48 0 -82.5 34.5t-34.5 82.5z" />
<glyph unicode="&#xb8;" horiz-adv-x="945" d="M317 -367q44 -13 116 -13q49 0 83.5 18t34.5 60q0 24 -11.5 39t-37 20.5t-44 7t-55.5 1.5h-52v78l61 165h120l-54 -146q98 0 155 -41t57 -120q0 -90 -62 -137t-160 -51q-82 -4 -151 15v104z" />
<glyph unicode="&#xb9;" horiz-adv-x="420" d="M36 1465v144q116 80 156 101h159v-651h-161v502h-8q-8 -3 -70.5 -44.5t-75.5 -51.5z" />
<glyph unicode="&#xba;" horiz-adv-x="703" d="M54 1017v49q0 138 79 224t220 86q140 0 218 -86t78 -224v-48q0 -145 -77.5 -230t-218.5 -85q-142 0 -220.5 85t-78.5 229zM216 1015q0 -83 34 -135t102 -52q67 0 101 52.5t34 134.5v50q0 85 -34 136.5t-101 51.5q-68 0 -102 -51.5t-34 -136.5v-50z" />
<glyph unicode="&#xbb;" horiz-adv-x="1252" d="M129 174l339 386v6l-339 384h175l344 -385v-8l-335 -383h-184zM605 174l339 386v6l-339 384h175l344 -385v-8l-335 -383h-184z" />
<glyph unicode="&#xbc;" horiz-adv-x="1394" d="M36 1120v144q116 80 156 101h159v-651h-161v502h-8q-8 -3 -70.5 -44.5t-75.5 -51.5zM94 0l525 687l516 678h166l-523 -685l-518 -680h-166zM830 109v127q85 168 238 415h228v-416h76v-126h-76v-109h-152v109h-314zM971 235h173v299h-6q-112 -187 -167 -297v-2z" />
<glyph unicode="&#xbd;" horiz-adv-x="1423" d="M36 1120v144q116 80 156 101h159v-651h-161v502h-8q-8 -3 -70.5 -44.5t-75.5 -51.5zM76 0l525 687l516 678h166l-523 -685l-518 -680h-166zM900 446v9q0 84 61.5 146t176.5 62q107 0 172 -53t65 -134q0 -15 -1.5 -29t-7 -28t-9 -24t-13 -24t-13.5 -21t-17 -21.5t-17 -19 t-19 -20t-18 -18.5l-129 -138v-5h255v-128h-476v100l237 242q22 23 33.5 36.5t23.5 37t12 45.5q0 32 -23.5 54.5t-58.5 22.5q-37 0 -59.5 -23.5t-22.5 -57.5v-11h-152z" />
<glyph unicode="&#xbe;" horiz-adv-x="1407" d="M29 905h149q2 -36 30.5 -58.5t72.5 -22.5q46 0 73 23.5t26 60.5q0 36 -26.5 59t-74.5 23h-70v116h67q40 0 64.5 21.5t24.5 55.5q0 32 -24.5 53t-63.5 21q-40 0 -63.5 -24t-25.5 -56h-150q3 91 68 145.5t179 54.5q103 0 170.5 -48t68.5 -124q1 -63 -36.5 -101.5 t-81.5 -43.5v-8q54 -3 95.5 -43.5t41.5 -110.5q0 -89 -76.5 -142.5t-188.5 -53.5q-119 0 -183.5 58t-65.5 145zM107 0l525 687l516 678h166l-523 -685l-518 -680h-166zM843 109v127q85 168 238 415h228v-416h76v-126h-76v-109h-152v109h-314zM984 235h173v299h-6 q-112 -187 -167 -297v-2z" />
<glyph unicode="&#xbf;" horiz-adv-x="946" d="M67 30q0 48 12 90.5t28 72.5t45.5 63t50.5 51.5t57 47.5q97 77 127 119t30 123v61h168v-87q1 -41 -10 -79t-27 -66t-44.5 -59t-51 -51t-58.5 -48q-44 -35 -64.5 -54t-44.5 -47.5t-33 -58.5t-9 -68q0 -103 66.5 -153.5t165.5 -50.5q117 0 179 67.5t62 175.5h165 q0 -86 -25 -154.5t-65.5 -112t-96 -72t-111.5 -40t-116 -11.5q-78 0 -148.5 21t-127.5 62t-90.5 107.5t-33.5 150.5zM382 992q0 47 33.5 80t81.5 33q47 0 81 -33t34 -80t-34 -80.5t-81 -33.5q-48 0 -81.5 33.5t-33.5 80.5z" />
<glyph unicode="&#xc0;" horiz-adv-x="1200" d="M25 0l486 1365h178l486 -1365h-184l-138 410h-508l-138 -410h-182zM317 1786h174l185 -273h-132zM392 551h414l-204 608h-5z" />
<glyph unicode="&#xc1;" horiz-adv-x="1200" d="M25 0l486 1365h178l486 -1365h-184l-138 410h-508l-138 -410h-182zM392 551h414l-204 608h-5zM524 1513l185 273h174l-227 -273h-132z" />
<glyph unicode="&#xc2;" horiz-adv-x="1200" d="M25 0l486 1365h178l486 -1365h-184l-138 410h-508l-138 -410h-182zM338 1513l211 296h102l211 -296h-142l-119 180h-2l-119 -180h-142zM392 551h414l-204 608h-5z" />
<glyph unicode="&#xc3;" horiz-adv-x="1200" d="M25 0l486 1365h178l486 -1365h-184l-138 410h-508l-138 -410h-182zM329 1500q0 81 41.5 138t119.5 57q40 0 75 -18t55 -39t43 -39t42 -18q29 0 44 29.5t19 67.5h105q0 -75 -44 -135.5t-123 -60.5q-40 0 -74.5 18t-54 39t-43 39t-43.5 18q-54 0 -57 -96h-105zM392 551h414 l-204 608h-5z" />
<glyph unicode="&#xc4;" horiz-adv-x="1200" d="M25 0l486 1365h178l486 -1365h-184l-138 410h-508l-138 -410h-182zM359 1585q0 39 25 65t62 26q38 0 63 -25.5t25 -65.5q0 -38 -25.5 -64t-62.5 -26t-62 26t-25 64zM392 551h414l-204 608h-5zM666 1585q0 39 25 65t62 26q38 0 63 -25.5t25 -65.5q0 -38 -25 -64t-63 -26 q-37 0 -62 26t-25 64z" />
<glyph unicode="&#xc5;" horiz-adv-x="1200" d="M25 0l486 1365h178l486 -1365h-184l-138 410h-508l-138 -410h-182zM392 551h414l-204 608h-5zM410 1680q0 78 55.5 131.5t134.5 53.5q80 0 135 -53.5t55 -131.5q0 -79 -55 -132.5t-135 -53.5q-79 0 -134.5 53.5t-55.5 132.5zM498 1680q0 -44 29.5 -74t72.5 -30t72 30 t29 74q0 43 -29 72.5t-72 29.5t-72.5 -29.5t-29.5 -72.5z" />
<glyph unicode="&#xc6;" horiz-adv-x="1850" d="M14 0l742 1365h979v-156h-636v-436h600v-152h-600v-465h636v-156h-810v430h-484l-230 -430h-197zM516 574h409v635h-72z" />
<glyph unicode="&#xc7;" horiz-adv-x="1248" d="M110 589v179q0 295 141.5 460.5t394.5 165.5q218 0 360 -130t142 -331v-3h-172q-4 137 -95 222t-234 85q-175 0 -269 -122t-94 -347v-179q0 -221 94 -341t269 -120q144 0 234.5 78.5t94.5 205.5h172v-4q0 -178 -129.5 -300.5t-330.5 -134.5l-40 -110q101 0 156.5 -42 t55.5 -119q0 -89 -63.5 -138.5t-177.5 -49.5q-80 0 -132 15v104q52 -13 116 -13q54 0 86 20t32 55q0 39 -33 55t-115 16h-52v78l49 131q-220 25 -340 186t-120 428z" />
<glyph unicode="&#xc8;" horiz-adv-x="1098" d="M164 0v1365h819v-156h-645v-436h609v-152h-609v-465h645v-156h-819zM286 1786h174l185 -273h-132z" />
<glyph unicode="&#xc9;" horiz-adv-x="1098" d="M164 0v1365h819v-156h-645v-436h609v-152h-609v-465h645v-156h-819zM493 1513l185 273h174l-227 -273h-132z" />
<glyph unicode="&#xca;" horiz-adv-x="1098" d="M164 0v1365h819v-156h-645v-436h609v-152h-609v-465h645v-156h-819zM307 1513l211 296h102l211 -296h-142l-119 180h-2l-119 -180h-142z" />
<glyph unicode="&#xcb;" horiz-adv-x="1098" d="M164 0v1365h819v-156h-645v-436h609v-152h-609v-465h645v-156h-819zM328 1585q0 39 25 65t62 26q38 0 63 -25.5t25 -65.5q0 -38 -25.5 -64t-62.5 -26t-62 26t-25 64zM635 1585q0 39 25 65t62 26q38 0 63 -25.5t25 -65.5q0 -38 -25 -64t-63 -26q-37 0 -62 26t-25 64z" />
<glyph unicode="&#xcc;" horiz-adv-x="502" d="M-32 1786h174l185 -273h-132zM164 0v1365h175v-1365h-175z" />
<glyph unicode="&#xcd;" horiz-adv-x="502" d="M164 0v1365h175v-1365h-175zM175 1513l185 273h174l-227 -273h-132z" />
<glyph unicode="&#xce;" horiz-adv-x="502" d="M-11 1513l211 296h102l211 -296h-142l-119 180h-2l-119 -180h-142zM164 0v1365h175v-1365h-175z" />
<glyph unicode="&#xcf;" horiz-adv-x="502" d="M10 1585q0 39 25 65t62 26q38 0 63 -25.5t25 -65.5q0 -38 -25.5 -64t-62.5 -26t-62 26t-25 64zM164 0v1365h175v-1365h-175zM317 1585q0 39 25 65t62 26q38 0 63 -25.5t25 -65.5q0 -38 -25 -64t-63 -26q-37 0 -62 26t-25 64z" />
<glyph unicode="&#xd0;" horiz-adv-x="1369" d="M81 622v153h89v590h438q297 0 448.5 -172.5t151.5 -509.5q0 -336 -151.5 -509.5t-448.5 -173.5h-438v622h-89zM345 156h253q429 0 429 527t-429 527h-253v-435h378v-153h-378v-466z" />
<glyph unicode="&#xd1;" horiz-adv-x="1361" d="M164 0v1365h168l694 -1066h4v1066h167v-1365h-168l-694 1067h-4v-1067h-167zM409 1500q0 81 41.5 138t119.5 57q40 0 75 -18t55 -39t43 -39t42 -18q29 0 44 29.5t19 67.5h105q0 -75 -44 -135.5t-123 -60.5q-40 0 -74.5 18t-54 39t-43 39t-43.5 18q-54 0 -57 -96h-105z " />
<glyph unicode="&#xd2;" horiz-adv-x="1314" d="M110 575v201q0 288 149 453t400 165q250 0 397.5 -164.5t147.5 -453.5v-201q0 -286 -148.5 -445t-400.5 -159q-251 0 -398 159t-147 445zM285 575q0 -220 103 -333.5t269 -113.5q167 0 269.5 113.5t102.5 333.5v202q0 221 -103.5 340.5t-268.5 119.5q-164 0 -268 -119.5 t-104 -340.5v-202zM372 1786h174l185 -273h-132z" />
<glyph unicode="&#xd3;" horiz-adv-x="1314" d="M110 575v201q0 288 149 453t400 165q250 0 397.5 -164.5t147.5 -453.5v-201q0 -286 -148.5 -445t-400.5 -159q-251 0 -398 159t-147 445zM285 575q0 -220 103 -333.5t269 -113.5q167 0 269.5 113.5t102.5 333.5v202q0 221 -103.5 340.5t-268.5 119.5q-164 0 -268 -119.5 t-104 -340.5v-202zM579 1513l185 273h174l-227 -273h-132z" />
<glyph unicode="&#xd4;" horiz-adv-x="1314" d="M110 575v201q0 288 149 453t400 165q250 0 397.5 -164.5t147.5 -453.5v-201q0 -286 -148.5 -445t-400.5 -159q-251 0 -398 159t-147 445zM285 575q0 -220 103 -333.5t269 -113.5q167 0 269.5 113.5t102.5 333.5v202q0 221 -103.5 340.5t-268.5 119.5q-164 0 -268 -119.5 t-104 -340.5v-202zM393 1513l211 296h102l211 -296h-142l-119 180h-2l-119 -180h-142z" />
<glyph unicode="&#xd5;" horiz-adv-x="1314" d="M110 575v201q0 288 149 453t400 165q250 0 397.5 -164.5t147.5 -453.5v-201q0 -286 -148.5 -445t-400.5 -159q-251 0 -398 159t-147 445zM285 575q0 -220 103 -333.5t269 -113.5q167 0 269.5 113.5t102.5 333.5v202q0 221 -103.5 340.5t-268.5 119.5q-164 0 -268 -119.5 t-104 -340.5v-202zM384 1500q0 81 41.5 138t119.5 57q40 0 75 -18t55 -39t43 -39t42 -18q29 0 44 29.5t19 67.5h105q0 -75 -44 -135.5t-123 -60.5q-40 0 -74.5 18t-54 39t-43 39t-43.5 18q-54 0 -57 -96h-105z" />
<glyph unicode="&#xd6;" horiz-adv-x="1314" d="M110 575v201q0 288 149 453t400 165q250 0 397.5 -164.5t147.5 -453.5v-201q0 -286 -148.5 -445t-400.5 -159q-251 0 -398 159t-147 445zM285 575q0 -220 103 -333.5t269 -113.5q167 0 269.5 113.5t102.5 333.5v202q0 221 -103.5 340.5t-268.5 119.5q-164 0 -268 -119.5 t-104 -340.5v-202zM414 1585q0 39 25 65t62 26q38 0 63 -25.5t25 -65.5q0 -38 -25.5 -64t-62.5 -26t-62 26t-25 64zM721 1585q0 39 25 65t62 26q38 0 63 -25.5t25 -65.5q0 -38 -25 -64t-63 -26q-37 0 -62 26t-25 64z" />
<glyph unicode="&#xd7;" d="M155 178l312 312l-312 314l101 100l313 -313l313 313l100 -100l-312 -314l312 -312l-100 -102l-313 313l-314 -313z" />
<glyph unicode="&#xd8;" horiz-adv-x="1312" d="M74 69l119 147q-83 146 -83 359v201q0 288 148 453t399 165q229 0 373 -139l98 121l101 -73l-120 -149q93 -151 93 -378v-201q0 -286 -148.5 -445t-400.5 -159q-239 0 -380 143l-101 -125zM283 575q0 -116 32 -207l607 753q-102 117 -267 117t-268.5 -119.5 t-103.5 -341.5v-202zM380 247q99 -120 275 -120q167 0 270 113.5t103 334.5v202q0 129 -39 227z" />
<glyph unicode="&#xd9;" horiz-adv-x="1331" d="M148 454v911h173v-888q0 -160 93.5 -254.5t250.5 -94.5t251 95t94 254v888h173v-911q0 -215 -139 -349t-379 -134q-239 0 -378 134t-139 349zM382 1786h174l185 -273h-132z" />
<glyph unicode="&#xda;" horiz-adv-x="1331" d="M148 454v911h173v-888q0 -160 93.5 -254.5t250.5 -94.5t251 95t94 254v888h173v-911q0 -215 -139 -349t-379 -134q-239 0 -378 134t-139 349zM589 1513l185 273h174l-227 -273h-132z" />
<glyph unicode="&#xdb;" horiz-adv-x="1331" d="M148 454v911h173v-888q0 -160 93.5 -254.5t250.5 -94.5t251 95t94 254v888h173v-911q0 -215 -139 -349t-379 -134q-239 0 -378 134t-139 349zM403 1513l211 296h102l211 -296h-142l-119 180h-2l-119 -180h-142z" />
<glyph unicode="&#xdc;" horiz-adv-x="1331" d="M148 454v911h173v-888q0 -160 93.5 -254.5t250.5 -94.5t251 95t94 254v888h173v-911q0 -215 -139 -349t-379 -134q-239 0 -378 134t-139 349zM424 1585q0 39 25 65t62 26q38 0 63 -25.5t25 -65.5q0 -38 -25.5 -64t-62.5 -26t-62 26t-25 64zM731 1585q0 39 25 65t62 26 q38 0 63 -25.5t25 -65.5q0 -38 -25 -64t-63 -26q-37 0 -62 26t-25 64z" />
<glyph unicode="&#xdd;" horiz-adv-x="1087" d="M0 1365h200l341 -606h6l342 606h198l-457 -776v-589h-173v588zM467 1513l185 273h174l-227 -273h-132z" />
<glyph unicode="&#xde;" horiz-adv-x="1145" d="M164 0v1365h173v-263h305q200 0 317.5 -100t117.5 -286q0 -188 -117.5 -287.5t-317.5 -99.5h-304v-329h-174zM338 482h250q59 0 99.5 4t83.5 17.5t68 38.5t41.5 68.5t16.5 105.5q0 232 -267 232h-292v-466z" />
<glyph unicode="&#xdf;" horiz-adv-x="1225" d="M163 0v1044q0 183 114 288.5t308 105.5q189 0 305 -97t116 -254q0 -76 -27 -139.5t-68.5 -101.5t-84.5 -60t-81 -25v-13q72 0 140 -23t124 -66.5t90.5 -114.5t34.5 -159q0 -98 -40.5 -176.5t-108 -126.5t-152 -73.5t-176.5 -25.5q-86 0 -147 19v143q50 -19 143 -19 q45 0 86.5 8t82.5 27t71 47.5t48.5 73.5t18.5 102q0 123 -93.5 195t-252.5 72h-77v171h47q93 0 171.5 70.5t78.5 179.5q0 98 -66 159t-179 61q-130 0 -192 -70.5t-62 -198.5v-1023h-172z" />
<glyph unicode="&#xe0;" horiz-adv-x="1054" d="M93 302q0 140 95.5 220t273.5 81h277v107q0 103 -57.5 158.5t-164.5 55.5q-99 0 -156.5 -47t-65.5 -127h-162q9 144 107.5 231t282.5 87q173 0 280 -90.5t107 -252.5v-725h-165v131h-5q-92 -148 -304 -148q-153 0 -248 87.5t-95 231.5zM248 1460h175l184 -273h-132z M269 308q0 -88 62 -135t151 -47q111 0 184 62.5t73 160.5v122h-264q-104 0 -155 -44t-51 -119z" />
<glyph unicode="&#xe1;" horiz-adv-x="1054" d="M93 302q0 140 95.5 220t273.5 81h277v107q0 103 -57.5 158.5t-164.5 55.5q-99 0 -156.5 -47t-65.5 -127h-162q9 144 107.5 231t282.5 87q173 0 280 -90.5t107 -252.5v-725h-165v131h-5q-92 -148 -304 -148q-153 0 -248 87.5t-95 231.5zM269 308q0 -88 62 -135t151 -47 q111 0 184 62.5t73 160.5v122h-264q-104 0 -155 -44t-51 -119zM451 1187l184 273h175l-227 -273h-132z" />
<glyph unicode="&#xe2;" horiz-adv-x="1054" d="M93 302q0 140 95.5 220t273.5 81h277v107q0 103 -57.5 158.5t-164.5 55.5q-99 0 -156.5 -47t-65.5 -127h-162q9 144 107.5 231t282.5 87q173 0 280 -90.5t107 -252.5v-725h-165v131h-5q-92 -148 -304 -148q-153 0 -248 87.5t-95 231.5zM267 1187l211 301h102l211 -301 h-142l-119 184h-2l-119 -184h-142zM269 308q0 -88 62 -135t151 -47q111 0 184 62.5t73 160.5v122h-264q-104 0 -155 -44t-51 -119z" />
<glyph unicode="&#xe3;" horiz-adv-x="1054" d="M93 302q0 140 95.5 220t273.5 81h277v107q0 103 -57.5 158.5t-164.5 55.5q-99 0 -156.5 -47t-65.5 -127h-162q9 144 107.5 231t282.5 87q173 0 280 -90.5t107 -252.5v-725h-165v131h-5q-92 -148 -304 -148q-153 0 -248 87.5t-95 231.5zM211 1204q0 92 48 157.5t134 65.5 q44 0 82.5 -20.5t60.5 -44.5t48 -44.5t49 -20.5q34 0 51.5 34.5t21.5 77.5h118q0 -85 -50.5 -154.5t-139.5 -69.5q-44 0 -82 20.5t-60 44.5t-48 44.5t-50 20.5q-20 0 -33.5 -11.5t-20 -31t-9.5 -35.5t-3 -33h-117zM269 308q0 -88 62 -135t151 -47q111 0 184 62.5t73 160.5 v122h-264q-104 0 -155 -44t-51 -119z" />
<glyph unicode="&#xe4;" horiz-adv-x="1054" d="M93 302q0 140 95.5 220t273.5 81h277v107q0 103 -57.5 158.5t-164.5 55.5q-99 0 -156.5 -47t-65.5 -127h-162q9 144 107.5 231t282.5 87q173 0 280 -90.5t107 -252.5v-725h-165v131h-5q-92 -148 -304 -148q-153 0 -248 87.5t-95 231.5zM269 308q0 -88 62 -135t151 -47 q111 0 184 62.5t73 160.5v122h-264q-104 0 -155 -44t-51 -119zM277 1294q0 42 26 69t65 27q40 0 66 -27t26 -69q0 -40 -26 -67t-66 -27q-38 0 -64.5 27t-26.5 67zM621 1294q0 42 26 69t65 27q41 0 67.5 -27t26.5 -69q0 -40 -27 -67t-67 -27q-38 0 -64.5 27t-26.5 67z" />
<glyph unicode="&#xe5;" horiz-adv-x="1054" d="M93 302q0 140 95.5 220t273.5 81h277v107q0 103 -57.5 158.5t-164.5 55.5q-99 0 -156.5 -47t-65.5 -127h-162q9 144 107.5 231t282.5 87q173 0 280 -90.5t107 -252.5v-725h-165v131h-5q-92 -148 -304 -148q-153 0 -248 87.5t-95 231.5zM269 308q0 -88 62 -135t151 -47 q111 0 184 62.5t73 160.5v122h-264q-104 0 -155 -44t-51 -119zM339 1368q0 78 55.5 131.5t134.5 53.5q80 0 135 -53.5t55 -131.5q0 -79 -55 -132.5t-135 -53.5q-79 0 -134.5 53.5t-55.5 132.5zM427 1368q0 -44 29.5 -74t72.5 -30t72 30t29 74q0 43 -29 72.5t-72 29.5 t-72.5 -29.5t-29.5 -72.5z" />
<glyph unicode="&#xe6;" horiz-adv-x="1715" d="M93 302q0 146 96 232t273 86h277v90q0 103 -57.5 158.5t-164.5 55.5q-99 0 -156.5 -47t-65.5 -127h-162q9 144 107.5 231t282.5 87q108 0 193 -38t134 -108h1q112 146 325 146q212 0 322.5 -135.5t110.5 -361.5v-88h-694v-28q0 -64 16 -120.5t47.5 -102.5t85.5 -73 t124 -27q102 0 157.5 44t71.5 110h177q-9 -54 -35 -104t-72 -96.5t-123 -74.5t-175 -28q-258 0 -371 201h-1q-55 -91 -142 -146t-228 -55q-161 0 -257.5 87t-96.5 232zM269 308q0 -88 62 -135t151 -47q111 0 184 62.5t73 160.5v133h-256q-214 0 -214 -174zM915 622h522v3 q0 132 -70 214.5t-191 82.5q-120 0 -190.5 -83t-70.5 -214v-3z" />
<glyph unicode="&#xe7;" horiz-adv-x="1042" d="M111 478v104q0 216 117 351t319 135q116 0 208 -47.5t139.5 -120t52.5 -154.5h-169q-18 71 -78 120.5t-142 49.5q-130 0 -202.5 -90.5t-72.5 -250.5v-98q0 -155 75 -248.5t201 -93.5q94 0 153 43.5t74 110.5h169q-25 -127 -112.5 -207.5t-233.5 -95.5l-46 -104 q97 0 150 -40.5t53 -120.5q0 -90 -62 -136.5t-161 -51.5q-87 -3 -150 15v105q47 -14 116 -14q49 0 83.5 18.5t34.5 60.5q0 17 -4.5 29t-16 19t-21.5 11.5t-29.5 6t-31.5 2t-36 0.5h-52v78l53 122q-178 20 -278 156t-100 336z" />
<glyph unicode="&#xe8;" horiz-adv-x="1084" d="M111 475v118q0 212 115 343.5t318 131.5t318 -133.5t115 -353.5v-98h-694v-19q0 -152 73 -244.5t200 -92.5q90 0 150 42t86 117h171q-31 -137 -137 -220t-274 -83q-204 0 -322.5 133.5t-118.5 358.5zM263 1460h175l184 -273h-132zM283 622h522v3q0 128 -72 213.5 t-188 85.5q-117 0 -189.5 -86t-72.5 -213v-3z" />
<glyph unicode="&#xe9;" horiz-adv-x="1084" d="M111 475v118q0 212 115 343.5t318 131.5t318 -133.5t115 -353.5v-98h-694v-19q0 -152 73 -244.5t200 -92.5q90 0 150 42t86 117h171q-31 -137 -137 -220t-274 -83q-204 0 -322.5 133.5t-118.5 358.5zM283 622h522v3q0 128 -72 213.5t-188 85.5q-117 0 -189.5 -86 t-72.5 -213v-3zM466 1187l184 273h175l-227 -273h-132z" />
<glyph unicode="&#xea;" horiz-adv-x="1084" d="M111 475v118q0 212 115 343.5t318 131.5t318 -133.5t115 -353.5v-98h-694v-19q0 -152 73 -244.5t200 -92.5q90 0 150 42t86 117h171q-31 -137 -137 -220t-274 -83q-204 0 -322.5 133.5t-118.5 358.5zM282 1187l211 301h102l211 -301h-142l-119 184h-2l-119 -184h-142z M283 622h522v3q0 128 -72 213.5t-188 85.5q-117 0 -189.5 -86t-72.5 -213v-3z" />
<glyph unicode="&#xeb;" horiz-adv-x="1084" d="M111 475v118q0 212 115 343.5t318 131.5t318 -133.5t115 -353.5v-98h-694v-19q0 -152 73 -244.5t200 -92.5q90 0 150 42t86 117h171q-31 -137 -137 -220t-274 -83q-204 0 -322.5 133.5t-118.5 358.5zM283 622h522v3q0 128 -72 213.5t-188 85.5q-117 0 -189.5 -86 t-72.5 -213v-3zM292 1294q0 42 26 69t65 27q40 0 66 -27t26 -69q0 -40 -26 -67t-66 -27q-38 0 -64.5 27t-26.5 67zM636 1294q0 42 26 69t65 27q41 0 67.5 -27t26.5 -69q0 -40 -27 -67t-67 -27q-38 0 -64.5 27t-26.5 67z" />
<glyph unicode="&#xec;" horiz-adv-x="499" d="M-33 1460h175l184 -273h-132zM163 0v1051h172v-1051h-172z" />
<glyph unicode="&#xed;" horiz-adv-x="499" d="M163 0v1051h172v-1051h-172zM170 1187l184 273h175l-227 -273h-132z" />
<glyph unicode="&#xee;" horiz-adv-x="499" d="M-14 1187l211 301h102l211 -301h-142l-119 184h-2l-119 -184h-142zM163 0v1051h172v-1051h-172z" />
<glyph unicode="&#xef;" horiz-adv-x="499" d="M-4 1294q0 42 26 69t65 27q40 0 66 -27t26 -69q0 -40 -26 -67t-66 -27q-38 0 -64.5 27t-26.5 67zM163 0v1051h172v-1051h-172zM340 1294q0 42 26 69t65 27q41 0 67.5 -27t26.5 -69q0 -40 -27 -67t-67 -27q-38 0 -64.5 27t-26.5 67z" />
<glyph unicode="&#xf0;" horiz-adv-x="1106" d="M111 480v36q0 215 116.5 354.5t311.5 139.5q181 0 272 -130h9q-5 17 -22 65q-55 155 -137 261l-251 -89l-42 99l221 75q-125 142 -225 226h216q87 -72 164 -170l277 97l37 -92l-244 -90q99 -152 149 -333t50 -369v-82q0 -144 -48 -253.5t-150.5 -175.5t-249.5 -66 q-217 0 -335.5 137.5t-118.5 359.5zM283 486q0 -165 73.5 -259t206.5 -94t206 94t73 259v25q0 164 -73 258t-206 94t-206.5 -94t-73.5 -258v-25z" />
<glyph unicode="&#xf1;" horiz-adv-x="1150" d="M153 0v1051h171v-139h5q36 62 113.5 109t193.5 47q167 0 272 -103.5t105 -290.5v-674h-172v645q0 130 -69.5 198.5t-187.5 68.5q-128 0 -193.5 -77.5t-65.5 -194.5v-640h-172zM260 1204q0 92 48 157.5t134 65.5q44 0 82.5 -20.5t60.5 -44.5t48 -44.5t49 -20.5 q34 0 51.5 34.5t21.5 77.5h118q0 -85 -50.5 -154.5t-139.5 -69.5q-44 0 -82 20.5t-60 44.5t-48 44.5t-50 20.5q-20 0 -33.5 -11.5t-20 -31t-9.5 -35.5t-3 -33h-117z" />
<glyph unicode="&#xf2;" horiz-adv-x="1125" d="M111 480v94q0 218 119 356t333 138t332 -138t118 -356v-94q0 -221 -117.5 -359t-332.5 -138t-333.5 138t-118.5 359zM283 486q0 -163 73 -258.5t207 -95.5q133 0 205.5 95t72.5 259v82q0 164 -72.5 258.5t-205.5 94.5q-134 0 -207 -94.5t-73 -258.5v-82zM283 1460h175 l184 -273h-132z" />
<glyph unicode="&#xf3;" horiz-adv-x="1125" d="M111 480v94q0 218 119 356t333 138t332 -138t118 -356v-94q0 -221 -117.5 -359t-332.5 -138t-333.5 138t-118.5 359zM283 486q0 -163 73 -258.5t207 -95.5q133 0 205.5 95t72.5 259v82q0 164 -72.5 258.5t-205.5 94.5q-134 0 -207 -94.5t-73 -258.5v-82zM486 1187 l184 273h175l-227 -273h-132z" />
<glyph unicode="&#xf4;" horiz-adv-x="1125" d="M111 480v94q0 218 119 356t333 138t332 -138t118 -356v-94q0 -221 -117.5 -359t-332.5 -138t-333.5 138t-118.5 359zM283 486q0 -163 73 -258.5t207 -95.5q133 0 205.5 95t72.5 259v82q0 164 -72.5 258.5t-205.5 94.5q-134 0 -207 -94.5t-73 -258.5v-82zM302 1187 l211 301h102l211 -301h-142l-119 184h-2l-119 -184h-142z" />
<glyph unicode="&#xf5;" horiz-adv-x="1125" d="M111 480v94q0 218 119 356t333 138t332 -138t118 -356v-94q0 -221 -117.5 -359t-332.5 -138t-333.5 138t-118.5 359zM246 1204q0 92 48 157.5t134 65.5q44 0 82.5 -20.5t60.5 -44.5t48 -44.5t49 -20.5q34 0 51.5 34.5t21.5 77.5h118q0 -85 -50.5 -154.5t-139.5 -69.5 q-44 0 -82 20.5t-60 44.5t-48 44.5t-50 20.5q-20 0 -33.5 -11.5t-20 -31t-9.5 -35.5t-3 -33h-117zM283 486q0 -163 73 -258.5t207 -95.5q133 0 205.5 95t72.5 259v82q0 164 -72.5 258.5t-205.5 94.5q-134 0 -207 -94.5t-73 -258.5v-82z" />
<glyph unicode="&#xf6;" horiz-adv-x="1125" d="M111 480v94q0 218 119 356t333 138t332 -138t118 -356v-94q0 -221 -117.5 -359t-332.5 -138t-333.5 138t-118.5 359zM283 486q0 -163 73 -258.5t207 -95.5q133 0 205.5 95t72.5 259v82q0 164 -72.5 258.5t-205.5 94.5q-134 0 -207 -94.5t-73 -258.5v-82zM312 1294 q0 42 26 69t65 27q40 0 66 -27t26 -69q0 -40 -26 -67t-66 -27q-38 0 -64.5 27t-26.5 67zM656 1294q0 42 26 69t65 27q41 0 67.5 -27t26.5 -69q0 -40 -27 -67t-67 -27q-38 0 -64.5 27t-26.5 67z" />
<glyph unicode="&#xf7;" d="M94 480v137h951v-137h-951zM455 179q0 50 32.5 82t79.5 32q51 0 83.5 -31.5t32.5 -82.5q0 -48 -32.5 -79.5t-83.5 -31.5q-46 0 -79 32t-33 79zM455 923q0 49 32.5 81t79.5 32q51 0 83.5 -31.5t32.5 -81.5q0 -48 -32.5 -79.5t-83.5 -31.5q-46 0 -79 32t-33 79z" />
<glyph unicode="&#xf8;" horiz-adv-x="1125" d="M94 -9l114 158q-97 130 -97 331v94q0 218 119 356t333 138q151 0 256 -71l95 131l94 -71l-101 -141q106 -133 106 -342v-94q0 -221 -117.5 -359t-332.5 -138q-160 0 -270 80l-103 -142zM283 486q0 -109 35 -190l409 572q-66 54 -164 54q-134 0 -207 -95t-73 -259v-82z M387 194q69 -63 176 -63q134 0 206.5 95.5t72.5 259.5v82q0 122 -42 205z" />
<glyph unicode="&#xf9;" horiz-adv-x="1144" d="M137 348v703h173v-654q0 -138 68.5 -198.5t182.5 -60.5q116 0 186.5 69.5t70.5 192.5v651h173v-1051h-171v138h-7q-30 -68 -107.5 -111.5t-196.5 -43.5q-168 0 -270 94.5t-102 270.5zM286 1460h175l184 -273h-132z" />
<glyph unicode="&#xfa;" horiz-adv-x="1144" d="M137 348v703h173v-654q0 -138 68.5 -198.5t182.5 -60.5q116 0 186.5 69.5t70.5 192.5v651h173v-1051h-171v138h-7q-30 -68 -107.5 -111.5t-196.5 -43.5q-168 0 -270 94.5t-102 270.5zM489 1187l184 273h175l-227 -273h-132z" />
<glyph unicode="&#xfb;" horiz-adv-x="1144" d="M137 348v703h173v-654q0 -138 68.5 -198.5t182.5 -60.5q116 0 186.5 69.5t70.5 192.5v651h173v-1051h-171v138h-7q-30 -68 -107.5 -111.5t-196.5 -43.5q-168 0 -270 94.5t-102 270.5zM305 1187l211 301h102l211 -301h-142l-119 184h-2l-119 -184h-142z" />
<glyph unicode="&#xfc;" horiz-adv-x="1144" d="M137 348v703h173v-654q0 -138 68.5 -198.5t182.5 -60.5q116 0 186.5 69.5t70.5 192.5v651h173v-1051h-171v138h-7q-30 -68 -107.5 -111.5t-196.5 -43.5q-168 0 -270 94.5t-102 270.5zM315 1294q0 42 26 69t65 27q40 0 66 -27t26 -69q0 -40 -26 -67t-66 -27 q-38 0 -64.5 27t-26.5 67zM659 1294q0 42 26 69t65 27q41 0 67.5 -27t26.5 -69q0 -40 -27 -67t-67 -27q-38 0 -64.5 27t-26.5 67z" />
<glyph unicode="&#xfd;" horiz-adv-x="959" d="M5 1051h191l284 -860h6l285 860h183q-5 -15 -98.5 -279t-184.5 -520t-92 -257l-27 -73q-60 -163 -143 -227t-219 -64q-54 0 -97 9v140q34 -4 76 -4q90 0 137.5 34.5t69.5 117.5l16 57zM407 1187l184 273h175l-227 -273h-132z" />
<glyph unicode="&#xfe;" horiz-adv-x="1159" d="M156 -349v1786h172v-531h5q41 74 120 117.5t183 43.5q182 0 297 -132.5t115 -360.5v-97q0 -227 -115.5 -360.5t-303.5 -133.5q-97 0 -173.5 42.5t-122.5 114.5h-5v-489h-172zM325 490q0 -163 77 -260t210 -97q120 0 191.5 93.5t71.5 263.5v78q0 166 -70.5 258.5 t-197.5 92.5q-130 0 -206 -96t-76 -254v-79z" />
<glyph unicode="&#xff;" horiz-adv-x="959" d="M5 1051h191l284 -860h6l285 860h183q-5 -15 -98.5 -279t-184.5 -520t-92 -257l-27 -73q-60 -163 -143 -227t-219 -64q-54 0 -97 9v140q34 -4 76 -4q90 0 137.5 34.5t69.5 117.5l16 57zM233 1294q0 42 26 69t65 27q40 0 66 -27t26 -69q0 -40 -26 -67t-66 -27 q-38 0 -64.5 27t-26.5 67zM577 1294q0 42 26 69t65 27q41 0 67.5 -27t26.5 -69q0 -40 -27 -67t-67 -27q-38 0 -64.5 27t-26.5 67z" />
<glyph unicode="&#x152;" horiz-adv-x="1955" d="M110 576v200q0 289 147.5 453.5t394.5 164.5q119 0 217.5 -42.5t151.5 -124.5h14v138h804v-156h-635v-436h599v-152h-599v-465h635v-156h-804v144h-13q-56 -83 -156 -128t-218 -45q-248 0 -393 159t-145 446zM285 575q0 -220 102.5 -334t268.5 -114q168 0 271.5 108 t103.5 327v235q0 219 -103.5 329.5t-271.5 110.5q-164 0 -267.5 -119.5t-103.5 -340.5v-202z" />
<glyph unicode="&#x153;" horiz-adv-x="1797" d="M102 446v160q0 210 127 336t328 126q113 0 206 -44t148 -135h11q47 78 138.5 128.5t211.5 50.5q196 0 311 -134t115 -353v-98h-694v-19q0 -153 73 -245t202 -92q87 0 147.5 42t85.5 117h172q-30 -134 -136 -218.5t-273 -84.5q-121 0 -211.5 47t-141.5 133h-12 q-54 -85 -149 -132.5t-214 -47.5q-196 0 -320.5 122.5t-124.5 340.5zM273 461q0 -151 74.5 -240t205.5 -89t204.5 89t73.5 240v129q0 149 -75 240t-203 91q-127 0 -203.5 -91.5t-76.5 -239.5v-129zM1004 622h522v3q0 128 -72.5 213.5t-188.5 85.5t-187.5 -85t-73.5 -213v-4z " />
<glyph unicode="&#x178;" horiz-adv-x="1088" d="M0 1365h200l341 -606h6l342 606h198l-457 -776v-589h-173v588zM301 1585q0 39 25 65t62 26q38 0 63 -25.5t25 -65.5q0 -38 -25.5 -64t-62.5 -26t-62 26t-25 64zM608 1585q0 39 25 65t62 26q38 0 63 -25.5t25 -65.5q0 -38 -25 -64t-63 -26q-37 0 -62 26t-25 64z" />
<glyph unicode="&#x2c6;" horiz-adv-x="945" d="M210 1187l211 301h102l211 -301h-142l-119 184h-2l-119 -184h-142z" />
<glyph unicode="&#x2dc;" horiz-adv-x="945" d="M154 1208q0 92 48 157.5t134 65.5q44 0 82.5 -20.5t60.5 -44.5t48 -44.5t49 -20.5q34 0 51.5 34.5t21.5 77.5h118q0 -85 -50.5 -154.5t-139.5 -69.5q-44 0 -82 20.5t-60 44.5t-48 44.5t-50 20.5q-20 0 -33.5 -11.5t-20 -31t-9.5 -35.5t-3 -33h-117z" />
<glyph unicode="&#x2000;" horiz-adv-x="932" />
<glyph unicode="&#x2001;" horiz-adv-x="1865" />
<glyph unicode="&#x2002;" horiz-adv-x="932" />
<glyph unicode="&#x2003;" horiz-adv-x="1865" />
<glyph unicode="&#x2004;" horiz-adv-x="621" />
<glyph unicode="&#x2005;" horiz-adv-x="466" />
<glyph unicode="&#x2006;" horiz-adv-x="310" />
<glyph unicode="&#x2007;" horiz-adv-x="310" />
<glyph unicode="&#x2008;" horiz-adv-x="233" />
<glyph unicode="&#x2009;" horiz-adv-x="373" />
<glyph unicode="&#x200a;" horiz-adv-x="103" />
<glyph unicode="&#x2010;" horiz-adv-x="786" d="M78 483v154h630v-154h-630z" />
<glyph unicode="&#x2011;" horiz-adv-x="786" d="M78 483v154h630v-154h-630z" />
<glyph unicode="&#x2012;" horiz-adv-x="786" d="M78 483v154h630v-154h-630z" />
<glyph unicode="&#x2013;" horiz-adv-x="1158" d="M0 483v154h1158v-154h-1158z" />
<glyph unicode="&#x2014;" horiz-adv-x="2048" d="M0 483v154h2048v-154h-2048z" />
<glyph unicode="&#x2018;" horiz-adv-x="475" d="M105 887l131 478h134l-84 -478h-181z" />
<glyph unicode="&#x2019;" horiz-adv-x="475" d="M105 887l84 478h181l-131 -478h-134z" />
<glyph unicode="&#x201a;" horiz-adv-x="474" d="M105 -399l84 478h181l-131 -478h-134z" />
<glyph unicode="&#x201c;" horiz-adv-x="814" d="M105 887l131 478h134l-84 -478h-181zM444 887l131 478h134l-84 -478h-181z" />
<glyph unicode="&#x201d;" horiz-adv-x="814" d="M105 887l84 478h181l-131 -478h-134zM444 887l84 478h181l-131 -478h-134z" />
<glyph unicode="&#x201e;" horiz-adv-x="814" d="M105 -399l84 478h181l-131 -478h-134zM444 -399l84 478h181l-131 -478h-134z" />
<glyph unicode="&#x2022;" horiz-adv-x="930" d="M155 537q0 127 91.5 218.5t218.5 91.5t218.5 -91.5t91.5 -218.5t-91.5 -218.5t-218.5 -91.5t-218.5 91.5t-91.5 218.5z" />
<glyph unicode="&#x2026;" horiz-adv-x="1324" d="M131 96q0 48 34 82t82 34q47 0 81 -34t34 -82q0 -47 -34 -81t-81 -34q-48 0 -82 34t-34 81zM537 96q0 48 34 82t82 34q47 0 81 -34t34 -82q0 -47 -34 -81t-81 -34q-48 0 -82 34t-34 81zM943 96q0 48 34 82t82 34q47 0 81 -34t34 -82q0 -47 -34 -81t-81 -34q-48 0 -82 34 t-34 81z" />
<glyph unicode="&#x202f;" horiz-adv-x="373" />
<glyph unicode="&#x2039;" horiz-adv-x="799" d="M120 557v8l344 385h175l-339 -384v-6l339 -386h-184z" />
<glyph unicode="&#x203a;" horiz-adv-x="799" d="M138 174l339 386v6l-339 384h175l344 -385v-8l-335 -383h-184z" />
<glyph unicode="&#x205f;" horiz-adv-x="466" />
<glyph unicode="&#x20ac;" d="M94 514v110h117v4v109q0 25 1 37h-118v110h128q37 244 194.5 377t411.5 133q105 0 192 -23v-154q-78 21 -192 21q-173 0 -284.5 -92.5t-146.5 -261.5h459v-110h-472q-1 -13 -1 -39v-105v-6h473v-110h-465q28 -184 141.5 -285.5t295.5 -101.5q112 0 192 20v-154 q-90 -22 -192 -22q-262 0 -422 142.5t-189 400.5h-123z" />
<glyph unicode="&#x2122;" horiz-adv-x="1585" d="M30 1248v117h588v-117h-225v-594h-137v594h-226zM727 654v711h139l215 -462h4l215 462h138v-711h-125v471h-5l-180 -383h-92l-180 383h-6v-471h-123z" />
<glyph unicode="&#x25fc;" horiz-adv-x="1050" d="M0 0v1050h1050v-1050h-1050z" />
<glyph unicode="&#xfb01;" horiz-adv-x="1176" d="M77 907v144h142v105q0 151 77.5 222.5t239.5 71.5q41 0 77 -6v-141q-30 4 -54 4q-89 0 -129 -36t-40 -129v-91h207v-144h-206v-907h-172v907h-142zM817 1304q0 46 32 78t78 32t78.5 -32t32.5 -78t-32.5 -77.5t-78.5 -31.5t-78 31.5t-32 77.5zM841 0v1051h172v-1051h-172z " />
<glyph unicode="&#xfb02;" horiz-adv-x="1169" d="M77 907v144h142v105q0 151 77.5 222.5t239.5 71.5q41 0 77 -6v-141q-30 4 -54 4q-89 0 -129 -36t-40 -129v-91h207v-144h-206v-907h-172v907h-142zM838 0v1437h171v-1437h-171z" />
</font>
</defs>
</svg>
