<svg width="64" height="64" viewBox="0 0 64 64" xmlns="http://www.w3.org/2000/svg" xmlns:xlink="http://www.w3.org/1999/xlink"><title>Logs</title><defs><linearGradient x1="72.062%" y1="104.781%" x2="22.084%" y2="-3.107%" id="b"><stop stop-color="#8CBCF4" offset="0%"/><stop stop-color="#BADDF6" offset="100%"/></linearGradient><path d="M6 0a6 6 0 0 0-6 6v44a6 6 0 0 0 6 6h32a6 6 0 0 0 6-6V13.657a3.998 3.998 0 0 0-1.172-2.829l-9.657-9.657A4.003 4.003 0 0 0 30.343 0H6z" id="a"/><path d="M3 0a3 3 0 0 0-3 3v18a3 3 0 0 0 3 3h46a3 3 0 0 0 3-3V3a3 3 0 0 0-3-3H3z" id="d"/><linearGradient x1="62.71%" y1="125.663%" x2="37.29%" y2="-25.663%" id="e"><stop stop-color="#F9316E" offset="0%"/><stop stop-color="#FB9C7B" offset="100%"/></linearGradient></defs><g fill="none" fill-rule="evenodd"><path d="M0 64h64V0H0z"/><path d="M4 60h56V4H4z"/><g transform="translate(10 4)"><mask id="c" fill="#fff"><use xlink:href="#a"/></mask><use fill="url(#b)" xlink:href="#a"/><path d="M6 0a6 6 0 0 0-6 6v44a6 6 0 0 0 6 6h32a6 6 0 0 0 6-6V13.657a3.998 3.998 0 0 0-1.172-2.829l-9.657-9.657A4.003 4.003 0 0 0 30.343 0H6z" fill="url(#b)" mask="url(#c)"/></g><path d="M42 10a6 6 0 0 0 6 6h5.628a3.997 3.997 0 0 0-.799-1.172l-9.658-9.656a3.964 3.964 0 0 0-1.171-.8V10z" fill="#E9EBF4" opacity=".5"/><path fill="#000" opacity=".15" d="M10 54h44V30H10z"/><g transform="translate(6 28)"><mask id="f" fill="#fff"><use xlink:href="#d"/></mask><path d="M3 0a3 3 0 0 0-3 3v18a3 3 0 0 0 3 3h46a3 3 0 0 0 3-3V3a3 3 0 0 0-3-3H3z" fill="url(#e)" mask="url(#f)"/></g><path d="M14.776 45.791v-11.6h2.487v9.426h4.905v2.174zM33.392 40c0-2.175-1.374-3.809-3.513-3.809-2.156 0-3.53 1.634-3.53 3.809 0 2.156 1.374 3.809 3.53 3.809 2.14 0 3.513-1.653 3.513-3.809m-9.583 0c0-3.496 2.557-6 6.07-6 3.496 0 6.052 2.504 6.052 6 0 3.495-2.556 6-6.052 6-3.513 0-6.07-2.505-6.07-6m14.301 0c0-3.67 2.784-6 6.192-6 2.4 0 3.913 1.218 4.783 2.591l-2.035 1.113c-.54-.817-1.53-1.513-2.748-1.513-2.121 0-3.652 1.618-3.652 3.809s1.53 3.809 3.652 3.809c1.026 0 1.983-.453 2.453-.887V41.53h-3.061v-2.157h5.53v4.452C48.042 45.147 46.389 46 44.302 46c-3.408 0-6.191-2.349-6.191-6" fill="#FFF"/></g></svg>