<svg width="256" height="256" viewBox="0 0 256 256" xmlns="http://www.w3.org/2000/svg" xmlns:xlink="http://www.w3.org/1999/xlink"><title>Privacy</title><defs><path d="M24 0C10.745 0 0 10.745 0 24v108c0 13.255 10.745 24 24 24h144c13.255 0 24-10.745 24-24V24c0-13.255-10.745-24-24-24H24z" id="a"/><linearGradient x1="67.702%" y1="109.86%" x2="32.298%" y2="-9.86%" id="b"><stop stop-color="#F9316E" offset="0%"/><stop stop-color="#FB9C7B" offset="100%"/></linearGradient><path d="M18.919.029C8.586.572.227 9.217.005 19.561-.158 27.144 3.911 33.774 10 37.303V64a4 4 0 0 0 4 4h12a4 4 0 0 0 4-4V37.303C35.972 33.842 40 27.398 40 20 40 8.954 31.046 0 20.001 0c-.359 0-.719.01-1.082.029" id="d"/><linearGradient x1="-.001%" y1="50%" y2="50%" id="e"><stop stop-color="#E8EBF4" offset="0%"/><stop stop-color="#FFF" offset="100%"/></linearGradient></defs><g fill="none" fill-rule="evenodd"><path d="M0 256h256V0H0z"/><path d="M12 244h232V12H12z"/><path d="M128 0C90.444 0 60 30.444 60 68v136h136V68c0-37.556-30.444-68-68-68m0 24c24.262 0 44 19.738 44 44v112H84V68c0-24.262 19.738-44 44-44" fill="#232D40"/><g transform="translate(32 88)"><mask id="c" fill="#fff"><use xlink:href="#a"/></mask><path d="M24 0C10.745 0 0 10.745 0 24v108c0 13.255 10.745 24 24 24h144c13.255 0 24-10.745 24-24V24c0-13.255-10.745-24-24-24H24z" fill="url(#b)" mask="url(#c)"/></g><path d="M144.451 139.762c-4.22-4.004-9.75-6.026-15.585-5.733-10.903.574-19.627 9.584-19.86 20.51a21.015 21.015 0 0 0 9.994 18.33v26.13c0 2.757 2.243 5 5 5h12c2.757 0 5-2.243 5-5v-26.13c6.182-3.814 10-10.608 10-17.87 0-5.82-2.326-11.23-6.549-15.237" fill="#000" opacity=".15"/><g transform="translate(108 132)"><mask id="f" fill="#fff"><use xlink:href="#d"/></mask><path d="M18.919.029C8.586.572.227 9.217.005 19.561-.158 27.144 3.911 33.774 10 37.303V64a4 4 0 0 0 4 4h12a4 4 0 0 0 4-4V37.303C35.972 33.842 40 27.398 40 20 40 8.954 31.046 0 20.001 0c-.359 0-.719.01-1.082.029" fill="url(#e)" mask="url(#f)"/></g></g></svg>