<svg width="256" height="256" viewBox="0 0 256 256" xmlns="http://www.w3.org/2000/svg" xmlns:xlink="http://www.w3.org/1999/xlink"><title>Performance</title><defs><path d="M0 116c0 64.066 51.935 116 116 116 64.064 0 116-51.934 116-116C232 51.935 180.064 0 116 0 51.935 0 0 51.935 0 116" id="a"/><linearGradient x1="67.106%" y1="96.997%" x2="32.894%" y2="3.003%" id="b"><stop stop-color="#F9316E" offset="0%"/><stop stop-color="#0097E8" offset="100%"/></linearGradient><path d="M67.423 1.245L5.354 49.999c-.432.341-.855.703-1.253 1.101-5.468 5.468-5.468 14.333 0 19.799 5.467 5.468 14.331 5.468 19.799 0 .398-.399.759-.821 1.1-1.253L73.754 7.577a4.507 4.507 0 0 0-.357-5.973 4.503 4.503 0 0 0-5.974-.359M9.757 65.242a6 6 0 1 1 8.488-8.484 6 6 0 0 1-8.488 8.484" id="d"/><linearGradient x1="38.611%" y1="34.891%" x2="65.109%" y2="61.389%" id="e"><stop stop-color="#E8EBF4" offset="0%"/><stop stop-color="#FFF" offset="100%"/></linearGradient></defs><g fill="none" fill-rule="evenodd"><path d="M0 256h256V0H0z"/><path d="M12 244h232V12H12z"/><g transform="translate(12 12)"><mask id="c" fill="#fff"><use xlink:href="#a"/></mask><path d="M0 116c0 64.066 51.935 116 116 116 64.064 0 116-51.934 116-116C232 51.935 180.064 0 116 0 51.935 0 0 51.935 0 116" fill="url(#b)" mask="url(#c)"/></g><path d="M224 128c0 53.02-42.98 96-96 96s-96-42.98-96-96 42.98-96 96-96 96 42.98 96 96" fill="#232D40"/><path d="M232 128c0 57.438-46.563 104-104 104S24 185.438 24 128 70.563 24 128 24s104 46.562 104 104" fill="#232D40"/><path d="M181.153 184.153a5.99 5.99 0 0 1-.324-8.125C191.295 163.748 197 148.311 197 132a67.772 67.772 0 0 0-7.877-31.756c-1.466-2.767-.579-6.19 2.06-7.875 2.935-1.875 6.876-.883 8.51 2.193A79.741 79.741 0 0 1 209 132c0 19.214-6.728 37.393-19.07 51.85-2.259 2.646-6.317 2.763-8.777.303" fill="#000" opacity=".15"/><path d="M180.153 180.153a5.99 5.99 0 0 1-.324-8.125C190.295 159.748 196 144.311 196 128a67.772 67.772 0 0 0-7.877-31.756c-1.466-2.767-.579-6.19 2.06-7.875 2.935-1.875 6.876-.883 8.51 2.193A79.741 79.741 0 0 1 208 128c0 19.214-6.728 37.393-19.07 51.85-2.259 2.646-6.317 2.763-8.777.303" fill="#FA316E"/><path d="M76.847 184.153c-2.46 2.46-6.518 2.343-8.777-.304C55.728 169.393 49 151.214 49 132c0-44.113 35.888-80 80-80a79.73 79.73 0 0 1 37.438 9.307c3.076 1.633 4.069 5.575 2.194 8.51l-.001.001c-1.685 2.64-5.11 3.524-7.875 2.06A67.757 67.757 0 0 0 129 64c-37.495 0-68 30.505-68 68 0 16.311 5.705 31.748 16.17 44.028a5.99 5.99 0 0 1-.323 8.124v.001z" fill="#000" opacity=".15"/><path d="M75.847 180.153c-2.46 2.46-6.518 2.343-8.777-.304C54.728 165.393 48 147.214 48 128c0-44.113 35.888-80 80-80a79.73 79.73 0 0 1 37.438 9.307c3.076 1.633 4.069 5.575 2.194 8.51l-.001.001c-1.685 2.64-5.11 3.524-7.875 2.06A67.757 67.757 0 0 0 128 60c-37.495 0-68 30.505-68 68 0 16.311 5.705 31.748 16.17 44.028a5.99 5.99 0 0 1-.323 8.124v.001z" fill="#0097E8"/><path d="M134 128a6 6 0 0 0-12 0 6 6 0 0 0 12 0" fill="#232D40"/><path d="M132.536 135.535A4.969 4.969 0 0 1 129 137a4.968 4.968 0 0 1-3.535-1.465A4.964 4.964 0 0 1 124 132c0-1.335.52-2.59 1.465-3.535A4.964 4.964 0 0 1 129 127c1.336 0 2.592.52 3.536 1.465A4.967 4.967 0 0 1 134 132c0 1.335-.52 2.591-1.464 3.535m56.568-63.639a5.513 5.513 0 0 0-7.298-.437l-62.07 48.754a15.24 15.24 0 0 0-1.342 1.18A14.903 14.903 0 0 0 114 132a14.9 14.9 0 0 0 4.394 10.606A14.902 14.902 0 0 0 129 147c4.007 0 7.774-1.56 10.607-4.394.387-.386.773-.826 1.179-1.342l48.755-62.069a5.511 5.511 0 0 0-.437-7.299" fill="#000" opacity=".15"/><g transform="translate(114 67)"><mask id="f" fill="#fff"><use xlink:href="#d"/></mask><path d="M67.423 1.245L5.354 49.999c-.432.341-.855.703-1.253 1.101-5.468 5.468-5.468 14.333 0 19.799 5.467 5.468 14.331 5.468 19.799 0 .398-.399.759-.821 1.1-1.253L73.754 7.577a4.507 4.507 0 0 0-.357-5.973 4.503 4.503 0 0 0-5.974-.359M9.757 65.242a6 6 0 1 1 8.488-8.484 6 6 0 0 1-8.488 8.484" fill="url(#e)" mask="url(#f)"/></g></g></svg>