<svg width="64" height="64" viewBox="0 0 64 64" xmlns="http://www.w3.org/2000/svg" xmlns:xlink="http://www.w3.org/1999/xlink"><title>Placeholder</title><defs><path d="M6 0a6 6 0 0 0-6 6v44a6 6 0 0 0 6 6h32a6 6 0 0 0 6-6V13.657a3.998 3.998 0 0 0-1.172-2.829l-9.657-9.657A4.003 4.003 0 0 0 30.343 0H6z" id="a"/><linearGradient x1="72.062%" y1="104.781%" x2="22.084%" y2="-3.107%" id="b"><stop stop-color="#8CBCF4" offset="0%"/><stop stop-color="#BADDF6" offset="100%"/></linearGradient></defs><g fill="none" fill-rule="evenodd"><path d="M0 64h64V0H0z"/><path d="M4 60h56V4H4z"/><g transform="translate(10 4)"><mask id="c" fill="#fff"><use xlink:href="#a"/></mask><path d="M6 0a6 6 0 0 0-6 6v44a6 6 0 0 0 6 6h32a6 6 0 0 0 6-6V13.657a3.998 3.998 0 0 0-1.172-2.829l-9.657-9.657A4.003 4.003 0 0 0 30.343 0H6z" fill="url(#b)" mask="url(#c)"/></g><path d="M42 10a6 6 0 0 0 6 6h5.628a3.997 3.997 0 0 0-.799-1.172l-9.658-9.656a3.964 3.964 0 0 0-1.171-.8V10z" fill="#E9EBF4" opacity=".5"/></g></svg>