<svg width="256" height="256" viewBox="0 0 256 256" xmlns="http://www.w3.org/2000/svg" xmlns:xlink="http://www.w3.org/1999/xlink"><title>App Security Tracker</title><defs><path d="M0 110c0 60.751 49.249 110 110 110s110-49.249 110-110S170.751 0 110 0 0 49.249 0 110" id="a"/><linearGradient x1="67.106%" y1="96.997%" x2="32.894%" y2="3.003%" id="b"><stop stop-color="#FB215B" offset="0%"/><stop stop-color="#FDBC2B" offset="100%"/></linearGradient><path id="d" d="M0 256h256V0H0z"/></defs><g fill="none" fill-rule="evenodd"><path d="M0 256h256V0H0z"/><path d="M12 244h232V12H12z"/><g transform="translate(18 18)"><mask id="c" fill="#fff"><use xlink:href="#a"/></mask><path d="M0 110c0 60.751 49.249 110 110 110s110-49.249 110-110S170.751 0 110 0 0 49.249 0 110" fill="url(#b)" mask="url(#c)"/></g><path d="M128 12C63.935 12 12 63.935 12 128s51.935 116 116 116 116-51.935 116-116S192.065 12 128 12m0 12c57.346 0 104 46.654 104 104s-46.654 104-104 104S24 185.346 24 128 70.654 24 128 24" fill="#232D40"/><path d="M128 64c-35.347 0-64 28.653-64 64 0 35.346 28.653 64 64 64s64-28.654 64-64c0-35.347-28.653-64-64-64m0 12c28.673 0 52 23.327 52 52s-23.327 52-52 52-52-23.327-52-52 23.327-52 52-52" fill="#232D40"/><path d="M128 110c-9.941 0-18 8.059-18 18s8.059 18 18 18 18-8.059 18-18-8.059-18-18-18m0 12c3.309 0 6 2.691 6 6s-2.691 6-6 6-6-2.691-6-6 2.691-6 6-6" fill="#232D40"/><mask id="e" fill="#fff"><use xlink:href="#d"/></mask><path fill="#232D40" mask="url(#e)" d="M220 134h36v-12h-36zM0 134h36v-12H0zm122 122h12v-36h-12zm0-220h12V0h-12z"/></g></svg>