<svg width="64" height="64" viewBox="0 0 64 64" xmlns="http://www.w3.org/2000/svg" xmlns:xlink="http://www.w3.org/1999/xlink"><title>Languages</title><defs><path d="M0 28c0 15.464 12.536 28 28 28s28-12.536 28-28S43.464 0 28 0 0 12.536 0 28" id="a"/><linearGradient x1="67.106%" y1="96.997%" x2="32.894%" y2="3.003%" id="b"><stop stop-color="#3F42A8" offset="0%"/><stop stop-color="#26D6FB" offset="100%"/></linearGradient><path d="M0 18c0 9.941 8.059 18 18 18s18-8.059 18-18S27.941 0 18 0 0 8.059 0 18" id="d"/><linearGradient x1="72.062%" y1="104.781%" x2="22.084%" y2="-3.107%" id="e"><stop stop-color="#8CBCF4" offset="0%"/><stop stop-color="#BADDF6" offset="100%"/></linearGradient></defs><g fill="none" fill-rule="evenodd"><path d="M0 64h64V0H0z"/><path d="M4 60h56V4H4z"/><g transform="translate(4 4)"><mask id="c" fill="#fff"><use xlink:href="#a"/></mask><path d="M0 28c0 15.464 12.536 28 28 28s28-12.536 28-28S43.464 0 28 0 0 12.536 0 28" fill="url(#b)" mask="url(#c)"/></g><path d="M44.298 41.073C40.511 40.383 36.358 40 32 40c-4.359 0-8.512.383-12.299 1.073a58.037 58.037 0 0 1-.7-9.073c0-3.177.248-6.227.7-9.073 3.787.69 7.94 1.073 12.3 1.073 4.357 0 8.51-.383 12.297-1.073.453 2.846.702 5.896.702 9.073 0 3.177-.249 6.226-.702 9.073M55.734 17.15c-.599.316-1.234.622-1.909.918-2.347 1.027-5.026 1.857-7.92 2.492-1.417-7.058-4.126-12.693-7.568-15.83A28.16 28.16 0 0 0 32 4c5.36 0 9.96 6.987 11.95 16.963C40.221 21.641 36.18 22 32 22s-8.223-.359-11.95-1.037C22.04 10.987 26.64 4 32 4c-2.18 0-4.3.258-6.337.728-3.443 3.138-6.152 8.773-7.569 15.831-2.894-.635-5.573-1.465-7.92-2.492a29.066 29.066 0 0 1-1.908-.918 27.785 27.785 0 0 0-.999 1.724c2.852 1.52 6.412 2.773 10.471 3.66A59.66 59.66 0 0 0 17 32c0 3.324.26 6.502.738 9.468-4.059.885-7.619 2.14-10.47 3.66.311.587.646 1.161.998 1.722a29.584 29.584 0 0 1 1.908-.918c2.347-1.026 5.026-1.856 7.92-2.492 1.417 7.06 4.126 12.694 7.57 15.831 2.036.471 4.155.73 6.336.73-5.36 0-9.96-6.989-11.95-16.964C23.777 42.358 27.82 42 32 42s8.222.358 11.95 1.037C41.96 53.012 37.36 60 32 60c2.18 0 4.3-.258 6.337-.729 3.442-3.137 6.151-8.772 7.568-15.83 2.894.635 5.573 1.465 7.92 2.491.675.296 1.31.603 1.908.918.353-.56.687-1.135 1-1.723-2.852-1.519-6.413-2.774-10.472-3.659.478-2.966.74-6.144.74-9.468s-.262-6.502-.74-9.468c4.06-.886 7.62-2.14 10.472-3.659a28.299 28.299 0 0 0-.999-1.724" fill="#FFF" opacity=".5"/><path d="M32.28 59.993c14.628-.145 26.564-11.502 27.633-25.89C56.52 30.946 51.988 29 47 29c-10.476 0-19 8.523-19 19 0 4.545 1.608 8.72 4.28 11.993" fill="#000" opacity=".15"/><g transform="translate(28 28)"><mask id="f" fill="#fff"><use xlink:href="#d"/></mask><path d="M0 18c0 9.941 8.059 18 18 18s18-8.059 18-18S27.941 0 18 0 0 8.059 0 18" fill="url(#e)" mask="url(#f)"/></g><path d="M39.979 40.978c-.98 0-2.221.04-3.261.12v-3.18c.98.1 2.001.14 3.161.14h12.142c1.341 0 2.421-.04 3.141-.14v3.18a40.18 40.18 0 0 0-3.04-.12h-3.201c-.421.8-.62 1.14-1.461 2.32V45l1.261-1.52c2 2.32 4.421 4.16 6.941 5.261-.72.96-1.24 1.82-1.8 3.02-2.701-1.6-4.581-3.1-6.402-5.12v6.562c0 1.12.04 2.02.141 2.88H44.14c.1-.86.14-1.782.14-2.88V46.88c-.64.82-1.541 1.66-2.801 2.62-1 .78-1.96 1.42-3.36 2.22-.401-1.02-.941-1.88-1.781-2.86 1.761-.88 2.701-1.46 4.081-2.56 2.24-1.76 3.56-3.22 4.821-5.322h-5.261z" fill="#FFF"/></g></svg>