<svg xmlns="http://www.w3.org/2000/svg" width="76.652" height="76.652" viewBox="0 0 76.652 76.652"><path fill="#627080" d="M75.549 68.735L58.189 52.06c4.267-5.283 6.814-11.907 6.814-19.097 0-17.216-14.58-31.221-32.504-31.221C14.58 1.741 0 15.746 0 32.963s14.58 31.223 32.5 31.223c7.73 0 14.835-2.609 20.42-6.954L70.221 73.85a3.826 3.826 0 0 0 2.662 1.061c.967 0 1.93-.354 2.666-1.061a3.516 3.516 0 0 0 0-5.115zM7.536 32.963c0-13.223 11.2-23.979 24.964-23.979 13.768 0 24.968 10.756 24.968 23.979S46.268 56.949 32.5 56.949c-13.764 0-24.964-10.764-24.964-23.986z"/></svg>