<svg width="40" height="40" viewBox="0 0 40 40" xmlns="http://www.w3.org/2000/svg"><title>Buyer Protection</title><defs><linearGradient x1="0%" y1="0%" y2="100%" id="a"><stop stop-color="#43E4A3" offset="0%"/><stop stop-color="#20C46A" offset="100%"/></linearGradient></defs><g fill="none" fill-rule="evenodd"><path d="M0 0h40v40H0z"/><path d="M19.976 37.98C19.318 37.894 4 35.58 4 6.815v-.116l16-4.616 16 4.616v.115c0 28.766-15.317 31.08-15.97 31.164l-.03.005-.024-.003z" fill="url(#a)"/><path d="M20 0L2 5.194v1.62c0 30.499 16.99 33.054 17.713 33.149L20 40l.287-.037C21.01 39.868 38 37.313 38 6.814v-1.62L20 0zm0 4.163l13.988 4.036c-.435 23.971-12.116 27.365-13.987 27.755-1.893-.395-13.555-3.805-13.989-27.755L20 4.163z" fill="#1C71A5"/><path fill="#FFF" d="M19.407 24.942l-6.604-6.604 2.095-2.095 4.509 4.51 9.695-9.696 2.096 2.095z"/></g></svg>