<svg width="256" height="256" viewBox="0 0 256 256" xmlns="http://www.w3.org/2000/svg" xmlns:xlink="http://www.w3.org/1999/xlink"><title>System Status - Default</title><defs><path id="a" d="M0 256h256V0H0z"/><linearGradient x1="50%" y1="100%" x2="50%" y2="-.003%" id="c"><stop stop-color="#B8D1F9" offset="0%"/><stop stop-color="#8CAAF9" offset="100%"/></linearGradient><path d="M12 0C5.373 0 0 5.373 0 12v140h256V12c0-6.627-5.372-12-12-12H12z" id="d"/><linearGradient x1="64.77%" y1="121.596%" x2="37.364%" y2="-5.224%" id="e"><stop stop-color="#3441AA" offset="0%"/><stop stop-color="#6450A7" offset="100%"/></linearGradient></defs><g fill="none" fill-rule="evenodd"><path d="M244 218H12c-6.627 0-12-5.373-12-12V44c0-6.627 5.373-12 12-12h232c6.627 0 12 5.373 12 12v162c0 6.627-5.373 12-12 12" fill="#C1D7FD"/><mask id="b" fill="#fff"><use xlink:href="#a"/></mask><path fill="#C1D7FD" mask="url(#b)" d="M71 256h112v-6H71z"/><path fill="url(#c)" d="M92 250h72v-31.999H92z"/><g transform="translate(0 32)"><mask id="f" fill="#fff"><use xlink:href="#d"/></mask><path d="M12 0C5.373 0 0 5.373 0 12v140h256V12c0-6.627-5.372-12-12-12H12z" fill="url(#e)" mask="url(#f)"/></g><path d="M244 32H12C5.373 32 0 37.373 0 44v140h256V44c0-6.627-5.373-12-12-12zM12 172h232V44H12v128z" fill="#000" opacity=".5"/></g></svg>