<svg width="256" height="256" viewBox="0 0 256 256" xmlns="http://www.w3.org/2000/svg" xmlns:xlink="http://www.w3.org/1999/xlink"><title>Privacy Protection</title><defs><path d="M74.378 0a24.005 24.005 0 0 0-16.971 7.029L7.029 57.407A23.999 23.999 0 0 0 0 74.378v71.244a24 24 0 0 0 7.029 16.971l50.378 50.378A24 24 0 0 0 74.378 220h71.244c6.366 0 12.47-2.528 16.971-7.029l50.378-50.378A24.005 24.005 0 0 0 220 145.622V74.378c0-6.366-2.529-12.47-7.029-16.971L162.593 7.029A24.003 24.003 0 0 0 145.622 0H74.378z" id="a"/><linearGradient x1="68.189%" y1="99.973%" x2="31.811%" y2=".027%" id="b"><stop stop-color="#FB215B" offset="0%"/><stop stop-color="#FF4931" offset="100%"/></linearGradient></defs><g fill="none" fill-rule="evenodd"><path d="M0 256h256V0H0z"/><path d="M12 244h232V12H12z"/><g transform="translate(18 18)"><mask id="c" fill="#fff"><use xlink:href="#a"/></mask><path d="M74.378 0a24.005 24.005 0 0 0-16.971 7.029L7.029 57.407A23.999 23.999 0 0 0 0 74.378v71.244a24 24 0 0 0 7.029 16.971l50.378 50.378A24 24 0 0 0 74.378 220h71.244c6.366 0 12.47-2.528 16.971-7.029l50.378-50.378A24.005 24.005 0 0 0 220 145.622V74.378c0-6.366-2.529-12.47-7.029-16.971L162.593 7.029A24.003 24.003 0 0 0 145.622 0H74.378z" fill="url(#b)" mask="url(#c)"/></g><path d="M163.622 18H92.378a24 24 0 0 0-16.97 7.029l-50.38 50.378A24 24 0 0 0 18 92.378v71.244a24 24 0 0 0 7.03 16.971l50.377 50.378A24 24 0 0 0 92.378 238h71.244a24 24 0 0 0 16.971-7.029l50.378-50.378a24 24 0 0 0 7.03-16.971V92.378a24 24 0 0 0-7.03-16.971l-50.378-50.378A24 24 0 0 0 163.623 18m0 12c3.205 0 6.218 1.248 8.484 3.515l50.378 50.378A11.917 11.917 0 0 1 226 92.378v71.244c0 3.206-1.248 6.219-3.515 8.485l-50.378 50.378a11.917 11.917 0 0 1-8.485 3.515H92.378a11.917 11.917 0 0 1-8.485-3.515l-50.378-50.378A11.917 11.917 0 0 1 30 163.622V92.378c0-3.206 1.248-6.219 3.515-8.485l50.378-50.378A11.917 11.917 0 0 1 92.378 30h71.244" fill="#FFF" opacity=".25"/><path d="M185.898 116.387c-2.47-1.66-6.4-1.988-9.188 1.216l-16.202 18.63c-.67.773-1.582.798-2.209.56-.627-.234-1.299-.85-1.299-1.873V75c0-3.86-3.14-7-7-7s-7 3.14-7 7v47c0 1.103-.898 2-2 2-1.103 0-2-.897-2-2V67c0-3.86-3.14-7-7-7s-7 3.14-7 7v55c0 1.103-.898 2-2 2-1.103 0-2-.897-2-2V75c0-3.86-3.14-7-7-7s-7 3.14-7 7v47c0 1.103-.898 2-2 2-1.103 0-2-.897-2-2V91c0-3.86-3.14-7-7-7s-7 3.14-7 7v66c0 18.197 14.803 33 33 33h13.305c12.528 0 23.817-6.947 29.46-18.132l23.478-46.518c1.912-3.79.126-7.304-2.345-8.963" fill="#000" opacity=".15"/><path d="M155 131.92V72a6 6 0 0 0-12 0v47a3 3 0 1 1-6 0V64a6 6 0 0 0-12 0v55a3 3 0 1 1-6 0V72a6 6 0 0 0-12 0v47a3 3 0 1 1-6 0V88a6 6 0 0 0-12 0v66c0 17.673 14.327 32 32 32h13.306c12.077 0 23.126-6.8 28.567-17.582l23.477-46.52c3.182-6.304-5.249-11.968-9.884-6.64l-16.202 18.63c-1.821 2.094-5.264.806-5.264-1.968" fill="#FFF"/></g></svg>