<svg width="256" height="256" viewBox="0 0 256 256" xmlns="http://www.w3.org/2000/svg" xmlns:xlink="http://www.w3.org/1999/xlink"><title>Security</title><defs><path d="M96.845 2.734C73.718 24.843 45.994 34.863 9.396 34.863l-1.514.022A7.999 7.999 0 0 0 0 42.884V63c0 61 .495 142.972 103 178 102.505-35.028 103-117 103-178V42.884a8 8 0 0 0-7.883-7.999l-1.514-.022c-36.597 0-64.322-10.02-87.448-32.129v-.001a9.01 9.01 0 0 0-6.154-2.422 9.01 9.01 0 0 0-6.156 2.423" id="a"/><linearGradient x1="74.54%" y1="92.375%" x2="36.891%" y2="3.842%" id="b"><stop stop-color="#3F42A8" offset="0%"/><stop stop-color="#26D6FB" offset="100%"/></linearGradient><path d="M96.845 2.734C73.718 24.843 45.994 34.863 9.396 34.863l-1.514.022A7.999 7.999 0 0 0 0 42.884V63c0 61 .495 142.972 103 178 102.505-35.028 103-117 103-178V42.884a8 8 0 0 0-7.883-7.999l-1.514-.022c-36.597 0-64.322-10.02-87.448-32.129v-.001a9.01 9.01 0 0 0-6.154-2.422 9.01 9.01 0 0 0-6.156 2.423" id="d"/><path d="M85.063 1.845L36.98 49.928 12.938 25.887a4 4 0 0 0-5.658 0l-5.656 5.656a4 4 0 0 0 0 5.657l32.527 32.528a4.001 4.001 0 0 0 5.656 0l56.569-56.57a4 4 0 0 0 0-5.656l-5.657-5.657A3.985 3.985 0 0 0 87.891.674c-1.023 0-2.047.39-2.828 1.171" id="f"/><linearGradient x1="91.16%" y1="60.122%" x2="3.776%" y2="27.748%" id="g"><stop stop-color="#E8EBF4" offset="0%"/><stop stop-color="#FFF" offset="100%"/></linearGradient></defs><g fill="none" fill-rule="evenodd"><path d="M0 256h256V0H0z"/><path d="M12 244h232V12H12z"/><g transform="translate(25 3)"><mask id="c" fill="#fff"><use xlink:href="#a"/></mask><path d="M96.845 2.734C73.718 24.843 45.994 34.863 9.396 34.863l-1.514.022A7.999 7.999 0 0 0 0 42.884V63c0 61 .495 142.972 103 178 102.505-35.028 103-117 103-178V42.884a8 8 0 0 0-7.883-7.999l-1.514-.022c-36.597 0-64.322-10.02-87.448-32.129v-.001a9.01 9.01 0 0 0-6.154-2.422 9.01 9.01 0 0 0-6.156 2.423" fill="url(#b)" mask="url(#c)"/></g><g transform="translate(25 3)"><mask id="e" fill="#fff"><use xlink:href="#d"/></mask><path d="M96.845 2.734C73.718 24.843 45.994 34.863 9.396 34.863l-1.514.022A7.999 7.999 0 0 0 0 42.884V63c0 61 .495 142.972 103 178 102.505-35.028 103-117 103-178V42.884a8 8 0 0 0-7.883-7.999l-1.514-.022c-36.597 0-64.322-10.02-87.448-32.129v-.001a9.01 9.01 0 0 0-6.154-2.422 9.01 9.01 0 0 0-6.156 2.423" fill="url(#b)" mask="url(#e)"/></g><path d="M121.845 5.734C98.719 27.842 70.994 37.862 34.397 37.862l-1.514.022a8 8 0 0 0-7.883 8V66c0 61 .495 142.972 103 178 102.505-35.028 103-117 103-178V45.883a8 8 0 0 0-7.883-7.999l-1.513-.022c-36.598 0-64.322-10.02-87.448-32.128l-.703-.655a7.999 7.999 0 0 0-10.906.001l-.702.654zM128 16.41c24.317 22.297 53.37 32.97 91 33.436V66c0 28.35 0 63.631-12.21 94.3-13.245 33.272-39.041 56.521-78.79 70.976-39.75-14.455-65.545-37.704-78.79-70.976C37 129.631 37 94.35 37 66V49.845c37.629-.466 66.684-11.139 91-33.436z" fill="#E9EBF4" opacity=".25"/><path d="M186.456 106.379a4.954 4.954 0 0 0-1.373-2.582l-5.656-5.657a4.989 4.989 0 0 0-7.072 0l-47.376 47.376-23.335-23.334a4.989 4.989 0 0 0-7.071 0l-5.656 5.656a4.973 4.973 0 0 0-1.373 2.581 4.994 4.994 0 0 0 1.373 4.49l32.527 32.529a4.983 4.983 0 0 0 3.535 1.462c1.335 0 2.59-.52 3.536-1.463l56.568-56.57a4.99 4.99 0 0 0 1.373-4.488" fill="#000" opacity=".15"/><g transform="translate(87 93)"><mask id="h" fill="#fff"><use xlink:href="#f"/></mask><path d="M85.063 1.845L36.98 49.928 12.938 25.887a4 4 0 0 0-5.658 0l-5.656 5.656a4 4 0 0 0 0 5.657l32.527 32.528a4.001 4.001 0 0 0 5.656 0l56.569-56.57a4 4 0 0 0 0-5.656l-5.657-5.657A3.985 3.985 0 0 0 87.891.674c-1.023 0-2.047.39-2.828 1.171" fill="url(#g)" mask="url(#h)"/></g></g></svg>