<svg width="64" height="64" viewBox="0 0 64 64" xmlns="http://www.w3.org/2000/svg" xmlns:xlink="http://www.w3.org/1999/xlink"><title>Mail</title><defs><path d="M6 0a6 6 0 0 0-6 6v28a6 6 0 0 0 6 6h44a6 6 0 0 0 6-6V6a6 6 0 0 0-6-6H6z" id="a"/><linearGradient x1="63.204%" y1="100.79%" x2="24.18%" y2="-49.316%" id="b"><stop stop-color="#FFA002" offset="0%"/><stop stop-color="#FFCD00" offset="100%"/></linearGradient></defs><g fill="none" fill-rule="evenodd"><path d="M0 64h64V0H0z"/><path d="M4 60h56V4H4z"/><g transform="translate(4 12)"><mask id="c" fill="#fff"><use xlink:href="#a"/></mask><path d="M6 0a6 6 0 0 0-6 6v28a6 6 0 0 0 6 6h44a6 6 0 0 0 6-6V6a6 6 0 0 0-6-6H6z" fill="url(#b)" mask="url(#c)"/></g><path d="M33 35.728c2.447 0 4.895-.687 7.03-2.06L60 20.832V18H4v1.546l21.97 14.123a12.991 12.991 0 0 0 7.03 2.06" fill="#000" opacity=".15"/><path d="M54 12H10a6 6 0 0 0-6 6l21.511 13.828a12 12 0 0 0 12.978 0L60 18a6 6 0 0 0-6-6" fill="#FFCE00"/></g></svg>