<svg width="64" height="64" viewBox="0 0 64 64" xmlns="http://www.w3.org/2000/svg" xmlns:xlink="http://www.w3.org/1999/xlink"><title>Trash</title><defs><path d="M3.21 2.91L.911 24.79a2.998 2.998 0 0 0 2.669 3.297l15.912 1.673a3.002 3.002 0 0 0 3.298-2.67l2.299-21.88a2.999 2.999 0 0 0-2.67-3.297L6.507.24A3 3 0 0 0 3.21 2.91" id="a"/><linearGradient x1="73.159%" y1="102.129%" x2="26.841%" y2="-2.131%" id="b"><stop stop-color="#F9316E" offset="0%"/><stop stop-color="#FB9C7B" offset="100%"/></linearGradient><path d="M19.493.24L3.581 1.913A3 3 0 0 0 .911 5.21L3.21 27.09a3.001 3.001 0 0 0 3.298 2.67l15.912-1.673a2.999 2.999 0 0 0 2.669-3.297L22.79 2.91A3.001 3.001 0 0 0 19.493.24" id="d"/><linearGradient x1="72.05%" y1="99.632%" x2="27.949%" y2=".369%" id="e"><stop stop-color="#FFA002" offset="0%"/><stop stop-color="#FFCD00" offset="100%"/></linearGradient><path d="M3.379 0A3 3 0 0 0 .4 3.354l3.97 33.355A6 6 0 0 0 10.328 42h25.343a6 6 0 0 0 5.959-5.291L45.6 3.354A3 3 0 0 0 42.621 0H3.379z" id="g"/><linearGradient x1="72.062%" y1="104.781%" x2="22.084%" y2="-3.107%" id="h"><stop stop-color="#8CBCF4" offset="0%"/><stop stop-color="#BADDF6" offset="100%"/></linearGradient></defs><g fill="none" fill-rule="evenodd"><path d="M0 64h64V0H0z"/><path d="M4 60h56V4H4z"/><g transform="translate(26)"><mask id="c" fill="#fff"><use xlink:href="#a"/></mask><path d="M3.21 2.91L.911 24.79a2.998 2.998 0 0 0 2.669 3.297l15.912 1.673a3.002 3.002 0 0 0 3.298-2.67l2.299-21.88a2.999 2.999 0 0 0-2.67-3.297L6.507.24A3 3 0 0 0 3.21 2.91" fill="url(#b)" mask="url(#c)"/></g><path d="M36.785 8.806a4.004 4.004 0 0 0-4.396-3.56l-3.462.365L26.91 24.79a3 3 0 0 0 2.67 3.297l9.333.982-2.13-20.263z" fill="#000" opacity=".15"/><g transform="translate(12 4)"><mask id="f" fill="#fff"><use xlink:href="#d"/></mask><path d="M19.493.24L3.581 1.913A3 3 0 0 0 .911 5.21L3.21 27.09a3.001 3.001 0 0 0 3.298 2.67l15.912-1.673a2.999 2.999 0 0 0 2.669-3.297L22.79 2.91A3.001 3.001 0 0 0 19.493.24" fill="url(#e)" mask="url(#f)"/></g><g transform="translate(9 18)"><mask id="i" fill="#fff"><use xlink:href="#g"/></mask><path d="M3.379 0A3 3 0 0 0 .4 3.354l3.97 33.355A6 6 0 0 0 10.328 42h25.343a6 6 0 0 0 5.959-5.291L45.6 3.354A3 3 0 0 0 42.621 0H3.379z" fill="url(#h)" mask="url(#i)"/></g></g></svg>