<svg width="64" height="64" viewBox="0 0 64 64" xmlns="http://www.w3.org/2000/svg" xmlns:xlink="http://www.w3.org/1999/xlink"><title>iOS Junk</title><defs><path d="M0 28c0 15.464 12.536 28 28 28s28-12.536 28-28S43.464 0 28 0 0 12.536 0 28" id="a"/><linearGradient x1="67.106%" y1="96.997%" x2="32.894%" y2="3.003%" id="b"><stop stop-color="#F9316E" offset="0%"/><stop stop-color="#FB9C7B" offset="100%"/></linearGradient></defs><g fill="none" fill-rule="evenodd"><path d="M0 64h64V0H0z"/><path d="M4 60h56V4H4z"/><g transform="translate(4 4)"><mask id="c" fill="#fff"><use xlink:href="#a"/></mask><path d="M0 28c0 15.464 12.536 28 28 28s28-12.536 28-28S43.464 0 28 0 0 12.536 0 28" fill="url(#b)" mask="url(#c)"/></g><path d="M37.039 17.276c1.2-1.456 2.01-3.477 1.79-5.49-1.73.07-3.825 1.15-5.065 2.603-1.113 1.288-2.087 3.345-1.826 5.321 1.93.15 3.9-.982 5.1-2.434m4.33 12.78c-.042-4.355 3.552-6.444 3.713-6.548-2.02-2.956-5.166-3.36-6.287-3.407-2.678-.27-5.225 1.576-6.585 1.576-1.355 0-3.452-1.536-5.673-1.496-2.92.044-5.61 1.698-7.113 4.312-3.032 5.262-.777 13.057 2.179 17.325 1.444 2.09 3.166 4.436 5.428 4.352 2.177-.087 3-1.41 5.633-1.41 2.632 0 3.372 1.41 5.677 1.366 2.343-.043 3.827-2.129 5.262-4.224 1.658-2.424 2.34-4.77 2.38-4.89-.051-.024-4.568-1.755-4.613-6.957" fill="#FFF"/></g></svg>