<svg width="256" height="256" viewBox="0 0 256 256" xmlns="http://www.w3.org/2000/svg" xmlns:xlink="http://www.w3.org/1999/xlink"><title>Firewall</title><defs><path d="M98.91 1.809l-2.065 1.925C73.718 25.843 45.994 35.863 9.396 35.863l-3.484.05A6 6 0 0 0 0 41.912V64c0 61 .495 142.972 103 178 102.505-35.028 103-117 103-178V41.912a6 6 0 0 0-5.912-5.999l-3.485-.05c-36.597 0-64.322-10.02-87.448-32.129l-2.066-1.925A5.983 5.983 0 0 0 103 .199a5.986 5.986 0 0 0-4.09 1.61" id="a"/><linearGradient x1="74.666%" y1="92.371%" x2="36.874%" y2="3.911%" id="b"><stop stop-color="#3FC350" offset="0%"/><stop stop-color="#49E4C6" offset="100%"/></linearGradient></defs><g fill="none" fill-rule="evenodd"><path d="M0 256h256V0H0z"/><path d="M12 244h232V12H12z"/><g transform="translate(25 2)"><mask id="c" fill="#fff"><use xlink:href="#a"/></mask><path d="M98.91 1.809l-2.065 1.925C73.718 25.843 45.994 35.863 9.396 35.863l-3.484.05A6 6 0 0 0 0 41.912V64c0 61 .495 142.972 103 178 102.505-35.028 103-117 103-178V41.912a6 6 0 0 0-5.912-5.999l-3.485-.05c-36.597 0-64.322-10.02-87.448-32.129l-2.066-1.925A5.983 5.983 0 0 0 103 .199a5.986 5.986 0 0 0-4.09 1.61" fill="url(#b)" mask="url(#c)"/></g><path d="M128 231.276V128H40.534C37.003 106.527 37 84.748 37 66V49.845c37.629-.466 66.684-11.139 91-33.436V128h87.466c-1.809 10.997-4.54 21.914-8.676 32.3-13.245 33.272-39.042 56.521-78.79 70.976m97.088-193.363l-3.484-.05c-36.598 0-64.323-10.02-87.449-32.129L132.09 3.81a6.001 6.001 0 0 0-8.18 0l-2.065 1.925C98.719 27.842 70.994 37.862 34.396 37.862l-3.484.051a6 6 0 0 0-5.912 6V66c0 61 .495 142.972 103 178 102.505-35.028 103-117 103-178V43.912a6 6 0 0 0-5.912-5.999" fill="#FFF" opacity=".25"/></g></svg>