<svg width="256" height="256" viewBox="0 0 256 256" xmlns="http://www.w3.org/2000/svg" xmlns:xlink="http://www.w3.org/1999/xlink"><title>Startup Optimization</title><defs><path d="M24 0C10.745 0 0 10.745 0 24v160c0 13.255 10.745 24 24 24h160c13.255 0 24-10.745 24-24V24c0-13.255-10.745-24-24-24H24z" id="a"/><linearGradient x1="70.808%" y1="107.169%" x2="29.192%" y2="-7.169%" id="b"><stop stop-color="#46179C" offset="0%"/><stop stop-color="#A11DBF" offset="100%"/></linearGradient><path id="d" d="M84.301 14.888L105.414 36H0v20h105.414L84.301 77.112l14.143 14.143 31.112-31.112L143.698 46l-14.142-14.142L98.444.745z"/><linearGradient x1="19.781%" y1="7.547%" x2="73.261%" y2="92.453%" id="e"><stop stop-color="#E8EBF4" offset="0%"/><stop stop-color="#FFF" offset="100%"/></linearGradient></defs><g fill="none" fill-rule="evenodd"><path d="M0 256h256V0H0z"/><path d="M12 244h232V12H12z"/><g transform="translate(24 24)"><mask id="c" fill="#fff"><use xlink:href="#a"/></mask><path d="M24 0C10.745 0 0 10.745 0 24v160c0 13.255 10.745 24 24 24h160c13.255 0 24-10.745 24-24V24c0-13.255-10.745-24-24-24H24z" fill="url(#b)" mask="url(#c)"/></g><path fill="#000" opacity=".15" d="M123.444 85.331l-15.556 15.557L128 121H24v22h104l-20.112 20.112 15.556 15.557L170.112 132z"/><g transform="translate(24 82)"><mask id="f" fill="#fff"><use xlink:href="#d"/></mask><path fill="url(#e)" mask="url(#f)" d="M84.301 14.888L105.414 36H0v20h105.414L84.301 77.112l14.143 14.143 31.112-31.112L143.698 46l-14.142-14.142L98.444.745z"/></g><path d="M208 24H48c-13.255 0-24 10.745-24 24v48h12V48c0-6.617 5.383-12 12-12h160c6.617 0 12 5.383 12 12v160c0 6.617-5.383 12-12 12H48c-6.617 0-12-5.383-12-12v-48H24v48c0 13.255 10.745 24 24 24h160c13.255 0 24-10.745 24-24V48c0-13.255-10.745-24-24-24" fill="#E9EBF4" opacity=".25"/></g></svg>