<svg width="256" height="256" viewBox="0 0 256 256" xmlns="http://www.w3.org/2000/svg" xmlns:xlink="http://www.w3.org/1999/xlink"><title>Uninstall Apps</title><defs><path d="M25.043 0C11.213 0 0 11.212 0 25.043v45.914C0 84.787 11.212 96 25.043 96h45.914C84.787 96 96 84.788 96 70.957V25.043C96 11.213 84.788 0 70.957 0H25.043z" id="a"/><linearGradient x1="50%" y1="100%" x2="50%" y2="0%" id="b"><stop stop-color="#31AA6B" offset="0%"/><stop stop-color="#75FBBA" offset="100%"/></linearGradient><path d="M25.043 0C11.213 0 0 11.212 0 25.043v45.914C0 84.787 11.212 96 25.043 96h45.914C84.787 96 96 84.788 96 70.957V25.043C96 11.213 84.788 0 70.957 0H25.043z" id="d"/><linearGradient x1="50%" y1="100%" x2="50%" y2="0%" id="e"><stop stop-color="#34A3E4" offset="0%"/><stop stop-color="#31EFF9" offset="100%"/></linearGradient><path d="M25.043 0C11.213 0 0 11.212 0 25.043v45.914C0 84.787 11.212 96 25.043 96h45.914C84.787 96 96 84.788 96 70.957V25.043C96 11.213 84.788 0 70.957 0H25.043z" id="g"/><linearGradient x1="50%" y1="100%" x2="50%" y2="0%" id="h"><stop stop-color="#D43DC3" offset="0%"/><stop stop-color="#A777F9" offset="100%"/></linearGradient><path d="M75.112 1.573L44 32.687 12.887 1.573a4 4 0 0 0-5.656 0L1.573 7.23a4.002 4.002 0 0 0 0 5.657L32.686 44 1.573 75.112a4.002 4.002 0 0 0 0 5.657l5.658 5.658a4.001 4.001 0 0 0 5.656 0L44 55.314l31.112 31.113a4.003 4.003 0 0 0 5.658 0l5.656-5.658a3.999 3.999 0 0 0 0-5.657L55.313 44l31.113-31.113a3.999 3.999 0 0 0 0-5.657L80.77 1.573A3.988 3.988 0 0 0 77.941.402a3.99 3.99 0 0 0-2.829 1.171" id="j"/><linearGradient x1="70.718%" y1="106.923%" x2="29.282%" y2="-6.922%" id="k"><stop stop-color="#FDBC2B" offset="0%"/><stop stop-color="#FB215B" offset="100%"/></linearGradient></defs><g fill="none" fill-rule="evenodd"><path d="M0 256h256V0H0z"/><path d="M12 244h232V12H12z"/><g transform="translate(24 24)"><mask id="c" fill="#fff"><use xlink:href="#a"/></mask><path d="M25.043 0C11.213 0 0 11.212 0 25.043v45.914C0 84.787 11.212 96 25.043 96h45.914C84.787 96 96 84.788 96 70.957V25.043C96 11.213 84.788 0 70.957 0H25.043z" fill="url(#b)" mask="url(#c)"/></g><g transform="translate(136 24)"><mask id="f" fill="#fff"><use xlink:href="#d"/></mask><path d="M25.043 0C11.213 0 0 11.212 0 25.043v45.914C0 84.787 11.212 96 25.043 96h45.914C84.787 96 96 84.788 96 70.957V25.043C96 11.213 84.788 0 70.957 0H25.043z" fill="url(#e)" mask="url(#f)"/></g><g transform="translate(24 136)"><mask id="i" fill="#fff"><use xlink:href="#g"/></mask><path d="M25.043 0C11.213 0 0 11.212 0 25.043v45.914C0 84.787 11.212 96 25.043 96h45.914C84.787 96 96 84.788 96 70.957V25.043C96 11.213 84.788 0 70.957 0H25.043z" fill="url(#h)" mask="url(#i)"/></g><path d="M219.478 232h-70.956c-6.915 0-12.522-5.607-12.522-12.522v-70.956c0-6.915 5.607-12.522 12.522-12.522h70.956c6.915 0 12.522 5.607 12.522 12.522v70.956c0 6.915-5.607 12.522-12.522 12.522"/><g transform="translate(140 140)"><mask id="l" fill="#fff"><use xlink:href="#j"/></mask><path d="M75.112 1.573L44 32.687 12.887 1.573a4 4 0 0 0-5.656 0L1.573 7.23a4.002 4.002 0 0 0 0 5.657L32.686 44 1.573 75.112a4.002 4.002 0 0 0 0 5.657l5.658 5.658a4.001 4.001 0 0 0 5.656 0L44 55.314l31.112 31.113a4.003 4.003 0 0 0 5.658 0l5.656-5.658a3.999 3.999 0 0 0 0-5.657L55.313 44l31.113-31.113a3.999 3.999 0 0 0 0-5.657L80.77 1.573A3.988 3.988 0 0 0 77.941.402a3.99 3.99 0 0 0-2.829 1.171" fill="url(#k)" mask="url(#l)"/></g></g></svg>