<svg width="64" height="64" viewBox="0 0 64 64" xmlns="http://www.w3.org/2000/svg" xmlns:xlink="http://www.w3.org/1999/xlink"><title>Firewall - Block</title><defs><path d="M24.727.452l-.516.481C18.43 6.461 11.5 8.966 2.35 8.966l-.871.012A1.5 1.5 0 0 0 0 10.478V16c0 15.25.124 35.743 25.75 44.5C51.376 51.743 51.5 31.25 51.5 16v-5.522a1.5 1.5 0 0 0-1.478-1.5l-.871-.012C40 8.966 33.07 6.46 27.289.934l-.517-.482a1.496 1.496 0 0 0-2.044 0" id="a"/><linearGradient x1="67.106%" y1="96.997%" x2="32.894%" y2="3.003%" id="b"><stop stop-color="#FB215B" offset="0%"/><stop stop-color="#FF4931" offset="100%"/></linearGradient></defs><g fill="none" fill-rule="evenodd"><path d="M0 64h64V0H0z"/><path d="M3 61h58V3H3z"/><g transform="translate(6.25 .5)"><mask id="c" fill="#fff"><use xlink:href="#a"/></mask><path d="M24.727.452l-.516.481C18.43 6.461 11.5 8.966 2.35 8.966l-.871.012A1.5 1.5 0 0 0 0 10.478V16c0 15.25.124 35.743 25.75 44.5C51.376 51.743 51.5 31.25 51.5 16v-5.522a1.5 1.5 0 0 0-1.478-1.5l-.871-.012C40 8.966 33.07 6.46 27.289.934l-.517-.482a1.496 1.496 0 0 0-2.044 0" fill="url(#b)" mask="url(#c)"/></g><path d="M32 57.82V32H10.133c-.882-5.368-.883-10.813-.883-15.5v-4.039c9.407-.116 16.671-2.784 22.75-8.359V32h21.867c-.453 2.75-1.136 5.479-2.17 8.075-3.31 8.318-9.76 14.13-19.697 17.744M56.272 9.48l-.871-.013c-9.15 0-16.08-2.505-21.862-8.032l-.517-.482a1.5 1.5 0 0 0-2.044 0l-.517.482C24.68 6.96 17.75 9.466 8.6 9.466l-.871.012a1.5 1.5 0 0 0-1.478 1.5V16.5c0 15.25.124 35.743 25.75 44.5 25.626-8.757 25.75-29.25 25.75-44.5v-5.522a1.5 1.5 0 0 0-1.478-1.5" fill="#FFF" opacity=".25"/></g></svg>