<svg width="40" height="40" viewBox="0 0 40 40" xmlns="http://www.w3.org/2000/svg"><title>30 Day Money-Back</title><defs><linearGradient x1="12.5%" y1="12.5%" x2="87.5%" y2="87.5%" id="a"><stop stop-color="#FFE164" offset="0%"/><stop stop-color="#FFBF34" offset="100%"/></linearGradient></defs><g fill="none" fill-rule="evenodd"><path d="M0 0h40v40H0z"/><circle fill="#303A4C" cx="20" cy="20" r="20"/><path d="M32 16c0 8.836-7.164 16-16 16-8.837 0-16-7.164-16-16S7.163 0 16 0c8.836 0 16 7.164 16 16" fill="url(#a)" transform="translate(4 4)"/><path d="M11 19.395l1.306-1.757c.736.705 1.863 1.05 2.733 1.05 1.11 0 1.683-.42 1.683-.975 0-.571-.422-.855-1.787-.855-.437 0-1.203.015-1.353.029V14.59c.196.015.977.015 1.353.015 1.035 0 1.621-.256 1.621-.78 0-.632-.72-.916-1.682-.916-.915 0-1.787.33-2.492.96l-1.246-1.621c.856-.947 2.162-1.622 4.009-1.622 2.552 0 3.979 1.096 3.979 2.748 0 1.17-1.007 2.057-2.192 2.252 1.065.105 2.357.93 2.357 2.373 0 1.756-1.652 2.972-4.145 2.972-1.922 0-3.348-.676-4.144-1.576m15.387-3.604c0-1.77-.48-2.883-1.682-2.883-1.2 0-1.68 1.112-1.68 2.883s.48 2.897 1.68 2.897c1.202 0 1.682-1.126 1.682-2.897m-5.977 0c0-2.644 1.368-5.165 4.295-5.165 2.928 0 4.295 2.521 4.295 5.165 0 2.643-1.367 5.18-4.295 5.18-2.927 0-4.295-2.537-4.295-5.18m-4.445 10.343c0-1.045-.643-1.857-1.857-1.857H13.02v3.724h1.08c1.18 0 1.866-.849 1.866-1.867zm-4.215 2.983V23.16h2.35c1.865 0 3.16 1.188 3.16 2.974 0 1.804-1.295 2.983-3.152 2.983H11.75zm8.711-4.689l-.929 2.563h1.86l-.93-2.563zm1.652 4.689l-.375-1.008h-2.553l-.375 1.008h-1.439l2.295-5.957h1.59l2.295 5.957h-1.438zm3.191 0V26.68l-2.286-3.519h1.447l1.474 2.384 1.472-2.384h1.44l-2.278 3.52v2.437z" fill="#303A4C"/></g></svg>