<svg width="256" height="256" viewBox="0 0 256 256" xmlns="http://www.w3.org/2000/svg" xmlns:xlink="http://www.w3.org/1999/xlink"><title>System Status - Critical</title><defs><path d="M12 0C5.373 0 0 5.373 0 12v140h256V12c0-6.627-5.373-12-12-12H12z" id="a"/><linearGradient x1="64.77%" y1="121.596%" x2="34.441%" y2="-18.748%" id="b"><stop stop-color="#FF2F2F" offset="0%"/><stop stop-color="#FF4931" offset="100%"/></linearGradient><path id="d" d="M0 256h256V0H0z"/><linearGradient x1="50%" y1="100%" x2="50%" y2="-.003%" id="f"><stop stop-color="#B8D1F9" offset="0%"/><stop stop-color="#A5BAFD" offset="100%"/></linearGradient></defs><g fill="none" fill-rule="evenodd"><path d="M0 256h256V0H0z"/><path d="M12 244h232V12H12z"/><path d="M244 218H12c-6.627 0-12-5.373-12-12V44c0-6.627 5.373-12 12-12h232c6.627 0 12 5.373 12 12v162c0 6.627-5.373 12-12 12" fill="#C1D7FD"/><g transform="translate(0 32)"><mask id="c" fill="#fff"><use xlink:href="#a"/></mask><path d="M12 0C5.373 0 0 5.373 0 12v140h256V12c0-6.627-5.373-12-12-12H12z" fill="url(#b)" mask="url(#c)"/></g><path d="M244 32H12C5.373 32 0 37.373 0 44v140h256V44c0-6.627-5.373-12-12-12zM12 172h232V44H12v128z" fill="#000" opacity=".5" style="mix-blend-mode:multiply"/><mask id="e" fill="#fff"><use xlink:href="#d"/></mask><path fill="#C1D7FD" mask="url(#e)" d="M71 256h112v-6H71z"/><path fill="url(#f)" d="M92 250h72v-31.999H92z"/><g opacity=".75" style="mix-blend-mode:multiply"><path d="M99 99c-3.866 0-7 4.478-7 10s3.134 10 7 10 7-4.478 7-10-3.134-10-7-10m58 0c-3.866 0-7 4.478-7 10s3.134 10 7 10 7-4.478 7-10-3.134-10-7-10m-29 32c-12.467 0-22.871 7.428-25.401 17.336C109.967 146.225 118.67 145 128 145c9.33 0 18.033 1.225 25.401 3.336C150.871 138.428 140.467 131 128 131" fill="#000"/><path d="M101 78.29c-6.743.745-12.906 3.367-18 7.312m70-7.312c6.743.745 12.906 3.367 18 7.312" stroke="#000"/></g></g></svg>