<svg width="256" height="256" viewBox="0 0 256 256" xmlns="http://www.w3.org/2000/svg" xmlns:xlink="http://www.w3.org/1999/xlink"><title>System Junk</title><defs><path d="M0 0l15.818 156.415C17.057 168.672 27.375 178 39.695 178h104.61c12.319 0 22.639-9.328 23.878-21.585L184 0H0z" id="a"/><linearGradient x1="74.632%" y1="102.295%" x2="34.097%" y2="-12.829%" id="b"><stop stop-color="#217C41" offset="0%"/><stop stop-color="#75BF54" offset="100%"/></linearGradient><path d="M0 6v96a6 6 0 0 0 12 0V6A6 6 0 1 0 0 6" id="d"/><linearGradient x1="0%" y1="50%" y2="50%" id="e"><stop stop-color="#E8EBF4" offset="0%"/><stop stop-color="#FFF" offset="100%"/></linearGradient><path d="M5.75.005A5.999 5.999 0 0 0 .006 6.25l3.999 96a6 6 0 0 0 6.245 5.745 6 6 0 0 0 5.745-6.245l-4.001-96C11.86 2.517 9.195 0 5.983.001a6.07 6.07 0 0 0-.233.004" id="g"/><linearGradient x1="-.004%" y1="50%" x2="99.998%" y2="50%" id="h"><stop stop-color="#E8EBF4" offset="0%"/><stop stop-color="#FFF" offset="100%"/></linearGradient><path d="M4.005 5.75l-3.999 96a5.999 5.999 0 1 0 11.988.5l4.001-96A6 6 0 0 0 9.998 0a5.99 5.99 0 0 0-5.993 5.75" id="j"/><linearGradient x1="-.004%" y1="50%" x2="99.998%" y2="50%" id="k"><stop stop-color="#E8EBF4" offset="0%"/><stop stop-color="#FFF" offset="100%"/></linearGradient></defs><g fill="none" fill-rule="evenodd"><path d="M0 256.198h256v-256H0z"/><path d="M12 244.198h232v-232H12z"/><path d="M166.324 91.197l-53.794-4.706a2 2 0 0 1-1.818-2.167l6.798-77.703a2 2 0 0 1 2.167-1.819L173.47 9.51a2 2 0 0 1 1.818 2.167L168.49 89.38a2 2 0 0 1-2.167 1.818" fill="#3896FC"/><path d="M132.138 84.364L78.434 90.01a2 2 0 0 1-2.198-1.78l-8.154-77.573a2 2 0 0 1 1.78-2.198l53.705-5.645a2 2 0 0 1 2.198 1.78l8.153 77.573a2 2 0 0 1-1.78 2.198" fill="#000" opacity=".15"/><path d="M128.138 81.364L74.434 87.01a2 2 0 0 1-2.198-1.78L64.082 7.655a2 2 0 0 1 1.78-2.198l53.705-5.645a2 2 0 0 1 2.198 1.78l8.153 77.573a2 2 0 0 1-1.78 2.198" fill="#FB535F"/><path d="M198.886 114.718l-52.82-11.228a1.999 1.999 0 0 1-1.54-2.372l16.216-76.295a2.001 2.001 0 0 1 2.373-1.541l52.82 11.228a1.999 1.999 0 0 1 1.54 2.372l-16.217 76.295a2 2 0 0 1-2.372 1.54" fill="#000" opacity=".15"/><path d="M202.886 112.718l-52.82-11.228a1.999 1.999 0 0 1-1.54-2.372l16.216-76.295a2.001 2.001 0 0 1 2.373-1.541l52.82 11.228a1.999 1.999 0 0 1 1.54 2.372l-16.217 76.295a2 2 0 0 1-2.372 1.54" fill="#9478FC"/><path d="M109.082 104.272l-53.335 8.447a2 2 0 0 1-2.29-1.662l-12.202-77.04a2 2 0 0 1 1.663-2.289l53.335-8.447a1.999 1.999 0 0 1 2.288 1.663l12.204 77.04a2 2 0 0 1-1.663 2.288" fill="#000" opacity=".15"/><path d="M105.082 102.272l-53.335 8.447a2 2 0 0 1-2.29-1.662l-12.202-77.04a2 2 0 0 1 1.663-2.289l53.336-8.447a1.999 1.999 0 0 1 2.287 1.663l12.204 77.04a2 2 0 0 1-1.663 2.288" fill="#FDBB4A"/><g transform="translate(36 66)"><mask id="c" fill="#fff"><use xlink:href="#a"/></mask><path d="M0 0l15.818 156.415C17.057 168.672 27.375 178 39.695 178h104.61c12.319 0 22.639-9.328 23.878-21.585L184 0H0z" fill="url(#b)" mask="url(#c)"/></g><path d="M220 78H36a4 4 0 0 1-4-4V58a4 4 0 0 1 4-4h184a4 4 0 0 1 4 4v16a4 4 0 0 1-4 4" fill="#138E51"/><path d="M130 109c-3.86 0-7 3.141-7 7v96c0 3.859 3.14 7 7 7s7-3.141 7-7v-96c0-3.859-3.14-7-7-7m-42.292.006c-3.856.16-6.863 3.43-6.702 7.286l4 96a6.98 6.98 0 0 0 6.99 6.708l.296-.006a7.008 7.008 0 0 0 6.702-7.286l-4-96c-.16-3.841-3.415-6.848-7.286-6.702m84.582 0c-3.84-.161-7.123 2.849-7.283 6.702l-4 96c-.161 3.857 2.845 7.125 6.709 7.286l.288.006a6.98 6.98 0 0 0 6.99-6.708l4-96a7.008 7.008 0 0 0-6.703-7.286" fill="#000" opacity=".15"/><g transform="translate(122 107)"><mask id="f" fill="#fff"><use xlink:href="#d"/></mask><path d="M0 6v96a6 6 0 0 0 12 0V6A6 6 0 1 0 0 6" fill="url(#e)" mask="url(#f)"/></g><g transform="translate(80 107)"><mask id="i" fill="#fff"><use xlink:href="#g"/></mask><path d="M5.75.005A5.999 5.999 0 0 0 .006 6.25l3.999 96a6 6 0 0 0 6.245 5.745 6 6 0 0 0 5.745-6.245l-4.001-96C11.86 2.517 9.195 0 5.983.001a6.07 6.07 0 0 0-.233.004" fill="url(#h)" mask="url(#i)"/></g><g transform="translate(160 107)"><mask id="l" fill="#fff"><use xlink:href="#j"/></mask><path d="M4.005 5.75l-3.999 96a5.999 5.999 0 1 0 11.988.5l4.001-96A6 6 0 0 0 9.998 0a5.99 5.99 0 0 0-5.993 5.75" fill="url(#k)" mask="url(#l)"/></g></g></svg>