<svg width="192" height="40" viewBox="0 0 192 40" xmlns="http://www.w3.org/2000/svg" xmlns:xlink="http://www.w3.org/1999/xlink"><title>30 Day Money-Back Gaurantee</title><defs><path id="a" d="M0 26.637h137.313V0H0z"/><linearGradient x1="12.5%" y1="12.5%" x2="87.5%" y2="87.5%" id="c"><stop stop-color="#FFE164" offset="0%"/><stop stop-color="#FFBF34" offset="100%"/></linearGradient></defs><g fill="none" fill-rule="evenodd"><g transform="translate(50 7)"><path d="M2.598 4.628H3.8c1.005 0 1.695-.608 1.695-1.49 0-.875-.663-1.443-1.695-1.443-1.018 0-1.695.575-1.764 1.504H.39C.479 1.388 1.805.259 3.856.259c1.914 0 3.343 1.122 3.343 2.633 0 1.155-.691 2.037-1.785 2.269v.116c1.347.158 2.18 1.074 2.18 2.386 0 1.695-1.585 2.953-3.731 2.953-2.126 0-3.576-1.176-3.664-2.98h1.688c.075.916.855 1.497 1.989 1.497 1.128 0 1.92-.65 1.92-1.58 0-.963-.744-1.558-1.961-1.558H2.598V4.628zm12.448.8c0-2.413-.738-3.698-1.976-3.698-1.237 0-1.982 1.292-1.982 3.698 0 2.427.73 3.726 1.982 3.726 1.25 0 1.976-1.3 1.976-3.726m-5.742 0C9.304 2.167 10.726.26 13.07.26c2.338 0 3.76 1.907 3.76 5.182 0 3.26-1.401 5.174-3.76 5.174-2.365 0-3.766-1.914-3.766-5.188m15.128 3.418h1.702c1.962 0 3.076-1.224 3.076-3.425 0-2.153-1.141-3.39-3.076-3.39h-1.702v6.815zm1.935-8.34c2.932 0 4.64 1.79 4.64 4.888 0 3.165-1.687 4.976-4.64 4.976h-3.7V.506h3.7zm10.78 7.123v-.595l-1.688.11c-.952.06-1.396.403-1.396 1.01 0 .63.54 1.006 1.292 1.006 1.026 0 1.792-.663 1.792-1.531m-4.765.622c0-1.353 1.019-2.133 2.837-2.242l1.928-.116v-.63c0-.731-.492-1.141-1.408-1.141-.78 0-1.313.274-1.47.779h-1.6c.137-1.32 1.373-2.16 3.152-2.16 1.92 0 3 .937 3 2.523v5.106h-1.633V9.345h-.117c-.416.724-1.236 1.148-2.215 1.148-1.442 0-2.474-.875-2.474-2.242m8.394 4.806v-1.388c.096.02.35.028.465.028.718 0 1.121-.274 1.34-.964l.09-.328-2.674-7.513h1.86l1.75 5.838h.115l1.743-5.838h1.791l-2.7 7.718c-.635 1.859-1.435 2.474-3.11 2.474-.103 0-.56-.006-.67-.027m20.392-2.687V3.432h-.096l-2.727 6.555h-1.258l-2.728-6.555h-.095v6.938h-1.641V.506h2.065l2.966 7.184h.123L60.744.506h2.065v9.864zm8.976-3.74c0-1.558-.677-2.467-1.853-2.467-1.182 0-1.86.909-1.86 2.468 0 1.565.678 2.468 1.86 2.468 1.183 0 1.853-.903 1.853-2.468m-5.448 0c0-2.413 1.374-3.89 3.595-3.89 2.229 0 3.596 1.47 3.596 3.89 0 2.427-1.36 3.89-3.596 3.89-2.242 0-3.595-1.463-3.595-3.89m8.9-3.739h1.634v1.196h.116c.355-.834 1.107-1.346 2.222-1.346 1.668 0 2.577 1.004 2.577 2.789v4.84H78.45V5.934c0-1.142-.48-1.716-1.511-1.716-1.012 0-1.648.697-1.648 1.798v4.355h-1.695V2.89zm9.898 3.014h3.521c-.035-1.107-.705-1.818-1.723-1.818-1.012 0-1.723.724-1.798 1.818zm5.141 2.406c-.322 1.361-1.559 2.208-3.323 2.208-2.2 0-3.527-1.456-3.527-3.862s1.347-3.917 3.514-3.917c2.133 0 3.411 1.415 3.411 3.773v.547h-5.223v.09c.041 1.243.76 2.023 1.873 2.023.841 0 1.422-.308 1.668-.862h1.607zm1.75 4.745v-1.388c.096.02.349.028.465.028.718 0 1.12-.274 1.34-.964l.089-.328-2.673-7.513h1.859l1.75 5.838h.116l1.743-5.838h1.79l-2.7 7.718c-.634 1.859-1.434 2.474-3.11 2.474-.102 0-.56-.006-.67-.027" fill="#303A4C"/><mask id="b" fill="#fff"><use xlink:href="#a"/></mask><path fill="#303A4C" mask="url(#b)" d="M98.191 7.192h4.491V5.599h-4.491zm10.637 1.777c1.3 0 1.99-.533 1.99-1.538 0-.984-.712-1.504-2.058-1.504h-1.983v3.042h2.051zm-2.05-4.313h1.701c1.251 0 1.914-.486 1.914-1.374 0-.87-.622-1.375-1.688-1.375h-1.928v2.749zm-1.764 5.714V.506h4.122c1.873 0 3.001.943 3.001 2.46 0 1.04-.766 1.956-1.757 2.113v.123c1.326.123 2.242 1.08 2.242 2.366 0 1.729-1.285 2.802-3.39 2.802h-4.218zm13.692-2.741v-.595l-1.688.11c-.95.06-1.395.403-1.395 1.01 0 .63.54 1.006 1.292 1.006 1.025 0 1.791-.663 1.791-1.531m-4.765.622c0-1.353 1.02-2.133 2.837-2.242l1.928-.116v-.63c0-.731-.492-1.141-1.408-1.141-.78 0-1.313.274-1.47.779h-1.6c.137-1.32 1.374-2.16 3.152-2.16 1.921 0 3.001.937 3.001 2.523v5.106h-1.634V9.345h-.116c-.417.724-1.237 1.148-2.215 1.148-1.442 0-2.475-.875-2.475-2.242m13.324-2.844c-.157-.725-.718-1.244-1.647-1.244-1.163 0-1.853.895-1.853 2.447 0 1.572.697 2.488 1.853 2.488.88 0 1.469-.417 1.647-1.196h1.613c-.184 1.566-1.36 2.618-3.254 2.618-2.25 0-3.575-1.449-3.575-3.91 0-2.427 1.32-3.869 3.569-3.869 1.92 0 3.083 1.094 3.26 2.666h-1.613zm7.875-2.515h1.969l-2.981 3.206 3.186 4.273h-2.051l-2.4-3.207-.601.602v2.605h-1.695V0h1.695v5.94h.116zM4.86 26.637c-3.035 0-4.86-1.962-4.86-5.21 0-3.205 1.832-5.187 4.792-5.187 2.406 0 4.197 1.4 4.443 3.486H6.76c-.246-.868-.984-1.395-1.968-1.395-1.402 0-2.236 1.149-2.236 3.07 0 1.955.923 3.144 2.36 3.144 1.14 0 1.933-.67 1.995-1.668l.007-.164H5.113V20.99h4.225v1.27c0 2.715-1.689 4.376-4.478 4.376m9.24-4.238h2.27l-1.06-3.67h-.13l-1.08 3.67zm2.742 1.805h-3.22l-.635 2.167h-2.49l3.31-9.865h3.069l3.316 9.865h-2.735l-.615-2.167zm7.469-1.503c0 1.147.63 1.824 1.744 1.824 1.114 0 1.736-.677 1.736-1.825v-6.193h2.508v6.46c0 2.214-1.68 3.671-4.244 3.671s-4.253-1.457-4.253-3.67v-6.46h2.51v6.192zm11.039-1.553h1.483c.923 0 1.47-.513 1.47-1.367 0-.84-.581-1.38-1.476-1.38H35.35v2.747zm0 5.223h-2.51v-9.865h4.342c2.304 0 3.685 1.217 3.685 3.254 0 1.21-.602 2.318-1.682 2.79l1.969 3.821h-2.817l-1.688-3.452h-1.3v3.452zm10.662-3.972h2.27l-1.06-3.67h-.13l-1.08 3.67zm2.74 1.805h-3.22l-.634 2.167h-2.49l3.31-9.865h3.069l3.316 9.865h-2.735l-.615-2.167zm5.215 2.167v-9.864h2.003l4.108 5.551h.13v-5.55h2.379v9.863h-1.99l-4.121-5.605h-.13v5.605zm13.458 0v-7.848H64.58v-2.016h8.197v2.016h-2.851v7.848zm14.107 0h-6.76v-9.864h6.76v2.016H77.28v1.97h4v1.845h-4v2.016h4.252zm9.111 0h-6.761v-9.864h6.76v2.016h-4.251v1.97h3.999v1.845h-4v2.016h4.253z"/></g><path d="M0 0h40v40H0z"/><path d="M0 0h40v40H0z"/><circle fill="#303A4C" cx="20" cy="20" r="20"/><path d="M32 16c0 8.836-7.164 16-16 16-8.837 0-16-7.164-16-16S7.163 0 16 0c8.836 0 16 7.164 16 16" fill="url(#c)" transform="translate(4 4)"/><path d="M11 19.395l1.306-1.757c.736.705 1.863 1.05 2.733 1.05 1.11 0 1.683-.42 1.683-.975 0-.571-.422-.855-1.787-.855-.437 0-1.203.015-1.353.029V14.59c.196.015.977.015 1.353.015 1.035 0 1.621-.256 1.621-.78 0-.632-.72-.916-1.682-.916-.915 0-1.787.33-2.492.96l-1.246-1.621c.856-.947 2.162-1.622 4.009-1.622 2.552 0 3.979 1.096 3.979 2.748 0 1.17-1.007 2.057-2.192 2.252 1.065.105 2.357.93 2.357 2.373 0 1.756-1.652 2.972-4.145 2.972-1.922 0-3.348-.676-4.144-1.576m15.387-3.604c0-1.77-.48-2.883-1.682-2.883-1.2 0-1.68 1.112-1.68 2.883s.48 2.897 1.68 2.897c1.202 0 1.682-1.126 1.682-2.897m-5.977 0c0-2.644 1.368-5.165 4.295-5.165 2.928 0 4.295 2.521 4.295 5.165 0 2.643-1.367 5.18-4.295 5.18-2.927 0-4.295-2.537-4.295-5.18m-4.445 10.343c0-1.045-.643-1.857-1.857-1.857H13.02v3.724h1.08c1.18 0 1.866-.849 1.866-1.867zm-4.215 2.983V23.16h2.35c1.865 0 3.16 1.188 3.16 2.974 0 1.804-1.295 2.983-3.152 2.983H11.75zm8.711-4.689l-.929 2.563h1.86l-.93-2.563zm1.652 4.689l-.375-1.008h-2.553l-.375 1.008h-1.439l2.295-5.957h1.59l2.295 5.957h-1.438zm3.191 0V26.68l-2.286-3.519h1.447l1.474 2.384 1.472-2.384h1.44l-2.278 3.52v2.437z" fill="#303A4C"/></g></svg>