<svg width="168" height="40" viewBox="0 0 168 40" xmlns="http://www.w3.org/2000/svg" xmlns:xlink="http://www.w3.org/1999/xlink"><title>Buyer Protection Gaurantee</title><defs><linearGradient x1="0%" y1="0%" y2="100%" id="a"><stop stop-color="#43E4A3" offset="0%"/><stop stop-color="#20C46A" offset="100%"/></linearGradient><path id="b" d="M0 26.835h113.75V0H0z"/></defs><g fill="none" fill-rule="evenodd"><path d="M0 0h40v40H0z"/><path d="M19.976 37.98C19.318 37.894 4 35.58 4 6.815v-.116l16-4.616 16 4.616v.115c0 28.766-15.317 31.08-15.97 31.164l-.03.005-.024-.003z" fill="url(#a)"/><path d="M20 0L2 5.194v1.62c0 30.499 16.99 33.054 17.713 33.149L20 40l.287-.037C21.01 39.868 38 37.313 38 6.814v-1.62L20 0zm0 4.163l13.988 4.036c-.435 23.971-12.116 27.365-13.987 27.755-1.893-.395-13.555-3.805-13.989-27.755L20 4.163z" fill="#1C71A5"/><path fill="#FFF" d="M19.407 24.942l-6.604-6.604 2.095-2.095 4.509 4.51 9.695-9.696 2.096 2.095z"/><g transform="translate(50 7)"><path d="M4.334 9.167c1.299 0 1.989-.533 1.989-1.538 0-.984-.711-1.504-2.057-1.504H2.283v3.042h2.051zM2.283 4.854h1.702c1.251 0 1.914-.486 1.914-1.374 0-.869-.622-1.375-1.688-1.375H2.283v2.749zM.52 10.568V.704h4.122c1.873 0 3.001.943 3.001 2.461 0 1.039-.766 1.955-1.757 2.112V5.4c1.326.123 2.242 1.08 2.242 2.366 0 1.729-1.285 2.802-3.391 2.802H.52zm15.852 0h-1.634V9.38h-.116c-.362.854-1.094 1.34-2.235 1.34-1.634 0-2.59-1.019-2.59-2.769V3.09h1.694v4.436c0 1.142.472 1.702 1.484 1.702 1.1 0 1.702-.677 1.702-1.784V3.09h1.695v7.48zm2.228 2.687v-1.388c.097.02.35.028.466.028.718 0 1.12-.274 1.34-.964l.089-.328-2.673-7.513h1.859l1.75 5.838h.116L23.29 3.09h1.79l-2.7 7.718c-.634 1.859-1.434 2.474-3.11 2.474-.102 0-.56-.006-.67-.027m8.983-7.151h3.521c-.035-1.107-.705-1.817-1.723-1.817-1.012 0-1.723.724-1.798 1.817zm5.141 2.407c-.322 1.36-1.559 2.208-3.323 2.208-2.201 0-3.527-1.457-3.527-3.862 0-2.407 1.347-3.918 3.514-3.918 2.133 0 3.411 1.415 3.411 3.774v.546h-5.223v.09c.041 1.243.759 2.024 1.873 2.024.841 0 1.422-.308 1.668-.862h1.607zm1.777-5.421h1.634v1.162h.116c.205-.738 1.012-1.285 1.976-1.285.246 0 .546.027.704.075v1.572c-.13-.047-.581-.095-.868-.095-1.101 0-1.867.683-1.867 1.729v4.32h-1.695V3.09zm11.491 2.782h1.743c1.258 0 1.996-.656 1.996-1.832 0-1.21-.718-1.859-1.989-1.859h-1.75v3.691zM48.207.704c1.97 0 3.315 1.347 3.315 3.336 0 1.955-1.394 3.295-3.39 3.295h-2.14v3.233h-1.764V.704h3.98zm5.079 2.386h1.634v1.162h.116c.205-.738 1.012-1.285 1.976-1.285.246 0 .546.027.704.075v1.572c-.13-.047-.58-.095-.868-.095-1.1 0-1.867.683-1.867 1.729v4.32h-1.695V3.09zm10.712 3.74c0-1.56-.677-2.469-1.853-2.469-1.182 0-1.859.91-1.859 2.468 0 1.565.677 2.468 1.859 2.468 1.183 0 1.853-.903 1.853-2.468m-5.448 0c0-2.413 1.374-3.89 3.595-3.89 2.229 0 3.596 1.47 3.596 3.89 0 2.427-1.36 3.89-3.596 3.89-2.242 0-3.595-1.463-3.595-3.89m11.129-5.571v1.88h1.6V4.49h-1.6v3.67c0 .74.314 1.068 1.025 1.068.24 0 .37-.014.575-.034v1.326a4.792 4.792 0 0 1-.89.082c-1.715 0-2.398-.581-2.398-2.031V4.49h-1.183V3.138h1.183v-1.88h1.688zm4.566 4.846h3.521c-.035-1.107-.705-1.817-1.723-1.817-1.012 0-1.723.724-1.798 1.817zm5.141 2.407c-.322 1.36-1.559 2.208-3.323 2.208-2.2 0-3.527-1.457-3.527-3.862 0-2.407 1.347-3.918 3.514-3.918 2.133 0 3.411 1.415 3.411 3.774v.546h-5.223v.09c.041 1.243.76 2.024 1.873 2.024.841 0 1.422-.308 1.668-.862h1.607zm6.624-2.905c-.157-.726-.718-1.244-1.647-1.244-1.163 0-1.853.894-1.853 2.447 0 1.571.697 2.487 1.853 2.487.88 0 1.469-.416 1.647-1.195h1.613c-.184 1.565-1.36 2.617-3.254 2.617-2.25 0-3.575-1.448-3.575-3.91 0-2.426 1.32-3.869 3.569-3.869 1.92 0 3.083 1.095 3.26 2.667H86.01zm5.557-4.348v1.88h1.6V4.49h-1.6v3.67c0 .74.314 1.068 1.025 1.068.24 0 .37-.014.575-.034v1.326a4.792 4.792 0 0 1-.889.082c-1.716 0-2.399-.581-2.399-2.031V4.49h-1.183V3.138h1.183v-1.88h1.688z" fill="#1C71A5"/><mask id="c" fill="#fff"><use xlink:href="#b"/></mask><path d="M94.883 10.569h1.688V3.09h-1.688v7.479zM94.678.937c0-.54.43-.937 1.046-.937.622 0 1.046.397 1.046.937s-.424.936-1.046.936c-.616 0-1.046-.396-1.046-.936zm9.072 5.893c0-1.56-.677-2.469-1.853-2.469-1.184 0-1.86.91-1.86 2.468 0 1.565.676 2.468 1.86 2.468 1.182 0 1.852-.903 1.852-2.468m-5.448 0c0-2.413 1.373-3.89 3.596-3.89 2.228 0 3.596 1.47 3.596 3.89 0 2.427-1.36 3.89-3.596 3.89-2.243 0-3.597-1.463-3.597-3.89m8.902-3.739h1.634v1.196h.116c.355-.834 1.107-1.346 2.222-1.346 1.668 0 2.577 1.004 2.577 2.789v4.84h-1.695V6.132c0-1.142-.48-1.716-1.511-1.716-1.012 0-1.648.697-1.648 1.798v4.355h-1.695v-7.48zM4.86 26.835c-3.035 0-4.86-1.962-4.86-5.209 0-3.206 1.832-5.188 4.792-5.188 2.406 0 4.197 1.401 4.443 3.486H6.76c-.246-.868-.984-1.395-1.968-1.395-1.402 0-2.236 1.149-2.236 3.07 0 1.955.923 3.144 2.36 3.144 1.14 0 1.933-.67 1.995-1.668l.007-.164H5.113v-1.722h4.225v1.271c0 2.714-1.689 4.375-4.478 4.375m9.24-4.238h2.27l-1.06-3.671h-.13l-1.08 3.67zm2.742 1.805h-3.22l-.635 2.167h-2.49l3.31-9.865h3.069l3.316 9.865h-2.735l-.615-2.167zm7.469-1.504c0 1.148.63 1.825 1.744 1.825 1.114 0 1.736-.677 1.736-1.825v-6.194h2.508v6.46c0 2.214-1.68 3.671-4.244 3.671s-4.253-1.457-4.253-3.67v-6.46h2.51v6.193zm11.039-1.552h1.483c.923 0 1.47-.513 1.47-1.367 0-.841-.581-1.381-1.476-1.381H35.35v2.748zm0 5.223h-2.51v-9.865h4.342c2.304 0 3.685 1.217 3.685 3.254 0 1.21-.602 2.318-1.682 2.789l1.969 3.822h-2.817l-1.688-3.452h-1.3v3.452zm10.662-3.972h2.27l-1.06-3.671h-.13l-1.08 3.67zm2.74 1.805h-3.22l-.634 2.167h-2.49l3.31-9.865h3.069l3.316 9.865h-2.735l-.615-2.167zm5.215 2.166v-9.864h2.003l4.108 5.551h.13v-5.55h2.379v9.863h-1.99l-4.121-5.605h-.13v5.605zm13.458 0V18.72H64.58v-2.016h8.197v2.016h-2.851v7.848zm14.107 0h-6.76v-9.864h6.76v2.016H77.28v1.97h4v1.845h-4v2.016h4.252zm9.111 0h-6.761v-9.864h6.76v2.016h-4.251v1.97h3.999v1.845h-4v2.016h4.253z" fill="#1C71A5" mask="url(#c)"/></g></g></svg>