<?xml version="1.0" encoding="UTF-8"?>
<svg width="64px" height="64px" viewBox="0 0 64 64" version="1.1" xmlns="http://www.w3.org/2000/svg" xmlns:xlink="http://www.w3.org/1999/xlink">
    <!-- Generator: Sketch 52.2 (67145) - http://www.bohemiancoding.com/sketch -->
    <title>Languages</title>
    <desc>Created with Sketch.</desc>
    <defs>
        <path d="M0,28 C0,43.464 12.536,56 28,56 C43.464,56 56,43.464 56,28 C56,12.536 43.464,0 28,0 C12.536,0 0,12.536 0,28" id="path-1"></path>
        <linearGradient x1="67.1056611%" y1="96.9974177%" x2="32.8943387%" y2="3.00258232%" id="linearGradient-3">
            <stop stop-color="#3F42A8" offset="0%"></stop>
            <stop stop-color="#26D6FB" offset="100%"></stop>
        </linearGradient>
        <path d="M0,18 C0,27.941 8.059,36 18,36 C27.941,36 36,27.941 36,18 C36,8.059 27.941,0 18,0 C8.059,0 0,8.059 0,18" id="path-4"></path>
        <linearGradient x1="72.0616341%" y1="104.78076%" x2="22.0844139%" y2="-3.10667125%" id="linearGradient-6">
            <stop stop-color="#8CBCF4" offset="0%"></stop>
            <stop stop-color="#BADDF6" offset="100%"></stop>
        </linearGradient>
    </defs>
    <g id="Languages" stroke="none" stroke-width="1" fill="none" fill-rule="evenodd">
        <g id="Group-16">
            <polygon id="Fill-1" points="0 64 64 64 64 0 0 0"></polygon>
            <polygon id="Fill-2" points="4 60 60 60 60 4 4 4"></polygon>
            <g id="Group-5" transform="translate(4.000000, 4.000000)">
                <mask id="mask-2" fill="white">
                    <use xlink:href="#path-1"></use>
                </mask>
                <g id="Clip-4"></g>
                <path d="M0,28 C0,43.464 12.536,56 28,56 C43.464,56 56,43.464 56,28 C56,12.536 43.464,0 28,0 C12.536,0 0,12.536 0,28" id="Fill-3" fill="url(#linearGradient-3)" mask="url(#mask-2)"></path>
            </g>
            <g id="Group-10" transform="translate(7.000000, 4.000000)">
                <path d="M37.2983,37.0732 C33.5113,36.3832 29.3583,36.0002 25.0003,36.0002 C20.6413,36.0002 16.4883,36.3832 12.7013,37.0732 C12.2493,34.2262 12.0003,31.1772 12.0003,28.0002 C12.0003,24.8232 12.2493,21.7732 12.7013,18.9272 C16.4883,19.6172 20.6413,20.0002 25.0003,20.0002 C29.3583,20.0002 33.5113,19.6172 37.2983,18.9272 C37.7513,21.7732 38.0003,24.8232 38.0003,28.0002 C38.0003,31.1772 37.7513,34.2262 37.2983,37.0732 M48.7343,13.1492 C48.1353,13.4652 47.5003,13.7712 46.8253,14.0672 C44.4783,15.0942 41.7993,15.9242 38.9053,16.5592 C37.4883,9.5012 34.7793,3.8662 31.3373,0.7282 C29.2993,0.2582 27.1803,0.0002 25.0003,0.0002 C30.3603,0.0002 34.9603,6.9872 36.9493,16.9632 C33.2223,17.6412 29.1793,18.0002 25.0003,18.0002 C20.8203,18.0002 16.7773,17.6412 13.0503,16.9632 C15.0393,6.9872 19.6403,0.0002 25.0003,0.0002 C22.8193,0.0002 20.7003,0.2582 18.6633,0.7282 C15.2203,3.8662 12.5113,9.5012 11.0943,16.5592 C8.2003,15.9242 5.5213,15.0942 3.1743,14.0672 C2.4993,13.7712 1.8643,13.4652 1.2663,13.1492 C0.9143,13.7112 0.5793,14.2852 0.2673,14.8732 C3.1193,16.3922 6.6793,17.6462 10.7383,18.5322 C10.2603,21.4982 10.0003,24.6762 10.0003,28.0002 C10.0003,31.3242 10.2603,34.5022 10.7383,37.4682 C6.6793,38.3532 3.1193,39.6082 0.2673,41.1272 C0.5793,41.7152 0.9143,42.2892 1.2663,42.8502 C1.8643,42.5352 2.4993,42.2282 3.1743,41.9322 C5.5213,40.9062 8.2003,40.0762 11.0943,39.4402 C12.5113,46.4992 15.2203,52.1342 18.6633,55.2712 C20.7003,55.7422 22.8193,56.0002 25.0003,56.0002 C19.6403,56.0002 15.0393,49.0122 13.0503,39.0372 C16.7773,38.3582 20.8203,38.0002 25.0003,38.0002 C29.1793,38.0002 33.2223,38.3582 36.9493,39.0372 C34.9603,49.0122 30.3603,56.0002 25.0003,56.0002 C27.1803,56.0002 29.2993,55.7422 31.3373,55.2712 C34.7793,52.1342 37.4883,46.4992 38.9053,39.4402 C41.7993,40.0762 44.4783,40.9062 46.8253,41.9322 C47.5003,42.2282 48.1353,42.5352 48.7333,42.8502 C49.0863,42.2892 49.4203,41.7152 49.7333,41.1272 C46.8813,39.6082 43.3203,38.3532 39.2613,37.4682 C39.7393,34.5022 40.0003,31.3242 40.0003,28.0002 C40.0003,24.6762 39.7393,21.4982 39.2613,18.5322 C43.3203,17.6462 46.8813,16.3922 49.7333,14.8732 C49.4203,14.2852 49.0863,13.7112 48.7343,13.1492" id="Fill-6" fill="#FFFFFF" opacity="0.5"></path>
                <path d="M25.2798,55.9932 C39.9078,55.8482 51.8438,44.4912 52.9128,30.1022 C49.5198,26.9472 44.9878,25.0002 39.9998,25.0002 C29.5238,25.0002 20.9998,33.5232 20.9998,44.0002 C20.9998,48.5452 22.6078,52.7202 25.2798,55.9932" id="Fill-8" fill="#000000" opacity="0.15"></path>
            </g>
            <g id="Group-13" transform="translate(28.000000, 28.000000)">
                <mask id="mask-5" fill="white">
                    <use xlink:href="#path-4"></use>
                </mask>
                <g id="Clip-12"></g>
                <path d="M0,18 C0,27.941 8.059,36 18,36 C27.941,36 36,27.941 36,18 C36,8.059 27.941,0 18,0 C8.059,0 0,8.059 0,18" id="Fill-11" fill="url(#linearGradient-6)" mask="url(#mask-5)"></path>
            </g>
            <path d="M39.979,40.9785 C38.999,40.9785 37.758,41.0185 36.718,41.0985 L36.718,37.9175 C37.698,38.0175 38.719,38.0575 39.879,38.0575 L52.021,38.0575 C53.362,38.0575 54.442,38.0175 55.162,37.9175 L55.162,41.0985 C54.122,41.0185 53.082,40.9785 52.122,40.9785 L48.921,40.9785 C48.5,41.7785 48.301,42.1185 47.46,43.2985 L47.46,44.9995 L48.721,43.4785 C50.721,45.7995 53.142,47.6395 55.662,48.7405 C54.942,49.7005 54.422,50.5605 53.862,51.7605 C51.161,50.1605 49.281,48.6605 47.46,46.6395 L47.46,53.2015 C47.46,54.3215 47.5,55.2215 47.601,56.0825 L44.14,56.0825 C44.24,55.2215 44.28,54.3005 44.28,53.2015 L44.28,47.8395 L44.28,47.2795 L44.28,46.8795 C43.64,47.7005 42.739,48.5405 41.479,49.4995 C40.479,50.2805 39.519,50.9205 38.119,51.7205 C37.718,50.7005 37.178,49.8395 36.338,48.8605 C38.099,47.9795 39.039,47.3995 40.419,46.2995 C42.659,44.5395 43.979,43.0795 45.24,40.9785 L39.979,40.9785 Z" id="Fill-14" fill="#FFFFFF"></path>
        </g>
    </g>
</svg>