<?xml version="1.0" encoding="UTF-8"?>
<svg width="40px" height="40px" viewBox="0 0 40 40" version="1.1" xmlns="http://www.w3.org/2000/svg" xmlns:xlink="http://www.w3.org/1999/xlink">
    <!-- Generator: Sketch 52.4 (67378) - http://www.bohemiancoding.com/sketch -->
    <title>30 Day Money-Back</title>
    <desc>Created with Sketch.</desc>
    <defs>
        <linearGradient x1="12.5%" y1="12.5%" x2="87.5%" y2="87.5%" id="linearGradient-1">
            <stop stop-color="#FFE164" offset="0%"></stop>
            <stop stop-color="#FFBF34" offset="100%"></stop>
        </linearGradient>
    </defs>
    <g id="30-Day-Money-Back" stroke="none" stroke-width="1" fill="none" fill-rule="evenodd">
        <g>
            <rect id="Rectangle" x="0" y="0" width="40" height="40"></rect>
            <circle id="Oval" fill="#303A4C" cx="20" cy="20" r="20"></circle>
            <g id="Group-14" transform="translate(4.000000, 4.000000)">
                <path d="M32,16 C32,24.8362667 24.8362667,32 16,32 C7.16266667,32 0,24.8362667 0,16 C0,7.16373333 7.16266667,0 16,0 C24.8362667,0 32,7.16373333 32,16" id="Fill-2" fill="url(#linearGradient-1)"></path>
                <path d="M7.0005,15.3947 L8.3065,13.6377 C9.0415,14.3427 10.1685,14.6887 11.0385,14.6887 C12.1495,14.6887 12.7215,14.2677 12.7215,13.7127 C12.7215,13.1417 12.3005,12.8577 10.9355,12.8577 C10.4985,12.8577 9.7325,12.8727 9.5825,12.8867 L9.5825,10.5897 C9.7785,10.6047 10.5595,10.6047 10.9355,10.6047 C11.9705,10.6047 12.5565,10.3487 12.5565,9.8247 C12.5565,9.1927 11.8355,8.9087 10.8745,8.9087 C9.9585,8.9087 9.0875,9.2387 8.3815,9.8697 L7.1355,8.2477 C7.9915,7.3007 9.2975,6.6257 11.1445,6.6257 C13.6965,6.6257 15.1235,7.7217 15.1235,9.3737 C15.1235,10.5447 14.1165,11.4307 12.9315,11.6257 C13.9965,11.7307 15.2885,12.5567 15.2885,13.9987 C15.2885,15.7547 13.6375,16.9707 11.1445,16.9707 C9.2225,16.9707 7.7965,16.2947 7.0005,15.3947" id="Fill-4" fill="#303A4C"></path>
                <path d="M22.3872,11.7912 C22.3872,10.0202 21.9072,8.9082 20.7052,8.9082 C19.5042,8.9082 19.0242,10.0202 19.0242,11.7912 C19.0242,13.5622 19.5042,14.6882 20.7052,14.6882 C21.9072,14.6882 22.3872,13.5622 22.3872,11.7912 M16.4102,11.7912 C16.4102,9.1472 17.7782,6.6262 20.7052,6.6262 C23.6332,6.6262 25.0002,9.1472 25.0002,11.7912 C25.0002,14.4342 23.6332,16.9712 20.7052,16.9712 C17.7782,16.9712 16.4102,14.4342 16.4102,11.7912" id="Fill-6" fill="#303A4C"></path>
                <path d="M11.9653,22.134 C11.9653,21.089 11.3223,20.277 10.1083,20.277 L9.0193,20.277 L9.0193,24.001 L10.0993,24.001 C11.2783,24.001 11.9653,23.152 11.9653,22.134 Z M7.7503,25.117 L7.7503,19.16 L10.0993,19.16 C11.9653,19.16 13.2603,20.348 13.2603,22.134 C13.2603,23.938 11.9653,25.117 10.1083,25.117 L7.7503,25.117 Z" id="Fill-8" fill="#303A4C"></path>
                <path d="M16.4614,20.4279 L15.5324,22.9909 L17.3914,22.9909 L16.4614,20.4279 Z M18.1134,25.1169 L17.7384,24.1089 L15.1854,24.1089 L14.8104,25.1169 L13.3714,25.1169 L15.6664,19.1599 L17.2564,19.1599 L19.5514,25.1169 L18.1134,25.1169 Z" id="Fill-10" fill="#303A4C"></path>
                <polygon id="Fill-12" fill="#303A4C" points="21.3042 25.1174 21.3042 22.6794 19.0182 19.1604 20.4652 19.1604 21.9392 21.5444 23.4112 19.1604 24.8502 19.1604 22.5732 22.6794 22.5732 25.1174"></polygon>
            </g>
        </g>
    </g>
</svg>