<?xml version="1.0" encoding="UTF-8"?>
<svg width="256px" height="256px" viewBox="0 0 256 256" version="1.1" xmlns="http://www.w3.org/2000/svg" xmlns:xlink="http://www.w3.org/1999/xlink">
    <!-- Generator: Sketch 52.3 (67297) - http://www.bohemiancoding.com/sketch -->
    <title>Security</title>
    <desc>Created with Sketch.</desc>
    <defs>
        <path d="M96.845,2.734 C73.718,24.843 45.994,34.863 9.396,34.863 L7.882,34.885 C3.511,34.948 0,38.511 0,42.884 L0,63 C0,124 0.495,205.972 103,241 C205.505,205.972 206,124 206,63 L206,42.884 C206,38.511 202.489,34.948 198.117,34.885 L196.603,34.863 C160.006,34.863 132.281,24.843 109.155,2.734 L109.155,2.733 C107.421,1.119 105.211,0.311 103.001,0.311 C100.79,0.311 98.579,1.119 96.845,2.734" id="path-1"></path>
        <linearGradient x1="74.5403549%" y1="92.3747627%" x2="36.890941%" y2="3.84214501%" id="linearGradient-3">
            <stop stop-color="#3F42A8" offset="0%"></stop>
            <stop stop-color="#26D6FB" offset="100%"></stop>
        </linearGradient>
        <path d="M96.845,2.734 C73.718,24.843 45.994,34.863 9.396,34.863 L7.882,34.885 C3.511,34.948 0,38.511 0,42.884 L0,63 C0,124 0.495,205.972 103,241 C205.505,205.972 206,124 206,63 L206,42.884 C206,38.511 202.489,34.948 198.117,34.885 L196.603,34.863 C160.006,34.863 132.281,24.843 109.155,2.734 L109.155,2.733 C107.421,1.119 105.211,0.311 103.001,0.311 C100.79,0.311 98.579,1.119 96.845,2.734" id="path-4"></path>
        <path d="M85.063,1.845 L36.98,49.928 L12.938,25.887 C11.375,24.324 8.843,24.324 7.28,25.887 L1.624,31.543 C0.062,33.106 0.062,35.637 1.624,37.2 L34.151,69.728 C35.713,71.289 38.245,71.289 39.807,69.728 L96.376,13.158 C97.938,11.597 97.938,9.063 96.376,7.502 L90.719,1.845 C89.938,1.064 88.915,0.674 87.891,0.674 C86.868,0.674 85.844,1.064 85.063,1.845" id="path-6"></path>
        <linearGradient x1="91.1596622%" y1="60.1218036%" x2="3.77565982%" y2="27.7481983%" id="linearGradient-8">
            <stop stop-color="#E8EBF4" offset="0%"></stop>
            <stop stop-color="#FFFFFF" offset="100%"></stop>
        </linearGradient>
    </defs>
    <g id="Security" stroke="none" stroke-width="1" fill="none" fill-rule="evenodd">
        <polygon id="Fill-1" points="0 256 256 256 256 0 0 0"></polygon>
        <polygon id="Fill-2" points="12 244 244 244 244 12 12 12"></polygon>
        <g transform="translate(25.000000, 2.000000)">
            <g id="Group-5" transform="translate(0.000000, 1.000000)">
                <mask id="mask-2" fill="white">
                    <use xlink:href="#path-1"></use>
                </mask>
                <g id="Clip-4"></g>
                <path d="M96.845,2.734 C73.718,24.843 45.994,34.863 9.396,34.863 L7.882,34.885 C3.511,34.948 0,38.511 0,42.884 L0,63 C0,124 0.495,205.972 103,241 C205.505,205.972 206,124 206,63 L206,42.884 C206,38.511 202.489,34.948 198.117,34.885 L196.603,34.863 C160.006,34.863 132.281,24.843 109.155,2.734 L109.155,2.733 C107.421,1.119 105.211,0.311 103.001,0.311 C100.79,0.311 98.579,1.119 96.845,2.734" id="Fill-3" fill="url(#linearGradient-3)" mask="url(#mask-2)"></path>
            </g>
            <g id="Group-8" transform="translate(0.000000, 1.000000)">
                <mask id="mask-5" fill="white">
                    <use xlink:href="#path-4"></use>
                </mask>
                <g id="Clip-7"></g>
                <path d="M96.845,2.734 C73.718,24.843 45.994,34.863 9.396,34.863 L7.882,34.885 C3.511,34.948 0,38.511 0,42.884 L0,63 C0,124 0.495,205.972 103,241 C205.505,205.972 206,124 206,63 L206,42.884 C206,38.511 202.489,34.948 198.117,34.885 L196.603,34.863 C160.006,34.863 132.281,24.843 109.155,2.734 L109.155,2.733 C107.421,1.119 105.211,0.311 103.001,0.311 C100.79,0.311 98.579,1.119 96.845,2.734" id="Fill-6" fill="url(#linearGradient-3)" mask="url(#mask-5)"></path>
            </g>
            <g id="Group-13">
                <path d="M96.8447,3.7344 C73.7187,25.8424 45.9937,35.8624 9.3967,35.8624 L7.8827,35.8844 C3.5107,35.9484 -0.0003,39.5104 -0.0003,43.8834 L-0.0003,64.0004 C-0.0003,125.0004 0.4947,206.9724 102.9997,242.0004 C205.5047,206.9724 205.9997,125.0004 205.9997,64.0004 L205.9997,43.8834 C205.9997,39.5104 202.4897,35.9484 198.1167,35.8844 L196.6037,35.8624 C160.0057,35.8624 132.2817,25.8424 109.1557,3.7344 L108.4527,3.0794 C105.3807,0.2174 100.6187,0.2174 97.5467,3.0804 L96.8447,3.7344 Z M102.9997,14.4094 C127.3167,36.7064 156.3707,47.3794 193.9997,47.8454 L193.9997,64.0004 C193.9997,92.3494 193.9997,127.6314 181.7897,158.3004 C168.5447,191.5724 142.7487,214.8214 102.9997,229.2764 C63.2507,214.8214 37.4547,191.5724 24.2097,158.3004 C11.9997,127.6314 11.9997,92.3494 11.9997,64.0004 L11.9997,47.8454 C49.6287,47.3794 78.6837,36.7064 102.9997,14.4094 Z" id="Fill-9" fill="#E9EBF4" opacity="0.25"></path>
                <path d="M161.4561,104.3789 C161.3321,103.7329 161.0851,103.1289 160.7231,102.5789 C160.5381,102.2999 160.3231,102.0369 160.0831,101.7969 L154.4271,96.1399 C154.1881,95.9009 153.9251,95.6859 153.6431,95.4989 C151.9711,94.3959 149.8111,94.3949 148.1381,95.4999 C147.8581,95.6849 147.5961,95.8999 147.3551,96.1399 L99.9791,143.5159 L76.6441,120.1819 C76.4041,119.9419 76.1421,119.7269 75.8611,119.5409 C74.1891,118.4379 72.0301,118.4369 70.3561,119.5419 C70.0751,119.7279 69.8111,119.9429 69.5731,120.1819 L63.9171,125.8379 C63.6791,126.0759 63.4631,126.3399 63.2771,126.6209 C62.9161,127.1689 62.6691,127.7739 62.5441,128.4189 C62.2271,130.0549 62.7401,131.7329 63.9171,132.9089 L96.4441,165.4379 C96.9221,165.9139 97.4771,166.2819 98.0991,166.5339 C98.3971,166.6549 98.7091,166.7479 99.0251,166.8089 C99.3401,166.8699 99.6601,166.8999 99.9791,166.8999 C101.3141,166.8999 102.5691,166.3809 103.5151,165.4369 L160.0831,108.8669 C161.2601,107.6919 161.7731,106.0139 161.4561,104.3789" id="Fill-11" fill="#000000" opacity="0.15"></path>
            </g>
            <g id="Group-16" transform="translate(62.000000, 91.000000)">
                <mask id="mask-7" fill="white">
                    <use xlink:href="#path-6"></use>
                </mask>
                <g id="Clip-15"></g>
                <path d="M85.063,1.845 L36.98,49.928 L12.938,25.887 C11.375,24.324 8.843,24.324 7.28,25.887 L1.624,31.543 C0.062,33.106 0.062,35.637 1.624,37.2 L34.151,69.728 C35.713,71.289 38.245,71.289 39.807,69.728 L96.376,13.158 C97.938,11.597 97.938,9.063 96.376,7.502 L90.719,1.845 C89.938,1.064 88.915,0.674 87.891,0.674 C86.868,0.674 85.844,1.064 85.063,1.845" id="Fill-14" fill="url(#linearGradient-8)" mask="url(#mask-7)"></path>
            </g>
        </g>
    </g>
</svg>