<?xml version="1.0" encoding="UTF-8"?>
<svg width="256px" height="256px" viewBox="0 0 256 256" version="1.1" xmlns="http://www.w3.org/2000/svg" xmlns:xlink="http://www.w3.org/1999/xlink">
    <!-- Generator: Sketch 52.2 (67145) - http://www.bohemiancoding.com/sketch -->
    <title>App Security Tracker</title>
    <desc>Created with Sketch.</desc>
    <defs>
        <path d="M0,110 C0,170.751 49.249,220 110,220 C170.751,220 220,170.751 220,110 C220,49.249 170.751,0 110,0 C49.249,0 0,49.249 0,110" id="path-1"></path>
        <linearGradient x1="67.1056643%" y1="96.997418%" x2="32.8943391%" y2="3.00258373%" id="linearGradient-3">
            <stop stop-color="#FB215B" offset="0%"></stop>
            <stop stop-color="#FDBC2B" offset="100%"></stop>
        </linearGradient>
        <polygon id="path-4" points="0 256 256 256 256 0 0 0"></polygon>
    </defs>
    <g id="App-Security-Tracker" stroke="none" stroke-width="1" fill="none" fill-rule="evenodd">
        <g id="Group-18">
            <polygon id="Fill-1" points="0 256 256 256 256 0 0 0"></polygon>
            <polygon id="Fill-2" points="12 244 244 244 244 12 12 12"></polygon>
            <g id="Group-5" transform="translate(18.000000, 18.000000)">
                <mask id="mask-2" fill="white">
                    <use xlink:href="#path-1"></use>
                </mask>
                <g id="Clip-4"></g>
                <path d="M0,110 C0,170.751 49.249,220 110,220 C170.751,220 220,170.751 220,110 C220,49.249 170.751,0 110,0 C49.249,0 0,49.249 0,110" id="Fill-3" fill="url(#linearGradient-3)" mask="url(#mask-2)"></path>
            </g>
            <g id="Group-17">
                <path d="M128,12 C63.935,12 12,63.935 12,128 C12,192.065 63.935,244 128,244 C192.065,244 244,192.065 244,128 C244,63.935 192.065,12 128,12 M128,24 C185.346,24 232,70.654 232,128 C232,185.346 185.346,232 128,232 C70.654,232 24,185.346 24,128 C24,70.654 70.654,24 128,24" id="Fill-6" fill="#232D40"></path>
                <path d="M128,64 C92.653,64 64,92.653 64,128 C64,163.346 92.653,192 128,192 C163.347,192 192,163.346 192,128 C192,92.653 163.347,64 128,64 M128,76 C156.673,76 180,99.327 180,128 C180,156.673 156.673,180 128,180 C99.327,180 76,156.673 76,128 C76,99.327 99.327,76 128,76" id="Fill-8" fill="#232D40"></path>
                <path d="M128,110 C118.059,110 110,118.059 110,128 C110,137.941 118.059,146 128,146 C137.941,146 146,137.941 146,128 C146,118.059 137.941,110 128,110 M128,122 C131.309,122 134,124.691 134,128 C134,131.309 131.309,134 128,134 C124.691,134 122,131.309 122,128 C122,124.691 124.691,122 128,122" id="Fill-10" fill="#232D40"></path>
                <mask id="mask-5" fill="white">
                    <use xlink:href="#path-4"></use>
                </mask>
                <g id="Clip-13"></g>
                <polygon id="Fill-12" fill="#232D40" mask="url(#mask-5)" points="220 134 256 134 256 122 220 122"></polygon>
                <polygon id="Fill-14" fill="#232D40" mask="url(#mask-5)" points="0 134 36 134 36 122 0 122"></polygon>
                <polygon id="Fill-15" fill="#232D40" mask="url(#mask-5)" points="122 256 134 256 134 220 122 220"></polygon>
                <polygon id="Fill-16" fill="#232D40" mask="url(#mask-5)" points="122 36 134 36 134 0 122 0"></polygon>
            </g>
        </g>
    </g>
</svg>