<?xml version="1.0" encoding="UTF-8"?>
<svg width="256px" height="256px" viewBox="0 0 256 256" version="1.1" xmlns="http://www.w3.org/2000/svg" xmlns:xlink="http://www.w3.org/1999/xlink">
    <!-- Generator: Sketch 52.2 (67145) - http://www.bohemiancoding.com/sketch -->
    <title>Firewall</title>
    <desc>Created with Sketch.</desc>
    <defs>
        <path d="M98.91,1.809 L96.845,3.734 C73.718,25.843 45.994,35.863 9.396,35.863 L5.912,35.913 C2.633,35.961 0,38.633 0,41.912 L0,64 C0,125 0.495,206.972 103,242 C205.505,206.972 206,125 206,64 L206,41.912 C206,38.633 203.367,35.961 200.088,35.913 L196.603,35.863 C160.006,35.863 132.281,25.843 109.155,3.734 L107.089,1.809 C105.937,0.736 104.469,0.199 103,0.199 C101.531,0.199 100.062,0.736 98.91,1.809" id="path-1"></path>
        <linearGradient x1="74.6664695%" y1="92.3707238%" x2="36.8741341%" y2="3.9107148%" id="linearGradient-3">
            <stop stop-color="#3FC350" offset="0%"></stop>
            <stop stop-color="#49E4C6" offset="100%"></stop>
        </linearGradient>
    </defs>
    <g id="Firewall" stroke="none" stroke-width="1" fill="none" fill-rule="evenodd">
        <g id="Group-8">
            <polygon id="Fill-1" points="0 256 256 256 256 0 0 0"></polygon>
            <polygon id="Fill-2" points="12 244 244 244 244 12 12 12"></polygon>
            <g id="Group-5" transform="translate(25.000000, 2.000000)">
                <mask id="mask-2" fill="white">
                    <use xlink:href="#path-1"></use>
                </mask>
                <g id="Clip-4"></g>
                <path d="M98.91,1.809 L96.845,3.734 C73.718,25.843 45.994,35.863 9.396,35.863 L5.912,35.913 C2.633,35.961 0,38.633 0,41.912 L0,64 C0,125 0.495,206.972 103,242 C205.505,206.972 206,125 206,64 L206,41.912 C206,38.633 203.367,35.961 200.088,35.913 L196.603,35.863 C160.006,35.863 132.281,25.843 109.155,3.734 L107.089,1.809 C105.937,0.736 104.469,0.199 103,0.199 C101.531,0.199 100.062,0.736 98.91,1.809" id="Fill-3" fill="url(#linearGradient-3)" mask="url(#mask-2)"></path>
            </g>
            <path d="M128,231.2764 L128,128.0004 L40.534,128.0004 C37.003,106.5274 37,84.7484 37,66.0004 L37,49.8454 C74.629,49.3794 103.684,38.7064 128,16.4094 L128,128.0004 L215.466,128.0004 C213.657,138.9974 210.926,149.9144 206.79,160.3004 C193.545,193.5724 167.748,216.8214 128,231.2764 M225.088,37.9134 L221.604,37.8624 C185.006,37.8624 157.281,27.8424 134.155,5.7344 L132.09,3.8094 C129.785,1.6634 126.214,1.6634 123.91,3.8094 L121.845,5.7344 C98.719,27.8424 70.994,37.8624 34.396,37.8624 L30.912,37.9134 C27.633,37.9614 25,40.6324 25,43.9124 L25,66.0004 C25,127.0004 25.495,208.9724 128,244.0004 C230.505,208.9724 231,127.0004 231,66.0004 L231,43.9124 C231,40.6324 228.367,37.9614 225.088,37.9134" id="Fill-6" fill="#FFFFFF" opacity="0.25"></path>
        </g>
    </g>
</svg>