<?xml version="1.0" encoding="UTF-8"?>
<svg width="256px" height="256px" viewBox="0 0 256 256" version="1.1" xmlns="http://www.w3.org/2000/svg" xmlns:xlink="http://www.w3.org/1999/xlink">
    <!-- Generator: Sketch 52.3 (67297) - http://www.bohemiancoding.com/sketch -->
    <title>System Junk</title>
    <desc>Created with Sketch.</desc>
    <defs>
        <path d="M0,0 L15.818,156.415 C17.057,168.672 27.375,178 39.695,178 L144.305,178 C156.624,178 166.944,168.672 168.183,156.415 L184,0 L0,0 Z" id="path-1"></path>
        <linearGradient x1="74.6323461%" y1="102.295367%" x2="34.0969998%" y2="-12.828622%" id="linearGradient-3">
            <stop stop-color="#217C41" offset="0%"></stop>
            <stop stop-color="#75BF54" offset="100%"></stop>
        </linearGradient>
        <path d="M0,6 L0,102 C0,105.313 2.687,108 6,108 C9.314,108 12,105.313 12,102 L12,6 C12,2.686 9.314,0 6,0 C2.687,0 0,2.686 0,6" id="path-4"></path>
        <linearGradient x1="0%" y1="50%" x2="100%" y2="50%" id="linearGradient-6">
            <stop stop-color="#E8EBF4" offset="0%"></stop>
            <stop stop-color="#FFFFFF" offset="100%"></stop>
        </linearGradient>
        <path d="M5.75,0.005 C2.439,0.144 -0.133,2.938 0.006,6.25 L4.005,102.25 C4.139,105.476 6.797,108 9.995,108 C10.079,108 10.165,107.998 10.25,107.995 C13.56,107.857 16.133,105.061 15.995,101.75 L11.994,5.75 C11.86,2.517 9.195,8.67361738e-19 5.983,0.001 C5.906,0.001 5.828,0.002 5.75,0.005" id="path-7"></path>
        <linearGradient x1="-0.00354840224%" y1="49.9997632%" x2="99.9977697%" y2="49.9997632%" id="linearGradient-9">
            <stop stop-color="#E8EBF4" offset="0%"></stop>
            <stop stop-color="#FFFFFF" offset="100%"></stop>
        </linearGradient>
        <path d="M4.005,5.75 L0.006,101.75 C-0.133,105.061 2.439,107.857 5.75,107.995 C5.836,107.998 5.919,108 6.004,108 C9.203,108 11.86,105.476 11.994,102.25 L15.995,6.25 C16.133,2.938 13.561,0.144 10.25,0.005 C10.166,0.002 10.082,0 9.998,0 C6.783,0 4.139,2.523 4.005,5.75" id="path-10"></path>
        <linearGradient x1="-0.00350090087%" y1="49.9998799%" x2="99.9978051%" y2="49.9998799%" id="linearGradient-12">
            <stop stop-color="#E8EBF4" offset="0%"></stop>
            <stop stop-color="#FFFFFF" offset="100%"></stop>
        </linearGradient>
    </defs>
    <g id="System-Junk" stroke="none" stroke-width="1" fill="none" fill-rule="evenodd">
        <polygon id="Fill-1" points="0 256.198 256 256.198 256 0.198 0 0.198"></polygon>
        <polygon id="Fill-2" points="12 244.198 244 244.198 244 12.198 12 12.198"></polygon>
        <g id="Group-17" transform="translate(37.000000, -1.000000)">
            <path d="M129.3237,92.1973 L75.5297,87.4913 C74.4287,87.3943 73.6157,86.4253 73.7117,85.3243 L80.5097,7.6213 C80.6057,6.5203 81.5757,5.7073 82.6767,5.8023 L136.4707,10.5093 C137.5707,10.6053 138.3847,11.5753 138.2887,12.6763 L131.4907,90.3793 C131.3947,91.4793 130.4247,92.2933 129.3237,92.1973" id="Fill-3" fill="#3896FC"></path>
            <path d="M95.1377,85.3643 L41.4337,91.0093 C40.3347,91.1243 39.3507,90.3273 39.2357,89.2283 L31.0817,11.6563 C30.9667,10.5573 31.7637,9.5733 32.8627,9.4583 L86.5667,3.8133 C87.6647,3.6973 88.6487,4.4953 88.7647,5.5933 L96.9177,83.1663 C97.0337,84.2643 96.2367,85.2483 95.1377,85.3643" id="Fill-5" fill="#000000" opacity="0.15"></path>
            <path d="M91.1377,82.3643 L37.4337,88.0093 C36.3347,88.1243 35.3507,87.3273 35.2357,86.2283 L27.0817,8.6563 C26.9667,7.5573 27.7637,6.5733 28.8627,6.4583 L82.5667,0.8133 C83.6647,0.6973 84.6487,1.4953 84.7647,2.5933 L92.9177,80.1663 C93.0337,81.2643 92.2367,82.2483 91.1377,82.3643" id="Fill-7" fill="#FB535F"></path>
            <path d="M161.8857,115.7178 L109.0657,104.4898 C107.9857,104.2608 107.2957,103.1988 107.5257,102.1178 L123.7417,25.8228 C123.9717,24.7418 125.0337,24.0528 126.1147,24.2818 L178.9347,35.5098 C180.0147,35.7388 180.7047,36.8008 180.4747,37.8818 L164.2577,114.1768 C164.0287,115.2578 162.9667,115.9468 161.8857,115.7178" id="Fill-9" fill="#000000" opacity="0.15"></path>
            <path d="M165.8857,113.7178 L113.0657,102.4898 C111.9857,102.2608 111.2957,101.1988 111.5257,100.1178 L127.7417,23.8228 C127.9717,22.7418 129.0337,22.0528 130.1147,22.2818 L182.9347,33.5098 C184.0147,33.7388 184.7047,34.8008 184.4747,35.8818 L168.2577,112.1768 C168.0287,113.2578 166.9667,113.9468 165.8857,113.7178" id="Fill-11" fill="#9478FC"></path>
            <path d="M72.0815,105.2715 L18.7465,113.7185 C17.6555,113.8915 16.6305,113.1475 16.4575,112.0565 L4.2555,35.0165 C4.0835,33.9255 4.8275,32.9015 5.9185,32.7285 L59.2535,24.2815 C60.3445,24.1085 61.3695,24.8525 61.5415,25.9435 L73.7445,102.9835 C73.9165,104.0745 73.1725,105.0985 72.0815,105.2715" id="Fill-13" fill="#000000" opacity="0.15"></path>
            <path d="M68.0815,103.2715 L14.7465,111.7185 C13.6555,111.8915 12.6305,111.1475 12.4575,110.0565 L0.2555,33.0165 C0.0835,31.9255 0.8275,30.9015 1.9185,30.7285 L55.2535,22.2815 C56.3445,22.1085 57.3695,22.8525 57.5415,23.9435 L69.7445,100.9835 C69.9165,102.0745 69.1725,103.0985 68.0815,103.2715" id="Fill-15" fill="#FDBB4A"></path>
        </g>
        <g id="Group-20" transform="translate(36.000000, 66.000000)">
            <mask id="mask-2" fill="white">
                <use xlink:href="#path-1"></use>
            </mask>
            <g id="Clip-19"></g>
            <path d="M0,0 L15.818,156.415 C17.057,168.672 27.375,178 39.695,178 L144.305,178 C156.624,178 166.944,168.672 168.183,156.415 L184,0 L0,0 Z" id="Fill-18" fill="url(#linearGradient-3)" mask="url(#mask-2)"></path>
        </g>
        <g id="Group-30" transform="translate(32.000000, 54.000000)">
            <path d="M188,24 L4,24 C1.791,24 0,22.209 0,20 L0,4 C0,1.791 1.791,0 4,0 L188,0 C190.209,0 192,1.791 192,4 L192,20 C192,22.209 190.209,24 188,24" id="Fill-21" fill="#138E51"></path>
            <g id="Group-29" transform="translate(49.000000, 55.000000)" fill="#000000" opacity="0.15">
                <path d="M49,0 C45.14,0 42,3.141 42,7 L42,103 C42,106.859 45.14,110 49,110 C52.86,110 56,106.859 56,103 L56,7 C56,3.141 52.86,0 49,0" id="Fill-23"></path>
                <path d="M6.708,0.0059 C2.852,0.1669 -0.155,3.4359 0.006,7.2919 L4.006,103.2919 C4.163,107.0539 7.233,109.9999 10.996,109.9999 L11.292,109.9939 C15.148,109.8329 18.155,106.5649 17.994,102.7079 L13.994,6.7079 C13.834,2.8669 10.579,-0.1401 6.708,0.0059" id="Fill-25"></path>
                <path d="M91.2905,0.0059 C87.4495,-0.1551 84.1665,2.8549 84.0065,6.7079 L80.0065,102.7079 C79.8455,106.5649 82.8515,109.8329 86.7155,109.9939 L87.0045,109.9999 C90.7675,109.9999 93.8375,107.0539 93.9935,103.2919 L97.9935,7.2919 C98.1545,3.4359 95.1485,0.1669 91.2905,0.0059" id="Fill-27"></path>
            </g>
        </g>
        <g id="Group-33" transform="translate(122.000000, 107.000000)">
            <mask id="mask-5" fill="white">
                <use xlink:href="#path-4"></use>
            </mask>
            <g id="Clip-32"></g>
            <path d="M0,6 L0,102 C0,105.313 2.687,108 6,108 C9.314,108 12,105.313 12,102 L12,6 C12,2.686 9.314,0 6,0 C2.687,0 0,2.686 0,6" id="Fill-31" fill="url(#linearGradient-6)" mask="url(#mask-5)"></path>
        </g>
        <g id="Group-36" transform="translate(80.000000, 107.000000)">
            <mask id="mask-8" fill="white">
                <use xlink:href="#path-7"></use>
            </mask>
            <g id="Clip-35"></g>
            <path d="M5.75,0.005 C2.439,0.144 -0.133,2.938 0.006,6.25 L4.005,102.25 C4.139,105.476 6.797,108 9.995,108 C10.079,108 10.165,107.998 10.25,107.995 C13.56,107.857 16.133,105.061 15.995,101.75 L11.994,5.75 C11.86,2.517 9.195,8.67361738e-19 5.983,0.001 C5.906,0.001 5.828,0.002 5.75,0.005" id="Fill-34" fill="url(#linearGradient-9)" mask="url(#mask-8)"></path>
        </g>
        <g id="Group-39" transform="translate(160.000000, 107.000000)">
            <mask id="mask-11" fill="white">
                <use xlink:href="#path-10"></use>
            </mask>
            <g id="Clip-38"></g>
            <path d="M4.005,5.75 L0.006,101.75 C-0.133,105.061 2.439,107.857 5.75,107.995 C5.836,107.998 5.919,108 6.004,108 C9.203,108 11.86,105.476 11.994,102.25 L15.995,6.25 C16.133,2.938 13.561,0.144 10.25,0.005 C10.166,0.002 10.082,0 9.998,0 C6.783,0 4.139,2.523 4.005,5.75" id="Fill-37" fill="url(#linearGradient-12)" mask="url(#mask-11)"></path>
        </g>
    </g>
</svg>