<?xml version="1.0" encoding="UTF-8"?>
<svg width="256px" height="256px" viewBox="0 0 256 256" version="1.1" xmlns="http://www.w3.org/2000/svg" xmlns:xlink="http://www.w3.org/1999/xlink">
    <!-- Generator: Sketch 52.3 (67297) - http://www.bohemiancoding.com/sketch -->
    <title>Performance</title>
    <desc>Created with Sketch.</desc>
    <defs>
        <path d="M0,116 C0,180.066 51.935,232 116,232 C180.064,232 232,180.066 232,116 C232,51.935 180.064,0 116,0 C51.935,0 0,51.935 0,116" id="path-1"></path>
        <linearGradient x1="67.1056616%" y1="96.9974181%" x2="32.8943384%" y2="3.00258026%" id="linearGradient-3">
            <stop stop-color="#F9316E" offset="0%"></stop>
            <stop stop-color="#0097E8" offset="100%"></stop>
        </linearGradient>
        <path d="M67.423,1.245 L5.354,49.999 C4.922,50.34 4.499,50.702 4.101,51.1 C-1.367,56.568 -1.367,65.433 4.101,70.899 C9.568,76.367 18.432,76.367 23.9,70.899 C24.298,70.5 24.659,70.078 25,69.646 L73.754,7.577 C75.165,5.783 75.011,3.217 73.397,1.604 C72.522,0.728 71.367,0.283 70.207,0.282 C69.227,0.282 68.244,0.6 67.423,1.245 M9.757,65.242 C7.415,62.899 7.415,59.1 9.757,56.758 C12.101,54.414 15.9,54.414 18.242,56.758 C20.586,59.1 20.586,62.899 18.242,65.242 C17.071,66.414 15.536,67 14,67 C12.465,67 10.929,66.414 9.757,65.242" id="path-4"></path>
        <linearGradient x1="38.6108552%" y1="34.8908709%" x2="65.1091566%" y2="61.389158%" id="linearGradient-6">
            <stop stop-color="#E8EBF4" offset="0%"></stop>
            <stop stop-color="#FFFFFF" offset="100%"></stop>
        </linearGradient>
    </defs>
    <g id="Performance" stroke="none" stroke-width="1" fill="none" fill-rule="evenodd">
        <polygon id="Fill-1" points="0 256 256 256 256 0 0 0"></polygon>
        <polygon id="Fill-2" points="12 244 244 244 244 12 12 12"></polygon>
        <g transform="translate(12.000000, 12.000000)">
            <g id="Group-5">
                <mask id="mask-2" fill="white">
                    <use xlink:href="#path-1"></use>
                </mask>
                <g id="Clip-4"></g>
                <path d="M0,116 C0,180.066 51.935,232 116,232 C180.064,232 232,180.066 232,116 C232,51.935 180.064,0 116,0 C51.935,0 0,51.935 0,116" id="Fill-3" fill="url(#linearGradient-3)" mask="url(#mask-2)"></path>
            </g>
            <g id="Group-22" transform="translate(12.000000, 12.000000)">
                <path d="M200,104 C200,157.02 157.02,200 104,200 C50.98,200 8,157.02 8,104 C8,50.98 50.98,8 104,8 C157.02,8 200,50.98 200,104" id="Fill-6" fill="#232D40"></path>
                <path d="M208,104 C208,161.438 161.437,208 104,208 C46.563,208 0,161.438 0,104 C0,46.562 46.563,0 104,0 C161.437,0 208,46.562 208,104" id="Fill-8" fill="#232D40"></path>
                <path d="M157.1533,160.1533 L157.1533,160.1523 C154.9423,157.9423 154.8013,154.4073 156.8293,152.0283 C167.2953,139.7483 173.0003,124.3113 173.0003,108.0003 C173.0003,96.8743 170.2903,86.0033 165.1233,76.2443 C163.6573,73.4773 164.5443,70.0533 167.1823,68.3693 C170.1183,66.4943 174.0593,67.4863 175.6933,70.5623 C181.7983,82.0633 185.0003,94.8823 185.0003,108.0003 C185.0003,127.2143 178.2723,145.3933 165.9303,159.8493 C163.6713,162.4963 159.6133,162.6133 157.1533,160.1533" id="Fill-10" fill="#000000" opacity="0.15"></path>
                <path d="M156.1533,156.1533 L156.1533,156.1523 C153.9423,153.9423 153.8013,150.4073 155.8293,148.0283 C166.2953,135.7483 172.0003,120.3113 172.0003,104.0003 C172.0003,92.8743 169.2903,82.0033 164.1233,72.2443 C162.6573,69.4773 163.5443,66.0533 166.1823,64.3693 C169.1183,62.4943 173.0593,63.4863 174.6933,66.5623 C180.7983,78.0633 184.0003,90.8823 184.0003,104.0003 C184.0003,123.2143 177.2723,141.3933 164.9303,155.8493 C162.6713,158.4963 158.6133,158.6133 156.1533,156.1533" id="Fill-12" fill="#FA316E"></path>
                <path d="M52.8467,160.1533 C50.3867,162.6133 46.3287,162.4963 44.0697,159.8493 C31.7277,145.3933 24.9997,127.2143 24.9997,108.0003 C24.9997,63.8873 60.8877,28.0003 104.9997,28.0003 C118.1177,28.0003 130.9367,31.2013 142.4377,37.3073 C145.5137,38.9403 146.5067,42.8823 144.6317,45.8173 L144.6307,45.8183 C142.9457,48.4573 139.5217,49.3423 136.7557,47.8773 C126.9977,42.7093 116.1257,40.0003 104.9997,40.0003 C67.5047,40.0003 36.9997,70.5053 36.9997,108.0003 C36.9997,124.3113 42.7047,139.7483 53.1707,152.0283 C55.1987,154.4073 55.0577,157.9423 52.8467,160.1523 L52.8467,160.1533 Z" id="Fill-14" fill="#000000" opacity="0.15"></path>
                <path d="M51.8467,156.1533 C49.3867,158.6133 45.3287,158.4963 43.0697,155.8493 C30.7277,141.3933 23.9997,123.2143 23.9997,104.0003 C23.9997,59.8873 59.8877,24.0003 103.9997,24.0003 C117.1177,24.0003 129.9367,27.2013 141.4377,33.3073 C144.5137,34.9403 145.5067,38.8823 143.6317,41.8173 L143.6307,41.8183 C141.9457,44.4573 138.5217,45.3423 135.7557,43.8773 C125.9977,38.7093 115.1257,36.0003 103.9997,36.0003 C66.5047,36.0003 35.9997,66.5053 35.9997,104.0003 C35.9997,120.3113 41.7047,135.7483 52.1707,148.0283 C54.1987,150.4073 54.0577,153.9423 51.8467,156.1523 L51.8467,156.1533 Z" id="Fill-16" fill="#0097E8"></path>
                <path d="M110,104 C110,100.687 107.313,98 104,98 C100.687,98 98,100.687 98,104 C98,107.313 100.687,110 104,110 C107.313,110 110,107.313 110,104" id="Fill-18" fill="#232D40"></path>
                <path d="M108.5356,111.5352 C107.5916,112.4792 106.3356,113.0002 104.9996,113.0002 C103.6646,113.0002 102.4086,112.4792 101.4646,111.5352 C100.5196,110.5912 99.9996,109.3352 99.9996,108.0002 C99.9996,106.6652 100.5196,105.4092 101.4646,104.4652 C102.4086,103.5202 103.6646,103.0002 104.9996,103.0002 C106.3356,103.0002 107.5916,103.5202 108.5356,104.4652 C109.4796,105.4092 109.9996,106.6652 109.9996,108.0002 C109.9996,109.3352 109.4796,110.5912 108.5356,111.5352 M165.1036,47.8962 C163.1346,45.9272 159.9966,45.7382 157.8056,47.4592 L95.7356,96.2132 C95.2216,96.6182 94.7826,97.0052 94.3936,97.3932 C91.5606,100.2262 89.9996,103.9932 89.9996,108.0002 C89.9996,112.0072 91.5606,115.7732 94.3936,118.6062 C97.2266,121.4392 100.9936,123.0002 104.9996,123.0002 C109.0066,123.0002 112.7736,121.4392 115.6066,118.6062 C115.9936,118.2202 116.3796,117.7802 116.7856,117.2642 L165.5406,55.1952 C167.2626,53.0042 167.0746,49.8662 165.1036,47.8962" id="Fill-20" fill="#000000" opacity="0.15"></path>
            </g>
            <g id="Group-25" transform="translate(102.000000, 55.000000)">
                <mask id="mask-5" fill="white">
                    <use xlink:href="#path-4"></use>
                </mask>
                <g id="Clip-24"></g>
                <path d="M67.423,1.245 L5.354,49.999 C4.922,50.34 4.499,50.702 4.101,51.1 C-1.367,56.568 -1.367,65.433 4.101,70.899 C9.568,76.367 18.432,76.367 23.9,70.899 C24.298,70.5 24.659,70.078 25,69.646 L73.754,7.577 C75.165,5.783 75.011,3.217 73.397,1.604 C72.522,0.728 71.367,0.283 70.207,0.282 C69.227,0.282 68.244,0.6 67.423,1.245 M9.757,65.242 C7.415,62.899 7.415,59.1 9.757,56.758 C12.101,54.414 15.9,54.414 18.242,56.758 C20.586,59.1 20.586,62.899 18.242,65.242 C17.071,66.414 15.536,67 14,67 C12.465,67 10.929,66.414 9.757,65.242" id="Fill-23" fill="url(#linearGradient-6)" mask="url(#mask-5)"></path>
            </g>
        </g>
    </g>
</svg>