<?xml version="1.0" encoding="UTF-8"?>
<svg width="256px" height="256px" viewBox="0 0 256 256" version="1.1" xmlns="http://www.w3.org/2000/svg" xmlns:xlink="http://www.w3.org/1999/xlink">
    <!-- Generator: Sketch 52.2 (67145) - http://www.bohemiancoding.com/sketch -->
    <title>Uninstall Apps</title>
    <desc>Created with Sketch.</desc>
    <defs>
        <path d="M25.0434783,0 C11.2121739,0 0,11.2121739 0,25.0434783 L0,70.9565217 C0,84.7878261 11.2121739,96 25.0434783,96 L70.9565217,96 C84.7878261,96 96,84.7878261 96,70.9565217 L96,25.0434783 C96,11.2121739 84.7878261,0 70.9565217,0 L25.0434783,0 Z" id="path-1"></path>
        <linearGradient x1="50%" y1="100%" x2="50%" y2="0%" id="linearGradient-3">
            <stop stop-color="#31AA6B" offset="0%"></stop>
            <stop stop-color="#75FBBA" offset="100%"></stop>
        </linearGradient>
        <path d="M25.0434783,0 C11.2121739,0 0,11.2121739 0,25.0434783 L0,70.9565217 C0,84.7878261 11.2121739,96 25.0434783,96 L70.9565217,96 C84.7878261,96 96,84.7878261 96,70.9565217 L96,25.0434783 C96,11.2121739 84.7878261,0 70.9565217,0 L25.0434783,0 Z" id="path-4"></path>
        <linearGradient x1="50%" y1="100%" x2="50%" y2="0%" id="linearGradient-6">
            <stop stop-color="#34A3E4" offset="0%"></stop>
            <stop stop-color="#31EFF9" offset="100%"></stop>
        </linearGradient>
        <path d="M25.0434783,0 C11.2121739,0 0,11.2121739 0,25.0434783 L0,70.9565217 C0,84.7878261 11.2121739,96 25.0434783,96 L70.9565217,96 C84.7878261,96 96,84.7878261 96,70.9565217 L96,25.0434783 C96,11.2121739 84.7878261,0 70.9565217,0 L25.0434783,0 Z" id="path-7"></path>
        <linearGradient x1="50%" y1="100%" x2="50%" y2="0%" id="linearGradient-9">
            <stop stop-color="#D43DC3" offset="0%"></stop>
            <stop stop-color="#A777F9" offset="100%"></stop>
        </linearGradient>
        <path d="M75.112,1.573 L44,32.687 L12.887,1.573 C11.325,0.011 8.792,0.011 7.231,1.573 L1.573,7.23 C0.012,8.793 0.012,11.325 1.573,12.887 L32.686,44 L1.573,75.112 C0.012,76.675 0.012,79.207 1.573,80.769 L7.231,86.427 C8.792,87.988 11.325,87.988 12.887,86.427 L44,55.314 L75.112,86.427 C76.675,87.988 79.207,87.988 80.77,86.427 L86.426,80.769 C87.989,79.207 87.989,76.675 86.426,75.112 L55.313,44 L86.426,12.887 C87.989,11.325 87.989,8.793 86.426,7.23 L80.77,1.573 C79.989,0.792 78.965,0.402 77.941,0.402 C76.917,0.402 75.894,0.792 75.112,1.573" id="path-10"></path>
        <linearGradient x1="70.7177595%" y1="106.922643%" x2="29.2816408%" y2="-6.92183104%" id="linearGradient-12">
            <stop stop-color="#FDBC2B" offset="0%"></stop>
            <stop stop-color="#FB215B" offset="100%"></stop>
        </linearGradient>
    </defs>
    <g id="Uninstall-Apps" stroke="none" stroke-width="1" fill="none" fill-rule="evenodd">
        <g id="Group-20">
            <polygon id="Fill-1" points="0 256 256 256 256 0 0 0"></polygon>
            <polygon id="Fill-2" points="12 244 244 244 244 12 12 12"></polygon>
            <g id="Group-5" transform="translate(24.000000, 24.000000)">
                <mask id="mask-2" fill="white">
                    <use xlink:href="#path-1"></use>
                </mask>
                <g id="Clip-4"></g>
                <path d="M25.0434783,0 C11.2121739,0 0,11.2121739 0,25.0434783 L0,70.9565217 C0,84.7878261 11.2121739,96 25.0434783,96 L70.9565217,96 C84.7878261,96 96,84.7878261 96,70.9565217 L96,25.0434783 C96,11.2121739 84.7878261,0 70.9565217,0 L25.0434783,0 Z" id="Fill-3" fill="url(#linearGradient-3)" mask="url(#mask-2)"></path>
            </g>
            <g id="Group-8" transform="translate(136.000000, 24.000000)">
                <mask id="mask-5" fill="white">
                    <use xlink:href="#path-4"></use>
                </mask>
                <g id="Clip-7"></g>
                <path d="M25.0434783,0 C11.2121739,0 0,11.2121739 0,25.0434783 L0,70.9565217 C0,84.7878261 11.2121739,96 25.0434783,96 L70.9565217,96 C84.7878261,96 96,84.7878261 96,70.9565217 L96,25.0434783 C96,11.2121739 84.7878261,0 70.9565217,0 L25.0434783,0 Z" id="Fill-6" fill="url(#linearGradient-6)" mask="url(#mask-5)"></path>
            </g>
            <g id="Group-11" transform="translate(24.000000, 136.000000)">
                <mask id="mask-8" fill="white">
                    <use xlink:href="#path-7"></use>
                </mask>
                <g id="Clip-10"></g>
                <path d="M25.0434783,0 C11.2121739,0 0,11.2121739 0,25.0434783 L0,70.9565217 C0,84.7878261 11.2121739,96 25.0434783,96 L70.9565217,96 C84.7878261,96 96,84.7878261 96,70.9565217 L96,25.0434783 C96,11.2121739 84.7878261,0 70.9565217,0 L25.0434783,0 Z" id="Fill-9" fill="url(#linearGradient-9)" mask="url(#mask-8)"></path>
            </g>
            <g id="Group-16" transform="translate(136.000000, 136.000000)">
                <path d="M83.4782609,96 L12.5217391,96 C5.6066087,96 0,90.3933913 0,83.4782609 L0,12.5217391 C0,5.6066087 5.6066087,0 12.5217391,0 L83.4782609,0 C90.3933913,0 96,5.6066087 96,12.5217391 L96,83.4782609 C96,90.3933913 90.3933913,96 83.4782609,96" id="Fill-14"></path>
            </g>
            <g id="Group-19" transform="translate(140.000000, 140.000000)">
                <mask id="mask-11" fill="white">
                    <use xlink:href="#path-10"></use>
                </mask>
                <g id="Clip-18"></g>
                <path d="M75.112,1.573 L44,32.687 L12.887,1.573 C11.325,0.011 8.792,0.011 7.231,1.573 L1.573,7.23 C0.012,8.793 0.012,11.325 1.573,12.887 L32.686,44 L1.573,75.112 C0.012,76.675 0.012,79.207 1.573,80.769 L7.231,86.427 C8.792,87.988 11.325,87.988 12.887,86.427 L44,55.314 L75.112,86.427 C76.675,87.988 79.207,87.988 80.77,86.427 L86.426,80.769 C87.989,79.207 87.989,76.675 86.426,75.112 L55.313,44 L86.426,12.887 C87.989,11.325 87.989,8.793 86.426,7.23 L80.77,1.573 C79.989,0.792 78.965,0.402 77.941,0.402 C76.917,0.402 75.894,0.792 75.112,1.573" id="Fill-17" fill="url(#linearGradient-12)" mask="url(#mask-11)"></path>
            </g>
        </g>
    </g>
</svg>