<?xml version="1.0" encoding="UTF-8"?>
<svg width="256px" height="256px" viewBox="0 0 256 256" version="1.1" xmlns="http://www.w3.org/2000/svg" xmlns:xlink="http://www.w3.org/1999/xlink">
    <!-- Generator: Sketch 52.2 (67145) - http://www.bohemiancoding.com/sketch -->
    <title>Privacy Protection</title>
    <desc>Created with Sketch.</desc>
    <defs>
        <path d="M74.378,0 C68.013,0 61.908,2.529 57.407,7.029 L7.029,57.407 C2.528,61.908 0,68.012 0,74.378 L0,145.622 C0,151.987 2.528,158.092 7.029,162.593 L57.407,212.971 C61.908,217.472 68.013,220 74.378,220 L145.622,220 C151.988,220 158.092,217.472 162.593,212.971 L212.971,162.593 C217.471,158.092 220,151.987 220,145.622 L220,74.378 C220,68.012 217.471,61.908 212.971,57.407 L162.593,7.029 C158.092,2.529 151.988,0 145.622,0 L74.378,0 Z" id="path-1"></path>
        <linearGradient x1="68.1888095%" y1="99.9733405%" x2="31.8111905%" y2="0.026663%" id="linearGradient-3">
            <stop stop-color="#FB215B" offset="0%"></stop>
            <stop stop-color="#FF4931" offset="100%"></stop>
        </linearGradient>
    </defs>
    <g id="Privacy-Protection" stroke="none" stroke-width="1" fill="none" fill-rule="evenodd">
        <g id="Group-13">
            <polygon id="Fill-1" points="0 256 256 256 256 0 0 0"></polygon>
            <polygon id="Fill-2" points="12 244 244 244 244 12 12 12"></polygon>
            <g id="Group-5" transform="translate(18.000000, 18.000000)">
                <mask id="mask-2" fill="white">
                    <use xlink:href="#path-1"></use>
                </mask>
                <g id="Clip-4"></g>
                <path d="M74.378,0 C68.013,0 61.908,2.529 57.407,7.029 L7.029,57.407 C2.528,61.908 0,68.012 0,74.378 L0,145.622 C0,151.987 2.528,158.092 7.029,162.593 L57.407,212.971 C61.908,217.472 68.013,220 74.378,220 L145.622,220 C151.988,220 158.092,217.472 162.593,212.971 L212.971,162.593 C217.471,158.092 220,151.987 220,145.622 L220,74.378 C220,68.012 217.471,61.908 212.971,57.407 L162.593,7.029 C158.092,2.529 151.988,0 145.622,0 L74.378,0 Z" id="Fill-3" fill="url(#linearGradient-3)" mask="url(#mask-2)"></path>
            </g>
            <g id="Group-12" transform="translate(18.000000, 18.000000)">
                <path d="M145.6221,0 L74.3781,0 C68.0131,0 61.9081,2.528 57.4071,7.029 L7.0291,57.407 C2.5281,61.908 0.0001,68.013 0.0001,74.378 L0.0001,145.622 C0.0001,151.987 2.5281,158.092 7.0291,162.593 L57.4071,212.971 C61.9081,217.472 68.0131,220 74.3781,220 L145.6221,220 C151.9871,220 158.0921,217.472 162.5931,212.971 L212.9711,162.593 C217.4721,158.092 220.0001,151.987 220.0001,145.622 L220.0001,74.378 C220.0001,68.013 217.4721,61.908 212.9711,57.407 L162.5931,7.029 C158.0921,2.528 151.9871,0 145.6221,0 M145.6221,12 C148.8281,12 151.8411,13.248 154.1071,15.515 L204.4851,65.893 C206.7521,68.159 208.0001,71.172 208.0001,74.378 L208.0001,145.622 C208.0001,148.828 206.7521,151.841 204.4851,154.107 L154.1071,204.485 C151.8411,206.752 148.8281,208 145.6221,208 L74.3781,208 C71.1721,208 68.1591,206.752 65.8931,204.485 L15.5151,154.107 C13.2481,151.841 12.0001,148.828 12.0001,145.622 L12.0001,74.378 C12.0001,71.172 13.2481,68.159 15.5151,65.893 L65.8931,15.515 C68.1591,13.248 71.1721,12 74.3781,12 L145.6221,12" id="Fill-6" fill="#FFFFFF" opacity="0.25"></path>
                <path d="M167.8975,98.3867 C165.4275,96.7267 161.4985,96.3987 158.7105,99.6027 L142.5085,118.2327 C141.8385,119.0057 140.9265,119.0307 140.2995,118.7927 C139.6715,118.5587 139.0005,117.9427 139.0005,116.9197 L139.0005,56.9997 C139.0005,53.1407 135.8595,49.9997 132.0005,49.9997 C128.1405,49.9997 125.0005,53.1407 125.0005,56.9997 L125.0005,103.9997 C125.0005,105.1027 124.1025,105.9997 123.0005,105.9997 C121.8975,105.9997 121.0005,105.1027 121.0005,103.9997 L121.0005,48.9997 C121.0005,45.1407 117.8595,41.9997 114.0005,41.9997 C110.1405,41.9997 107.0005,45.1407 107.0005,48.9997 L107.0005,103.9997 C107.0005,105.1027 106.1025,105.9997 105.0005,105.9997 C103.8975,105.9997 103.0005,105.1027 103.0005,103.9997 L103.0005,56.9997 C103.0005,53.1407 99.8595,49.9997 96.0005,49.9997 C92.1405,49.9997 89.0005,53.1407 89.0005,56.9997 L89.0005,103.9997 C89.0005,105.1027 88.1025,105.9997 87.0005,105.9997 C85.8975,105.9997 85.0005,105.1027 85.0005,103.9997 L85.0005,72.9997 C85.0005,69.1407 81.8595,65.9997 78.0005,65.9997 C74.1405,65.9997 71.0005,69.1407 71.0005,72.9997 L71.0005,138.9997 C71.0005,157.1967 85.8035,171.9997 104.0005,171.9997 L117.3055,171.9997 C129.8335,171.9997 141.1225,165.0527 146.7655,153.8677 L170.2425,107.3497 C172.1555,103.5597 170.3685,100.0457 167.8975,98.3867" id="Fill-8" fill="#000000" opacity="0.15"></path>
                <path d="M137,113.9199 L137,53.9999 C137,50.6869 134.313,47.9999 131,47.9999 C127.687,47.9999 125,50.6869 125,53.9999 L125,100.9999 C125,102.6569 123.657,103.9999 122,103.9999 C120.343,103.9999 119,102.6569 119,100.9999 L119,45.9999 C119,42.6869 116.313,39.9999 113,39.9999 C109.687,39.9999 107,42.6869 107,45.9999 L107,100.9999 C107,102.6569 105.657,103.9999 104,103.9999 C102.343,103.9999 101,102.6569 101,100.9999 L101,53.9999 C101,50.6869 98.313,47.9999 95,47.9999 C91.687,47.9999 89,50.6869 89,53.9999 L89,100.9999 C89,102.6569 87.657,103.9999 86,103.9999 C84.343,103.9999 83,102.6569 83,100.9999 L83,69.9999 C83,66.6869 80.313,63.9999 77,63.9999 C73.687,63.9999 71,66.6869 71,69.9999 L71,135.9999 C71,153.6729 85.327,167.9999 103,167.9999 L116.306,167.9999 C128.383,167.9999 139.432,161.1999 144.873,150.4179 L168.35,103.8989 C171.532,97.5939 163.101,91.9299 158.466,97.2589 L142.264,115.8889 C140.443,117.9819 137,116.6939 137,113.9199" id="Fill-10" fill="#FFFFFF"></path>
            </g>
        </g>
    </g>
</svg>