<?xml version="1.0" encoding="UTF-8"?>
<svg width="64px" height="64px" viewBox="0 0 64 64" version="1.1" xmlns="http://www.w3.org/2000/svg" xmlns:xlink="http://www.w3.org/1999/xlink">
    <!-- Generator: Sketch 52.2 (67145) - http://www.bohemiancoding.com/sketch -->
    <title>Trash</title>
    <desc>Created with Sketch.</desc>
    <defs>
        <path d="M3.21,2.91 L0.911,24.79 C0.737,26.438 1.932,27.915 3.58,28.087 L19.492,29.76 C21.14,29.932 22.617,28.737 22.79,27.09 L25.089,5.21 C25.263,3.562 24.067,2.086 22.419,1.913 L6.507,0.24 C6.401,0.229 6.295,0.224 6.19,0.224 C4.674,0.224 3.372,1.369 3.21,2.91" id="path-1"></path>
        <linearGradient x1="73.1591613%" y1="102.129146%" x2="26.8408771%" y2="-2.13072435%" id="linearGradient-3">
            <stop stop-color="#F9316E" offset="0%"></stop>
            <stop stop-color="#FB9C7B" offset="100%"></stop>
        </linearGradient>
        <path d="M19.493,0.24 L3.581,1.913 C1.933,2.086 0.738,3.563 0.911,5.21 L3.21,27.09 C3.384,28.738 4.86,29.933 6.508,29.76 L22.42,28.087 C24.068,27.914 25.263,26.437 25.089,24.79 L22.79,2.91 C22.628,1.369 21.326,0.223 19.809,0.223 C19.705,0.223 19.599,0.229 19.493,0.24" id="path-4"></path>
        <linearGradient x1="72.0499393%" y1="99.6322988%" x2="27.9493013%" y2="0.36889423%" id="linearGradient-6">
            <stop stop-color="#FFA002" offset="0%"></stop>
            <stop stop-color="#FFCD00" offset="100%"></stop>
        </linearGradient>
        <path d="M3.379,0 C1.581,0 0.187,1.57 0.4,3.354 L4.37,36.709 C4.73,39.728 7.288,42 10.328,42 L35.671,42 C38.712,42 41.27,39.728 41.63,36.709 L45.6,3.354 C45.813,1.57 44.419,0 42.621,0 L3.379,0 Z" id="path-7"></path>
        <linearGradient x1="72.0616341%" y1="104.78076%" x2="22.0844139%" y2="-3.10667125%" id="linearGradient-9">
            <stop stop-color="#8CBCF4" offset="0%"></stop>
            <stop stop-color="#BADDF6" offset="100%"></stop>
        </linearGradient>
    </defs>
    <g id="Trash" stroke="none" stroke-width="1" fill="none" fill-rule="evenodd">
        <g id="Group-16">
            <polygon id="Fill-1" points="0 64 64 64 64 0 0 0"></polygon>
            <polygon id="Fill-2" points="4 60 60 60 60 4 4 4"></polygon>
            <g id="Group-5" transform="translate(26.000000, 0.000000)">
                <mask id="mask-2" fill="white">
                    <use xlink:href="#path-1"></use>
                </mask>
                <g id="Clip-4"></g>
                <path d="M3.21,2.91 L0.911,24.79 C0.737,26.438 1.932,27.915 3.58,28.087 L19.492,29.76 C21.14,29.932 22.617,28.737 22.79,27.09 L25.089,5.21 C25.263,3.562 24.067,2.086 22.419,1.913 L6.507,0.24 C6.401,0.229 6.295,0.224 6.19,0.224 C4.674,0.224 3.372,1.369 3.21,2.91" id="Fill-3" fill="url(#linearGradient-3)" mask="url(#mask-2)"></path>
            </g>
            <path d="M36.7847,8.8057 C36.5547,6.6137 34.5807,5.0127 32.3887,5.2457 L28.9267,5.6107 L26.9107,24.7897 C26.7377,26.4377 27.9327,27.9137 29.5807,28.0867 L38.9137,29.0687 L36.7847,8.8057 Z" id="Fill-6" fill="#000000" opacity="0.15"></path>
            <g id="Group-10" transform="translate(12.000000, 4.000000)">
                <mask id="mask-5" fill="white">
                    <use xlink:href="#path-4"></use>
                </mask>
                <g id="Clip-9"></g>
                <path d="M19.493,0.24 L3.581,1.913 C1.933,2.086 0.738,3.563 0.911,5.21 L3.21,27.09 C3.384,28.738 4.86,29.933 6.508,29.76 L22.42,28.087 C24.068,27.914 25.263,26.437 25.089,24.79 L22.79,2.91 C22.628,1.369 21.326,0.223 19.809,0.223 C19.705,0.223 19.599,0.229 19.493,0.24" id="Fill-8" fill="url(#linearGradient-6)" mask="url(#mask-5)"></path>
            </g>
            <g id="Group-15" transform="translate(9.000000, 18.000000)">
                <mask id="mask-8" fill="white">
                    <use xlink:href="#path-7"></use>
                </mask>
                <g id="Clip-14"></g>
                <path d="M3.379,0 C1.581,0 0.187,1.57 0.4,3.354 L4.37,36.709 C4.73,39.728 7.288,42 10.328,42 L35.671,42 C38.712,42 41.27,39.728 41.63,36.709 L45.6,3.354 C45.813,1.57 44.419,0 42.621,0 L3.379,0 Z" id="Fill-13" fill="url(#linearGradient-9)" mask="url(#mask-8)"></path>
            </g>
        </g>
    </g>
</svg>