<?xml version="1.0" encoding="UTF-8"?>
<svg width="64px" height="64px" viewBox="0 0 64 64" version="1.1" xmlns="http://www.w3.org/2000/svg" xmlns:xlink="http://www.w3.org/1999/xlink">
    <!-- Generator: Sketch 52.2 (67145) - http://www.bohemiancoding.com/sketch -->
    <title>Firewall - Block</title>
    <desc>Created with Sketch.</desc>
    <defs>
        <path d="M24.7275,0.45225 L24.21125,0.9335 C18.4295,6.46075 11.4985,8.96575 2.349,8.96575 L1.478,8.97825 C0.65825,8.99025 0,9.65825 0,10.478 L0,16 C0,31.25 0.12375,51.743 25.75,60.5 C51.37625,51.743 51.5,31.25 51.5,16 L51.5,10.478 C51.5,9.65825 50.84175,8.99025 50.022,8.97825 L49.15075,8.96575 C40.0015,8.96575 33.07025,6.46075 27.28875,0.9335 L26.77225,0.45225 C26.48425,0.184 26.11725,0.04975 25.75,0.04975 C25.38275,0.04975 25.0155,0.184 24.7275,0.45225" id="path-1"></path>
        <linearGradient x1="67.1056611%" y1="96.9974245%" x2="32.894332%" y2="3.00257536%" id="linearGradient-3">
            <stop stop-color="#FB215B" offset="0%"></stop>
            <stop stop-color="#FF4931" offset="100%"></stop>
        </linearGradient>
    </defs>
    <g id="Firewall---Block" stroke="none" stroke-width="1" fill="none" fill-rule="evenodd">
        <g id="Group-8">
            <polygon id="Fill-1" points="0 64 64 64 64 0 0 0"></polygon>
            <polygon id="Fill-2" points="3 61 61 61 61 3 3 3"></polygon>
            <g id="Group-5" transform="translate(6.250000, 0.500000)">
                <mask id="mask-2" fill="white">
                    <use xlink:href="#path-1"></use>
                </mask>
                <g id="Clip-4"></g>
                <path d="M24.7275,0.45225 L24.21125,0.9335 C18.4295,6.46075 11.4985,8.96575 2.349,8.96575 L1.478,8.97825 C0.65825,8.99025 0,9.65825 0,10.478 L0,16 C0,31.25 0.12375,51.743 25.75,60.5 C51.37625,51.743 51.5,31.25 51.5,16 L51.5,10.478 C51.5,9.65825 50.84175,8.99025 50.022,8.97825 L49.15075,8.96575 C40.0015,8.96575 33.07025,6.46075 27.28875,0.9335 L26.77225,0.45225 C26.48425,0.184 26.11725,0.04975 25.75,0.04975 C25.38275,0.04975 25.0155,0.184 24.7275,0.45225" id="Fill-3" fill="url(#linearGradient-3)" mask="url(#mask-2)"></path>
            </g>
            <path d="M32,57.8191 L32,32.0001 L10.1335,32.0001 C9.25075,26.63185 9.25,21.1871 9.25,16.5001 L9.25,12.46135 C18.65725,12.34485 25.921,9.6766 32,4.10235 L32,32.0001 L53.8665,32.0001 C53.41425,34.74935 52.7315,37.4786 51.6975,40.0751 C48.38625,48.3931 41.937,54.20535 32,57.8191 M56.272,9.47835 L55.401,9.4656 C46.2515,9.4656 39.32025,6.9606 33.53875,1.4336 L33.0225,0.95235 C32.44625,0.41585 31.5535,0.41585 30.9775,0.95235 L30.46125,1.4336 C24.67975,6.9606 17.7485,9.4656 8.599,9.4656 L7.728,9.47835 C6.90825,9.49035 6.25,10.1581 6.25,10.9781 L6.25,16.5001 C6.25,31.7501 6.37375,52.2431 32,61.0001 C57.62625,52.2431 57.75,31.7501 57.75,16.5001 L57.75,10.9781 C57.75,10.1581 57.09175,9.49035 56.272,9.47835" id="Fill-6" fill="#FFFFFF" opacity="0.25"></path>
        </g>
    </g>
</svg>