<?xml version="1.0" encoding="UTF-8"?>
<svg width="64px" height="64px" viewBox="0 0 64 64" version="1.1" xmlns="http://www.w3.org/2000/svg" xmlns:xlink="http://www.w3.org/1999/xlink">
    <!-- Generator: Sketch 52.2 (67145) - http://www.bohemiancoding.com/sketch -->
    <title>iOS Junk</title>
    <desc>Created with Sketch.</desc>
    <defs>
        <path d="M0,28 C0,43.464 12.536,56 28,56 C43.464,56 56,43.464 56,28 C56,12.536 43.464,0 28,0 C12.536,0 0,12.536 0,28" id="path-1"></path>
        <linearGradient x1="67.1056611%" y1="96.9974177%" x2="32.8943387%" y2="3.00258232%" id="linearGradient-3">
            <stop stop-color="#F9316E" offset="0%"></stop>
            <stop stop-color="#FB9C7B" offset="100%"></stop>
        </linearGradient>
    </defs>
    <g id="iOS-Junk" stroke="none" stroke-width="1" fill="none" fill-rule="evenodd">
        <g id="Group-8">
            <polygon id="Fill-1" points="0 64 64 64 64 0 0 0"></polygon>
            <polygon id="Fill-2" points="4 60 60 60 60 4 4 4"></polygon>
            <g id="Group-5" transform="translate(4.000000, 4.000000)">
                <mask id="mask-2" fill="white">
                    <use xlink:href="#path-1"></use>
                </mask>
                <g id="Clip-4"></g>
                <path d="M0,28 C0,43.464 12.536,56 28,56 C43.464,56 56,43.464 56,28 C56,12.536 43.464,0 28,0 C12.536,0 0,12.536 0,28" id="Fill-3" fill="url(#linearGradient-3)" mask="url(#mask-2)"></path>
            </g>
            <path d="M37.0386,17.2764 C38.2386,15.8204 39.0486,13.7994 38.8286,11.7854 C37.0996,11.8554 35.0036,12.9364 33.7636,14.3894 C32.6506,15.6774 31.6766,17.7344 31.9376,19.7104 C33.8676,19.8604 35.8376,18.7284 37.0386,17.2764 M41.3686,30.0554 C41.3256,25.7014 44.9196,23.6124 45.0806,23.5084 C43.0606,20.5524 39.9146,20.1484 38.7936,20.1014 C36.1156,19.8304 33.5686,21.6774 32.2086,21.6774 C30.8536,21.6774 28.7566,20.1414 26.5356,20.1814 C23.6166,20.2254 20.9256,21.8794 19.4226,24.4934 C16.3906,29.7554 18.6456,37.5504 21.6016,41.8184 C23.0456,43.9074 24.7676,46.2544 27.0296,46.1704 C29.2066,46.0834 30.0306,44.7604 32.6626,44.7604 C35.2946,44.7604 36.0346,46.1704 38.3396,46.1264 C40.6826,46.0834 42.1666,43.9974 43.6016,41.9024 C45.2596,39.4784 45.9426,37.1314 45.9826,37.0114 C45.9306,36.9884 41.4136,35.2574 41.3686,30.0554" id="Fill-6" fill="#FFFFFF"></path>
        </g>
    </g>
</svg>