<?xml version="1.0" encoding="UTF-8"?>
<svg width="168px" height="40px" viewBox="0 0 168 40" version="1.1" xmlns="http://www.w3.org/2000/svg" xmlns:xlink="http://www.w3.org/1999/xlink">
    <!-- Generator: Sketch 52.2 (67145) - http://www.bohemiancoding.com/sketch -->
    <title>Buyer Protection Gaurantee</title>
    <desc>Created with Sketch.</desc>
    <defs>
        <linearGradient x1="0%" y1="0%" x2="100%" y2="100%" id="linearGradient-1">
            <stop stop-color="#43E4A3" offset="0%"></stop>
            <stop stop-color="#20C46A" offset="100%"></stop>
        </linearGradient>
        <polygon id="path-2" points="0 26.835 113.75 26.835 113.75 0 0 0"></polygon>
    </defs>
    <g id="Buyer-Protection-Gaurantee" stroke="none" stroke-width="1" fill="none" fill-rule="evenodd">
        <g>
            <g id="Buyer-Protection">
                <g>
                    <rect id="Rectangle" x="0" y="0" width="40" height="40"></rect>
                    <path d="M19.9756,37.9795 C19.3176,37.8935 3.9996,35.5795 3.9996,6.8145 L3.9996,6.6995 L19.9996,2.0825 L35.9996,6.6995 L35.9996,6.8145 C35.9996,35.5795 20.6826,37.8935 20.0306,37.9785 L19.9996,37.9825 L19.9756,37.9795 Z" id="Fill-3" fill="url(#linearGradient-1)"></path>
                    <path d="M20,0 L2,5.194 L2,6.814 C2,37.313 18.99,39.868 19.713,39.963 L20,40 L20.287,39.963 C21.01,39.868 38,37.313 38,6.814 L38,5.194 L20,0 Z M20,4.163 L33.988,8.199 C33.553,32.17 21.872,35.564 20.001,35.954 C18.108,35.559 6.446,32.149 6.012,8.199 L20,4.163 Z" id="Fill-5" fill="#1C71A5"></path>
                    <polygon id="Fill-7" fill="#FFFFFF" points="19.4067 24.9424 12.8027 18.3384 14.8977 16.2434 19.4067 20.7524 29.1017 11.0574 31.1977 13.1524"></polygon>
                </g>
            </g>
            <g id="Group-38" transform="translate(50.000000, 7.000000)">
                <path d="M4.334,9.167 C5.633,9.167 6.323,8.634 6.323,7.629 C6.323,6.645 5.612,6.125 4.266,6.125 L2.283,6.125 L2.283,9.167 L4.334,9.167 Z M2.283,4.854 L3.985,4.854 C5.236,4.854 5.899,4.368 5.899,3.48 C5.899,2.611 5.277,2.105 4.211,2.105 L2.283,2.105 L2.283,4.854 Z M0.52,10.568 L0.52,0.704 L4.642,0.704 C6.515,0.704 7.643,1.647 7.643,3.165 C7.643,4.204 6.877,5.12 5.886,5.277 L5.886,5.4 C7.212,5.523 8.128,6.48 8.128,7.766 C8.128,9.495 6.843,10.568 4.737,10.568 L0.52,10.568 Z" id="Fill-1" fill="#1C71A5"></path>
                <path d="M16.3721,10.5684 L14.7381,10.5684 L14.7381,9.3794 L14.6221,9.3794 C14.2601,10.2334 13.5281,10.7184 12.3871,10.7184 C10.7531,10.7184 9.7961,9.7004 9.7961,7.9504 L9.7961,3.0894 L11.4911,3.0894 L11.4911,7.5264 C11.4911,8.6684 11.9631,9.2284 12.9751,9.2284 C14.0751,9.2284 14.6771,8.5514 14.6771,7.4444 L14.6771,3.0894 L16.3721,3.0894 L16.3721,10.5684 Z" id="Fill-3" fill="#1C71A5"></path>
                <path d="M18.6006,13.2549 L18.6006,11.8669 C18.6966,11.8879 18.9496,11.8949 19.0656,11.8949 C19.7836,11.8949 20.1866,11.6209 20.4056,10.9309 L20.4946,10.6029 L17.8216,3.0899 L19.6806,3.0899 L21.4306,8.9279 L21.5466,8.9279 L23.2896,3.0899 L25.0806,3.0899 L22.3806,10.8079 C21.7456,12.6669 20.9456,13.2819 19.2706,13.2819 C19.1676,13.2819 18.7096,13.2759 18.6006,13.2549" id="Fill-5" fill="#1C71A5"></path>
                <path d="M27.583,6.1045 L31.104,6.1045 C31.069,4.9975 30.399,4.2865 29.381,4.2865 C28.369,4.2865 27.658,5.0105 27.583,6.1045 Z M32.724,8.5105 C32.402,9.8715 31.165,10.7185 29.401,10.7185 C27.2,10.7185 25.874,9.2625 25.874,6.8565 C25.874,4.4505 27.221,2.9395 29.388,2.9395 C31.521,2.9395 32.799,4.3545 32.799,6.7125 L32.799,7.2595 L27.576,7.2595 L27.576,7.3485 C27.617,8.5925 28.335,9.3725 29.449,9.3725 C30.29,9.3725 30.871,9.0645 31.117,8.5105 L32.724,8.5105 Z" id="Fill-7" fill="#1C71A5"></path>
                <path d="M34.501,3.0899 L36.135,3.0899 L36.135,4.2519 L36.251,4.2519 C36.456,3.5139 37.263,2.9669 38.227,2.9669 C38.473,2.9669 38.773,2.9939 38.931,3.0419 L38.931,4.6139 C38.801,4.5669 38.35,4.5189 38.063,4.5189 C36.962,4.5189 36.196,5.2019 36.196,6.2479 L36.196,10.5689 L34.501,10.5689 L34.501,3.0899 Z" id="Fill-9" fill="#1C71A5"></path>
                <path d="M45.9922,5.8721 L47.7352,5.8721 C48.9932,5.8721 49.7312,5.2161 49.7312,4.0401 C49.7312,2.8301 49.0132,2.1811 47.7422,2.1811 L45.9922,2.1811 L45.9922,5.8721 Z M48.2072,0.7041 C50.1762,0.7041 51.5222,2.0511 51.5222,4.0401 C51.5222,5.9951 50.1282,7.3351 48.1322,7.3351 L45.9922,7.3351 L45.9922,10.5681 L44.2282,10.5681 L44.2282,0.7041 L48.2072,0.7041 Z" id="Fill-11" fill="#1C71A5"></path>
                <path d="M53.2861,3.0899 L54.9201,3.0899 L54.9201,4.2519 L55.0361,4.2519 C55.2411,3.5139 56.0481,2.9669 57.0121,2.9669 C57.2581,2.9669 57.5581,2.9939 57.7161,3.0419 L57.7161,4.6139 C57.5861,4.5669 57.1351,4.5189 56.8481,4.5189 C55.7471,4.5189 54.9811,5.2019 54.9811,6.2479 L54.9811,10.5689 L53.2861,10.5689 L53.2861,3.0899 Z" id="Fill-13" fill="#1C71A5"></path>
                <path d="M63.998,6.8291 C63.998,5.2701 63.321,4.3611 62.145,4.3611 C60.963,4.3611 60.286,5.2701 60.286,6.8291 C60.286,8.3941 60.963,9.2971 62.145,9.2971 C63.328,9.2971 63.998,8.3941 63.998,6.8291 M58.55,6.8291 C58.55,4.4161 59.924,2.9391 62.145,2.9391 C64.374,2.9391 65.741,4.4091 65.741,6.8291 C65.741,9.2561 64.381,10.7191 62.145,10.7191 C59.903,10.7191 58.55,9.2561 58.55,6.8291" id="Fill-15" fill="#1C71A5"></path>
                <path d="M69.6787,1.2579 L69.6787,3.1379 L71.2787,3.1379 L71.2787,4.4909 L69.6787,4.4909 L69.6787,8.1619 C69.6787,8.9009 69.9927,9.2289 70.7037,9.2289 C70.9437,9.2289 71.0737,9.2149 71.2787,9.1949 L71.2787,10.5209 C71.0327,10.5689 70.7177,10.6029 70.3897,10.6029 C68.6737,10.6029 67.9907,10.0219 67.9907,8.5719 L67.9907,4.4909 L66.8077,4.4909 L66.8077,3.1379 L67.9907,3.1379 L67.9907,1.2579 L69.6787,1.2579 Z" id="Fill-17" fill="#1C71A5"></path>
                <path d="M74.2451,6.1045 L77.7661,6.1045 C77.7311,4.9975 77.0611,4.2865 76.0431,4.2865 C75.0311,4.2865 74.3201,5.0105 74.2451,6.1045 Z M79.3861,8.5105 C79.0641,9.8715 77.8271,10.7185 76.0631,10.7185 C73.8621,10.7185 72.5361,9.2625 72.5361,6.8565 C72.5361,4.4505 73.8831,2.9395 76.0501,2.9395 C78.1831,2.9395 79.4611,4.3545 79.4611,6.7125 L79.4611,7.2595 L74.2381,7.2595 L74.2381,7.3485 C74.2791,8.5925 74.9971,9.3725 76.1111,9.3725 C76.9521,9.3725 77.5331,9.0645 77.7791,8.5105 L79.3861,8.5105 Z" id="Fill-19" fill="#1C71A5"></path>
                <path d="M86.0098,5.6055 C85.8528,4.8805 85.2918,4.3615 84.3628,4.3615 C83.1998,4.3615 82.5098,5.2565 82.5098,6.8085 C82.5098,8.3805 83.2068,9.2965 84.3628,9.2965 C85.2438,9.2965 85.8318,8.8795 86.0098,8.1005 L87.6228,8.1005 C87.4388,9.6665 86.2628,10.7185 84.3688,10.7185 C82.1198,10.7185 80.7938,9.2695 80.7938,6.8085 C80.7938,4.3815 82.1138,2.9395 84.3628,2.9395 C86.2828,2.9395 87.4458,4.0335 87.6228,5.6055 L86.0098,5.6055 Z" id="Fill-21" fill="#1C71A5"></path>
                <path d="M91.5674,1.2579 L91.5674,3.1379 L93.1674,3.1379 L93.1674,4.4909 L91.5674,4.4909 L91.5674,8.1619 C91.5674,8.9009 91.8814,9.2289 92.5924,9.2289 C92.8324,9.2289 92.9624,9.2149 93.1674,9.1949 L93.1674,10.5209 C92.9214,10.5689 92.6064,10.6029 92.2784,10.6029 C90.5624,10.6029 89.8794,10.0219 89.8794,8.5719 L89.8794,4.4909 L88.6964,4.4909 L88.6964,3.1379 L89.8794,3.1379 L89.8794,1.2579 L91.5674,1.2579 Z" id="Fill-23" fill="#1C71A5"></path>
                <mask id="mask-3" fill="white">
                    <use xlink:href="#path-2"></use>
                </mask>
                <g id="Clip-26"></g>
                <path d="M94.883,10.569 L96.571,10.569 L96.571,3.09 L94.883,3.09 L94.883,10.569 Z M94.678,0.937 C94.678,0.397 95.108,0 95.724,0 C96.346,0 96.77,0.397 96.77,0.937 C96.77,1.477 96.346,1.873 95.724,1.873 C95.108,1.873 94.678,1.477 94.678,0.937 Z" id="Fill-25" fill="#1C71A5" mask="url(#mask-3)"></path>
                <path d="M103.7495,6.8291 C103.7495,5.2701 103.0725,4.3611 101.8965,4.3611 C100.7135,4.3611 100.0375,5.2701 100.0375,6.8291 C100.0375,8.3941 100.7135,9.2971 101.8965,9.2971 C103.0795,9.2971 103.7495,8.3941 103.7495,6.8291 M98.3005,6.8291 C98.3005,4.4161 99.6745,2.9391 101.8965,2.9391 C104.1255,2.9391 105.4925,4.4091 105.4925,6.8291 C105.4925,9.2561 104.1325,10.7191 101.8965,10.7191 C99.6545,10.7191 98.3005,9.2561 98.3005,6.8291" id="Fill-27" fill="#1C71A5" mask="url(#mask-3)"></path>
                <path d="M107.2017,3.0899 L108.8357,3.0899 L108.8357,4.2859 L108.9517,4.2859 C109.3067,3.4519 110.0587,2.9399 111.1737,2.9399 C112.8417,2.9399 113.7507,3.9439 113.7507,5.7289 L113.7507,10.5689 L112.0557,10.5689 L112.0557,6.1319 C112.0557,4.9899 111.5767,4.4159 110.5447,4.4159 C109.5327,4.4159 108.8967,5.1129 108.8967,6.2139 L108.8967,10.5689 L107.2017,10.5689 L107.2017,3.0899 Z" id="Fill-28" fill="#1C71A5" mask="url(#mask-3)"></path>
                <path d="M4.8604,26.835 C1.8254,26.835 0.0004,24.873 0.0004,21.626 C0.0004,18.42 1.8324,16.438 4.7924,16.438 C7.1984,16.438 8.9894,17.839 9.2354,19.924 L6.7604,19.924 C6.5144,19.056 5.7764,18.529 4.7924,18.529 C3.3904,18.529 2.5564,19.678 2.5564,21.599 C2.5564,23.554 3.4794,24.743 4.9154,24.743 C6.0564,24.743 6.8494,24.073 6.9114,23.075 L6.9184,22.911 L5.1134,22.911 L5.1134,21.189 L9.3384,21.189 L9.3384,22.46 C9.3384,25.174 7.6494,26.835 4.8604,26.835" id="Fill-29" fill="#1C71A5" mask="url(#mask-3)"></path>
                <path d="M14.1006,22.5967 L16.3706,22.5967 L15.3106,18.9257 L15.1806,18.9257 L14.1006,22.5967 Z M16.8416,24.4017 L13.6216,24.4017 L12.9866,26.5687 L10.4976,26.5687 L13.8066,16.7037 L16.8756,16.7037 L20.1916,26.5687 L17.4566,26.5687 L16.8416,24.4017 Z" id="Fill-30" fill="#1C71A5" mask="url(#mask-3)"></path>
                <path d="M24.3115,22.8975 C24.3115,24.0455 24.9405,24.7225 26.0545,24.7225 C27.1685,24.7225 27.7905,24.0455 27.7905,22.8975 L27.7905,16.7045 L30.2995,16.7045 L30.2995,23.1645 C30.2995,25.3785 28.6185,26.8355 26.0545,26.8355 C23.4915,26.8355 21.8025,25.3785 21.8025,23.1645 L21.8025,16.7045 L24.3115,16.7045 L24.3115,22.8975 Z" id="Fill-31" fill="#1C71A5" mask="url(#mask-3)"></path>
                <path d="M35.3496,21.3457 L36.8326,21.3457 C37.7556,21.3457 38.3026,20.8327 38.3026,19.9787 C38.3026,19.1377 37.7216,18.5977 36.8266,18.5977 L35.3496,18.5977 L35.3496,21.3457 Z M35.3496,26.5687 L32.8406,26.5687 L32.8406,16.7037 L37.1816,16.7037 C39.4856,16.7037 40.8666,17.9207 40.8666,19.9577 C40.8666,21.1677 40.2646,22.2757 39.1846,22.7467 L41.1536,26.5687 L38.3366,26.5687 L36.6486,23.1167 L35.3496,23.1167 L35.3496,26.5687 Z" id="Fill-32" fill="#1C71A5" mask="url(#mask-3)"></path>
                <path d="M46.0117,22.5967 L48.2817,22.5967 L47.2217,18.9257 L47.0917,18.9257 L46.0117,22.5967 Z M48.7527,24.4017 L45.5327,24.4017 L44.8977,26.5687 L42.4087,26.5687 L45.7177,16.7037 L48.7867,16.7037 L52.1027,26.5687 L49.3677,26.5687 L48.7527,24.4017 Z" id="Fill-33" fill="#1C71A5" mask="url(#mask-3)"></path>
                <polygon id="Fill-34" fill="#1C71A5" mask="url(#mask-3)" points="53.9668 26.5684 53.9668 16.7044 55.9698 16.7044 60.0778 22.2554 60.2078 22.2554 60.2078 16.7044 62.5868 16.7044 62.5868 26.5684 60.5978 26.5684 56.4758 20.9634 56.3458 20.9634 56.3458 26.5684"></polygon>
                <polygon id="Fill-35" fill="#1C71A5" mask="url(#mask-3)" points="67.4248 26.5684 67.4248 18.7204 64.5808 18.7204 64.5808 16.7044 72.7778 16.7044 72.7778 18.7204 69.9268 18.7204 69.9268 26.5684"></polygon>
                <polygon id="Fill-36" fill="#1C71A5" mask="url(#mask-3)" points="81.5322 26.5684 74.7712 26.5684 74.7712 16.7044 81.5322 16.7044 81.5322 18.7204 77.2802 18.7204 77.2802 20.6894 81.2792 20.6894 81.2792 22.5354 77.2802 22.5354 77.2802 24.5514 81.5322 24.5514"></polygon>
                <polygon id="Fill-37" fill="#1C71A5" mask="url(#mask-3)" points="90.6426 26.5684 83.8816 26.5684 83.8816 16.7044 90.6426 16.7044 90.6426 18.7204 86.3906 18.7204 86.3906 20.6894 90.3896 20.6894 90.3896 22.5354 86.3906 22.5354 86.3906 24.5514 90.6426 24.5514"></polygon>
            </g>
        </g>
    </g>
</svg>