<?xml version="1.0" encoding="UTF-8"?>
<svg width="192px" height="40px" viewBox="0 0 192 40" version="1.1" xmlns="http://www.w3.org/2000/svg" xmlns:xlink="http://www.w3.org/1999/xlink">
    <!-- Generator: Sketch 52.2 (67145) - http://www.bohemiancoding.com/sketch -->
    <title>30 Day Money-Back Gaurantee</title>
    <desc>Created with Sketch.</desc>
    <defs>
        <polygon id="path-1" points="0 26.6367 137.313 26.6367 137.313 -0.0003 0 -0.0003"></polygon>
        <linearGradient x1="12.5%" y1="12.5%" x2="87.5%" y2="87.5%" id="linearGradient-3">
            <stop stop-color="#FFE164" offset="0%"></stop>
            <stop stop-color="#FFBF34" offset="100%"></stop>
        </linearGradient>
    </defs>
    <g id="30-Day-Money-Back-Gaurantee" stroke="none" stroke-width="1" fill="none" fill-rule="evenodd">
        <g id="Buyer-Protection-Gaurantee" transform="translate(50.000000, 7.000000)">
            <g id="Group-36">
                <path d="M2.5977,4.6279 L3.8007,4.6279 C4.8057,4.6279 5.4957,4.0199 5.4957,3.1379 C5.4957,2.2629 4.8327,1.6949 3.8007,1.6949 C2.7827,1.6949 2.1057,2.2699 2.0367,3.1989 L0.3897,3.1989 C0.4787,1.3879 1.8047,0.2599 3.8557,0.2599 C5.7697,0.2599 7.1987,1.3809 7.1987,2.8919 C7.1987,4.0469 6.5077,4.9289 5.4137,5.1609 L5.4137,5.2769 C6.7607,5.4349 7.5947,6.3509 7.5947,7.6629 C7.5947,9.3579 6.0087,10.6159 3.8627,10.6159 C1.7367,10.6159 0.2867,9.4399 0.1987,7.6359 L1.8867,7.6359 C1.9617,8.5519 2.7417,9.1329 3.8757,9.1329 C5.0037,9.1329 5.7967,8.4829 5.7967,7.5539 C5.7967,6.5899 5.0517,5.9949 3.8347,5.9949 L2.5977,5.9949 L2.5977,4.6279 Z" id="Fill-1" fill="#303A4C"></path>
                <path d="M15.0459,5.4277 C15.0459,3.0147 14.3079,1.7297 13.0699,1.7297 C11.8329,1.7297 11.0879,3.0217 11.0879,5.4277 C11.0879,7.8547 11.8189,9.1537 13.0699,9.1537 C14.3209,9.1537 15.0459,7.8547 15.0459,5.4277 M9.3039,5.4277 C9.3039,2.1667 10.7259,0.2597 13.0699,0.2597 C15.4079,0.2597 16.8299,2.1667 16.8299,5.4417 C16.8299,8.7017 15.4289,10.6157 13.0699,10.6157 C10.7049,10.6157 9.3039,8.7017 9.3039,5.4277" id="Fill-3" fill="#303A4C"></path>
                <path d="M24.4316,8.8457 L26.1336,8.8457 C28.0956,8.8457 29.2096,7.6217 29.2096,5.4207 C29.2096,3.2677 28.0686,2.0307 26.1336,2.0307 L24.4316,2.0307 L24.4316,8.8457 Z M26.3666,0.5057 C29.2986,0.5057 31.0076,2.2967 31.0076,5.3937 C31.0076,8.5587 29.3196,10.3697 26.3666,10.3697 L22.6676,10.3697 L22.6676,0.5057 L26.3666,0.5057 Z" id="Fill-5" fill="#303A4C"></path>
                <path d="M37.1465,7.6289 L37.1465,7.0339 L35.4585,7.1439 C34.5075,7.2049 34.0635,7.5469 34.0635,8.1549 C34.0635,8.7839 34.6035,9.1599 35.3555,9.1599 C36.3805,9.1599 37.1465,8.4969 37.1465,7.6289 M32.3815,8.2509 C32.3815,6.8979 33.4005,6.1179 35.2185,6.0089 L37.1465,5.8929 L37.1465,5.2639 C37.1465,4.5319 36.6545,4.1219 35.7385,4.1219 C34.9585,4.1219 34.4255,4.3959 34.2685,4.9009 L32.6685,4.9009 C32.8055,3.5819 34.0425,2.7409 35.8205,2.7409 C37.7415,2.7409 38.8215,3.6779 38.8215,5.2639 L38.8215,10.3699 L37.1875,10.3699 L37.1875,9.3449 L37.0715,9.3449 C36.6545,10.0689 35.8345,10.4929 34.8565,10.4929 C33.4145,10.4929 32.3815,9.6179 32.3815,8.2509" id="Fill-7" fill="#303A4C"></path>
                <path d="M40.7764,13.0566 L40.7764,11.6686 C40.8724,11.6896 41.1254,11.6966 41.2414,11.6966 C41.9594,11.6966 42.3624,11.4226 42.5814,10.7326 L42.6704,10.4046 L39.9974,2.8916 L41.8564,2.8916 L43.6064,8.7296 L43.7224,8.7296 L45.4654,2.8916 L47.2564,2.8916 L44.5564,10.6096 C43.9214,12.4686 43.1214,13.0836 41.4464,13.0836 C41.3434,13.0836 40.8854,13.0776 40.7764,13.0566" id="Fill-9" fill="#303A4C"></path>
                <polygon id="Fill-11" fill="#303A4C" points="61.168 10.3701 61.168 3.4321 61.072 3.4321 58.345 9.9871 57.087 9.9871 54.359 3.4321 54.264 3.4321 54.264 10.3701 52.623 10.3701 52.623 0.5061 54.688 0.5061 57.654 7.6901 57.777 7.6901 60.744 0.5061 62.809 0.5061 62.809 10.3701"></polygon>
                <path d="M70.1436,6.6308 C70.1436,5.0718 69.4666,4.1628 68.2906,4.1628 C67.1086,4.1628 66.4316,5.0718 66.4316,6.6308 C66.4316,8.1958 67.1086,9.0988 68.2906,9.0988 C69.4736,9.0988 70.1436,8.1958 70.1436,6.6308 M64.6956,6.6308 C64.6956,4.2178 66.0696,2.7408 68.2906,2.7408 C70.5196,2.7408 71.8866,4.2108 71.8866,6.6308 C71.8866,9.0578 70.5266,10.5208 68.2906,10.5208 C66.0486,10.5208 64.6956,9.0578 64.6956,6.6308" id="Fill-13" fill="#303A4C"></path>
                <path d="M73.5957,2.8916 L75.2297,2.8916 L75.2297,4.0876 L75.3457,4.0876 C75.7007,3.2536 76.4527,2.7416 77.5677,2.7416 C79.2357,2.7416 80.1447,3.7456 80.1447,5.5306 L80.1447,10.3706 L78.4497,10.3706 L78.4497,5.9336 C78.4497,4.7916 77.9707,4.2176 76.9387,4.2176 C75.9267,4.2176 75.2907,4.9146 75.2907,6.0156 L75.2907,10.3706 L73.5957,10.3706 L73.5957,2.8916 Z" id="Fill-15" fill="#303A4C"></path>
                <path d="M83.4941,5.9062 L87.0151,5.9062 C86.9801,4.7992 86.3101,4.0882 85.2921,4.0882 C84.2801,4.0882 83.5691,4.8122 83.4941,5.9062 Z M88.6351,8.3122 C88.3131,9.6732 87.0761,10.5202 85.3121,10.5202 C83.1111,10.5202 81.7851,9.0642 81.7851,6.6582 C81.7851,4.2522 83.1321,2.7412 85.2991,2.7412 C87.4321,2.7412 88.7101,4.1562 88.7101,6.5142 L88.7101,7.0612 L83.4871,7.0612 L83.4871,7.1502 C83.5281,8.3942 84.2461,9.1742 85.3601,9.1742 C86.2011,9.1742 86.7821,8.8662 87.0281,8.3122 L88.6351,8.3122 Z" id="Fill-17" fill="#303A4C"></path>
                <path d="M90.3848,13.0566 L90.3848,11.6686 C90.4808,11.6896 90.7338,11.6966 90.8498,11.6966 C91.5678,11.6966 91.9708,11.4226 92.1898,10.7326 L92.2788,10.4046 L89.6058,2.8916 L91.4648,2.8916 L93.2148,8.7296 L93.3308,8.7296 L95.0738,2.8916 L96.8648,2.8916 L94.1648,10.6096 C93.5298,12.4686 92.7298,13.0836 91.0548,13.0836 C90.9518,13.0836 90.4938,13.0776 90.3848,13.0566" id="Fill-19" fill="#303A4C"></path>
                <mask id="mask-2" fill="white">
                    <use xlink:href="#path-1"></use>
                </mask>
                <g id="Clip-22"></g>
                <polygon id="Fill-21" fill="#303A4C" mask="url(#mask-2)" points="98.191 7.1917 102.682 7.1917 102.682 5.5987 98.191 5.5987"></polygon>
                <path d="M108.8281,8.9687 C110.1271,8.9687 110.8171,8.4357 110.8171,7.4307 C110.8171,6.4467 110.1061,5.9267 108.7601,5.9267 L106.7771,5.9267 L106.7771,8.9687 L108.8281,8.9687 Z M106.7771,4.6557 L108.4791,4.6557 C109.7301,4.6557 110.3931,4.1697 110.3931,3.2817 C110.3931,2.4127 109.7711,1.9067 108.7051,1.9067 L106.7771,1.9067 L106.7771,4.6557 Z M105.0141,10.3697 L105.0141,0.5057 L109.1361,0.5057 C111.0091,0.5057 112.1371,1.4487 112.1371,2.9667 C112.1371,4.0057 111.3711,4.9217 110.3801,5.0787 L110.3801,5.2017 C111.7061,5.3247 112.6221,6.2817 112.6221,7.5677 C112.6221,9.2967 111.3371,10.3697 109.2311,10.3697 L105.0141,10.3697 Z" id="Fill-23" fill="#303A4C" mask="url(#mask-2)"></path>
                <path d="M118.7061,7.6289 L118.7061,7.0339 L117.0181,7.1439 C116.0671,7.2049 115.6231,7.5469 115.6231,8.1549 C115.6231,8.7839 116.1631,9.1599 116.9151,9.1599 C117.9401,9.1599 118.7061,8.4969 118.7061,7.6289 M113.9411,8.2509 C113.9411,6.8979 114.9601,6.1179 116.7781,6.0089 L118.7061,5.8929 L118.7061,5.2639 C118.7061,4.5319 118.2141,4.1219 117.2981,4.1219 C116.5181,4.1219 115.9851,4.3959 115.8281,4.9009 L114.2281,4.9009 C114.3651,3.5819 115.6021,2.7409 117.3801,2.7409 C119.3011,2.7409 120.3811,3.6779 120.3811,5.2639 L120.3811,10.3699 L118.7471,10.3699 L118.7471,9.3449 L118.6311,9.3449 C118.2141,10.0689 117.3941,10.4929 116.4161,10.4929 C114.9741,10.4929 113.9411,9.6179 113.9411,8.2509" id="Fill-24" fill="#303A4C" mask="url(#mask-2)"></path>
                <path d="M127.2646,5.4072 C127.1076,4.6822 126.5466,4.1632 125.6176,4.1632 C124.4546,4.1632 123.7646,5.0582 123.7646,6.6102 C123.7646,8.1822 124.4616,9.0982 125.6176,9.0982 C126.4986,9.0982 127.0866,8.6812 127.2646,7.9022 L128.8776,7.9022 C128.6936,9.4682 127.5176,10.5202 125.6236,10.5202 C123.3746,10.5202 122.0486,9.0712 122.0486,6.6102 C122.0486,4.1832 123.3686,2.7412 125.6176,2.7412 C127.5376,2.7412 128.7006,3.8352 128.8776,5.4072 L127.2646,5.4072 Z" id="Fill-25" fill="#303A4C" mask="url(#mask-2)"></path>
                <polygon id="Fill-26" fill="#303A4C" mask="url(#mask-2)" points="135.1396 2.8916 137.1086 2.8916 134.1276 6.0976 137.3136 10.3706 135.2626 10.3706 132.8636 7.1636 132.2616 7.7656 132.2616 10.3706 130.5666 10.3706 130.5666 -0.0004 132.2616 -0.0004 132.2616 5.9406 132.3776 5.9406"></polygon>
                <path d="M4.8604,26.6367 C1.8254,26.6367 0.0004,24.6747 0.0004,21.4277 C0.0004,18.2217 1.8324,16.2397 4.7924,16.2397 C7.1984,16.2397 8.9894,17.6407 9.2354,19.7257 L6.7604,19.7257 C6.5144,18.8577 5.7764,18.3307 4.7924,18.3307 C3.3904,18.3307 2.5564,19.4797 2.5564,21.4007 C2.5564,23.3557 3.4794,24.5447 4.9154,24.5447 C6.0564,24.5447 6.8494,23.8747 6.9114,22.8767 L6.9184,22.7127 L5.1134,22.7127 L5.1134,20.9907 L9.3384,20.9907 L9.3384,22.2617 C9.3384,24.9757 7.6494,26.6367 4.8604,26.6367" id="Fill-27" fill="#303A4C" mask="url(#mask-2)"></path>
                <path d="M14.1006,22.3984 L16.3706,22.3984 L15.3106,18.7274 L15.1806,18.7274 L14.1006,22.3984 Z M16.8416,24.2034 L13.6216,24.2034 L12.9866,26.3704 L10.4976,26.3704 L13.8066,16.5054 L16.8756,16.5054 L20.1916,26.3704 L17.4566,26.3704 L16.8416,24.2034 Z" id="Fill-28" fill="#303A4C" mask="url(#mask-2)"></path>
                <path d="M24.3115,22.6992 C24.3115,23.8472 24.9405,24.5242 26.0545,24.5242 C27.1685,24.5242 27.7905,23.8472 27.7905,22.6992 L27.7905,16.5062 L30.2995,16.5062 L30.2995,22.9662 C30.2995,25.1802 28.6185,26.6372 26.0545,26.6372 C23.4915,26.6372 21.8025,25.1802 21.8025,22.9662 L21.8025,16.5062 L24.3115,16.5062 L24.3115,22.6992 Z" id="Fill-29" fill="#303A4C" mask="url(#mask-2)"></path>
                <path d="M35.3496,21.1474 L36.8326,21.1474 C37.7556,21.1474 38.3026,20.6344 38.3026,19.7804 C38.3026,18.9394 37.7216,18.3994 36.8266,18.3994 L35.3496,18.3994 L35.3496,21.1474 Z M35.3496,26.3704 L32.8406,26.3704 L32.8406,16.5054 L37.1816,16.5054 C39.4856,16.5054 40.8666,17.7224 40.8666,19.7594 C40.8666,20.9694 40.2646,22.0774 39.1846,22.5484 L41.1536,26.3704 L38.3366,26.3704 L36.6486,22.9184 L35.3496,22.9184 L35.3496,26.3704 Z" id="Fill-30" fill="#303A4C" mask="url(#mask-2)"></path>
                <path d="M46.0117,22.3984 L48.2817,22.3984 L47.2217,18.7274 L47.0917,18.7274 L46.0117,22.3984 Z M48.7527,24.2034 L45.5327,24.2034 L44.8977,26.3704 L42.4087,26.3704 L45.7177,16.5054 L48.7867,16.5054 L52.1027,26.3704 L49.3677,26.3704 L48.7527,24.2034 Z" id="Fill-31" fill="#303A4C" mask="url(#mask-2)"></path>
                <polygon id="Fill-32" fill="#303A4C" mask="url(#mask-2)" points="53.9668 26.3701 53.9668 16.5061 55.9698 16.5061 60.0778 22.0571 60.2078 22.0571 60.2078 16.5061 62.5868 16.5061 62.5868 26.3701 60.5978 26.3701 56.4758 20.7651 56.3458 20.7651 56.3458 26.3701"></polygon>
                <polygon id="Fill-33" fill="#303A4C" mask="url(#mask-2)" points="67.4248 26.3701 67.4248 18.5221 64.5808 18.5221 64.5808 16.5061 72.7778 16.5061 72.7778 18.5221 69.9268 18.5221 69.9268 26.3701"></polygon>
                <polygon id="Fill-34" fill="#303A4C" mask="url(#mask-2)" points="81.5322 26.3701 74.7712 26.3701 74.7712 16.5061 81.5322 16.5061 81.5322 18.5221 77.2802 18.5221 77.2802 20.4911 81.2792 20.4911 81.2792 22.3371 77.2802 22.3371 77.2802 24.3531 81.5322 24.3531"></polygon>
                <polygon id="Fill-35" fill="#303A4C" mask="url(#mask-2)" points="90.6426 26.3701 83.8816 26.3701 83.8816 16.5061 90.6426 16.5061 90.6426 18.5221 86.3906 18.5221 86.3906 20.4911 90.3896 20.4911 90.3896 22.3371 86.3906 22.3371 86.3906 24.3531 90.6426 24.3531"></polygon>
            </g>
        </g>
        <rect id="Rectangle" x="0" y="0" width="40" height="40"></rect>
        <g id="30-Day-Money-Back">
            <g>
                <rect id="Rectangle" x="0" y="0" width="40" height="40"></rect>
                <circle id="Oval" fill="#303A4C" cx="20" cy="20" r="20"></circle>
                <g id="Group-14" transform="translate(4.000000, 4.000000)">
                    <path d="M32,16 C32,24.8362667 24.8362667,32 16,32 C7.16266667,32 0,24.8362667 0,16 C0,7.16373333 7.16266667,0 16,0 C24.8362667,0 32,7.16373333 32,16" id="Fill-2" fill="url(#linearGradient-3)"></path>
                    <path d="M7.0005,15.3947 L8.3065,13.6377 C9.0415,14.3427 10.1685,14.6887 11.0385,14.6887 C12.1495,14.6887 12.7215,14.2677 12.7215,13.7127 C12.7215,13.1417 12.3005,12.8577 10.9355,12.8577 C10.4985,12.8577 9.7325,12.8727 9.5825,12.8867 L9.5825,10.5897 C9.7785,10.6047 10.5595,10.6047 10.9355,10.6047 C11.9705,10.6047 12.5565,10.3487 12.5565,9.8247 C12.5565,9.1927 11.8355,8.9087 10.8745,8.9087 C9.9585,8.9087 9.0875,9.2387 8.3815,9.8697 L7.1355,8.2477 C7.9915,7.3007 9.2975,6.6257 11.1445,6.6257 C13.6965,6.6257 15.1235,7.7217 15.1235,9.3737 C15.1235,10.5447 14.1165,11.4307 12.9315,11.6257 C13.9965,11.7307 15.2885,12.5567 15.2885,13.9987 C15.2885,15.7547 13.6375,16.9707 11.1445,16.9707 C9.2225,16.9707 7.7965,16.2947 7.0005,15.3947" id="Fill-4" fill="#303A4C"></path>
                    <path d="M22.3872,11.7912 C22.3872,10.0202 21.9072,8.9082 20.7052,8.9082 C19.5042,8.9082 19.0242,10.0202 19.0242,11.7912 C19.0242,13.5622 19.5042,14.6882 20.7052,14.6882 C21.9072,14.6882 22.3872,13.5622 22.3872,11.7912 M16.4102,11.7912 C16.4102,9.1472 17.7782,6.6262 20.7052,6.6262 C23.6332,6.6262 25.0002,9.1472 25.0002,11.7912 C25.0002,14.4342 23.6332,16.9712 20.7052,16.9712 C17.7782,16.9712 16.4102,14.4342 16.4102,11.7912" id="Fill-6" fill="#303A4C"></path>
                    <path d="M11.9653,22.134 C11.9653,21.089 11.3223,20.277 10.1083,20.277 L9.0193,20.277 L9.0193,24.001 L10.0993,24.001 C11.2783,24.001 11.9653,23.152 11.9653,22.134 Z M7.7503,25.117 L7.7503,19.16 L10.0993,19.16 C11.9653,19.16 13.2603,20.348 13.2603,22.134 C13.2603,23.938 11.9653,25.117 10.1083,25.117 L7.7503,25.117 Z" id="Fill-8" fill="#303A4C"></path>
                    <path d="M16.4614,20.4279 L15.5324,22.9909 L17.3914,22.9909 L16.4614,20.4279 Z M18.1134,25.1169 L17.7384,24.1089 L15.1854,24.1089 L14.8104,25.1169 L13.3714,25.1169 L15.6664,19.1599 L17.2564,19.1599 L19.5514,25.1169 L18.1134,25.1169 Z" id="Fill-10" fill="#303A4C"></path>
                    <polygon id="Fill-12" fill="#303A4C" points="21.3042 25.1174 21.3042 22.6794 19.0182 19.1604 20.4652 19.1604 21.9392 21.5444 23.4112 19.1604 24.8502 19.1604 22.5732 22.6794 22.5732 25.1174"></polygon>
                </g>
            </g>
        </g>
    </g>
</svg>